{
.appVersion = "3306";
.formatVersion = 3;
DisplayStrings = (
a,
b,
c,
d,
e,
f,
g,
h,
i,
j,
k,
l,
m,
n,
o,
p,
q,
r,
s,
t,
u,
v,
w,
x,
y,
z,
"ˁ",
"™",
"0",
"1",
"2",
"3",
"4",
"5",
"6",
"7",
"8",
"9",
A,
B,
C,
D,
E,
F,
G,
H,
I,
J,
K,
L,
M,
N,
O,
P,
Q,
R,
S,
T,
U,
V,
W,
X,
Y,
Z,
"/uni099D.rlig",
"অ",
"আ",
"ই",
"ঈ",
"/uni0988.alt",
"উ",
"ঋ",
"/uni098B.alt",
"ঊ",
"ঌ",
"এ",
"ঐ",
"ও",
"ঔ",
"ক",
"খ",
"/uni0996.alt",
"গ",
"/uni0997.alt",
"ঘ",
"ঙ",
"চ",
"ছ",
"জ",
"/uni099C.alt",
"ঝ",
"ঞ",
"ট",
"ঠ",
"ড",
"ঢ",
"ণ",
"ত",
"থ",
"দ",
"ধ",
"ন",
"/uni09A8.alt",
"প",
"/uni09AA.alt",
"ফ",
"ব",
"ভ",
"ম",
"য",
"র",
"ল",
"শ",
"/uni09B6.alt",
"ষ",
"স",
"/uni09B8.alt",
"হ",
"ড়",
"ঢ়",
"য়",
"ৎ",
"ং",
"ঃ",
"ৠ",
"/uni09E0.alt",
"ৡ",
"/uni09D70981.rphf",
"ঁ",
"া",
"ি",
"ী",
"ু",
"ূ",
"ৃ",
"ে",
"/uni09C7.init",
"ৈ",
"/uni09C8.init",
"ো",
"ৌ",
"ৗ",
"০",
"১",
"২",
"৩",
"৪",
"৫",
"৬",
"৭",
"৮",
"৯",
"৳",
"₹",
"৵",
"৶",
"৸",
"৹",
"/uni099509CD099F.akhn",
"/uni099509CD0995.akhn",
"/uni0981.rlig",
"/uni09CD09F0.blwf",
"/uni09BF.pres",
"/uni09C0.psts",
"/uni09D7.psts",
"/uni09BF.pres.1",
"/uni09C0.psts.1",
"/uni09D7.psts.1",
"/uni09BF.psts",
"/uni09C7.pres",
"ª",
"©",
"(",
"@",
"ā"
);
customParameters = (
{
name = "meta Table";
value = (
{
data = Beng;
tag = dlng;
},
{
data = "Beng,Latn";
tag = slng;
}
);
},
{
name = vendorID;
value = BNFF;
},
{
name = panose;
value = (
0,
0,
0,
0,
0,
0,
0,
0,
0,
0
);
},
{
name = unicodeRanges;
value = (
0,
1,
2,
3,
5,
6,
15,
16,
29,
31,
33,
35,
45,
60
);
},
{
name = fsType;
value = (
);
},
{
name = glyphOrder;
value = (
.notdef,
.null,
space,
uni00A0,
exclam,
quotedbl,
numbersign,
percent,
quotesingle,
parenleft,
parenright,
asterisk,
plus,
comma,
hyphen,
period,
slash,
colon,
semicolon,
less,
equal,
greater,
question,
at,
bracketleft,
backslash,
bracketright,
asciicircum,
underscore,
grave,
braceleft,
bar,
braceright,
asciitilde,
periodcentered,
multiply,
divide,
uni00AD,
endash,
emdash,
quoteleft,
quoteright,
quotedblleft,
quotedblright,
uni0985,
uni0986,
uni0987,

glyphs = (
{
glyphname = .notdef;
lastChange = "2025-10-08 12:05:32 +0000";
layers = (
{
layerId = m01;
shapes = (
{
closed = 1;
nodes = (
(611,834,l),
(200,834,l),
(200,0,l),
(611,0,l),
(611,0,l),
(611,0,l)
);
},
{
closed = 1;
nodes = (
(271,764,l),
(540,764,l),
(540,71,l),
(271,71,l),
(271,71,l),
(271,71,l)
);
}
);
width = 811;
}
);
note = .notdef;
},
{
glyphname = exclam;
kernLeft = exclam;
kernRight = exclam;
lastChange = "2025-10-08 12:05:32 +0000";
layers = (
{
layerId = m01;
shapes = (
{
closed = 1;
nodes = (
(120,24.333,o),
(142.333,2,o),
(169,2,cs),
(197,2,o),
(219,24.333,o),
(219,51,cs),
(219,77.667,o),
(197,100,o),
(169,100,cs),
(142.333,100,o),
(120,77.667,o),
(120,51,cs)
);
},
{
closed = 1;
nodes = (
(132,175,l),
(204,175,l),
(204,775,l),
(132,775,l),
(132,775,l),
(132,775,l)
);
}
);
width = 299;
}
);
note = exclam;
unicode = 33;
},
{
glyphname = quotedbl;
lastChange = "2025-10-08 12:05:32 +0000";
layers = (
{
layerId = m01;
shapes = (
{
closed = 1;
nodes = (
(145,573,l),
(158,826,l),
(80,826,l),
(93,573,l),
(93,573,l),
(93,573,l)
);
},
{
closed = 1;
nodes = (
(291,573,l),
(304,826,l),
(226,826,l),
(239,573,l),
(239,573,l),
(239,573,l)
);
}
);
width = 376;
}
);
note = quotedbl;
unicode = 34;
},
{
glyphname = numbersign;
lastChange = "2025-10-08 12:05:32 +0000";
layers = (
{
layerId = m01;
shapes = (
{
closed = 1;
nodes = (
(223,434,l),
(337,434,l),
(312,292,l),
(199,292,l),
(199,292,l),
(199,292,l)
);
},
{
closed = 1;
nodes = (
(348,505,l),
(235,505,l),
(262,660,l),
(191,660,l),
(165,505,l),
(40,505,l),
(40,434,l),
(153,434,l),
(129,292,l),
(40,292,l),
(40,221,l),
(117,221,l),
(91,73,l),
(161,73,l),
(187,221,l),
(300,221,l),
(275,73,l),
(345,73,l),
(371,221,l),
(493,221,l),
(493,292,l),
(383,292,l),
(407,434,l),
(493,434,l),
(493,505,l),
(419,505,l),
(446,660,l),
(374,660,l),
(374,660,l),
(374,660,l)
);
}
);
width = 553;
}
);
note = numbersign;
unicode = 35;
},
{
glyphname = percent;
lastChange = "2025-10-08 12:05:32 +0000";
layers = (
{
layerId = m01;
shapes = (
{
closed = 1;
nodes = (
(535,273,o),
(566,242,o),
(566,202,cs),
(566,142,ls),
(566,102,o),
(535,70,o),
(495,70,cs),
(455,70,o),
(423,102,o),
(423,142,cs),
(423,202,ls),
(423,242,o),
(455,273,o),
(495,273,cs)
);
},
{
closed = 1;
nodes = (
(240,704,o),
(272,673,o),
(272,633,cs),
(272,573,ls),
(272,533,o),
(240,502,o),
(200,502,cs),
(160,502,o),
(128,533,o),
(128,573,cs),
(128,633,ls),
(128,673,o),
(160,704,o),
(200,704,cs)
);
},
{
closed = 1;
nodes = (
(114,11,l),
(193,11,l),
(581,759,l),
(502,759,l),
(502,759,l),
(502,759,l)
);
},
{
closed = 1;
nodes = (
(277.333,433,o),
(340,495.667,o),
(340,573,cs),
(340,633,ls),
(340,710.333,o),
(277.333,773,o),
(200,773,cs),
(122.667,773,o),
(60,710.333,o),
(60,633,cs),
(60,573,ls),
(60,495.667,o),
(122.667,433,o),
(200,433,cs)
);
},
{
closed = 1;
nodes = (
(572.333,2,o),
(635,64.667,o),
(635,142,cs),
(635,202,ls),
(635,279.333,o),
(572.333,342,o),
(495,342,cs),
(416.552,342,o),
(354,278.391,o),
(354,202,cs),
(354,142,ls),
(354,65.609,o),
(416.552,2,o),
(495,2,cs)
);
}
);
width = 695;
}
);
note = percent;
unicode = 37;
},
{
glyphname = quotesingle;
lastChange = "2025-10-08 12:05:32 +0000";
layers = (
{
layerId = m01;
shapes = (
{
closed = 1;
nodes = (
(144,574,l),
(157,827,l),
(79,827,l),
(92,574,l),
(92,574,l),
(92,574,l)
);
}
);
width = 229;
}
);
note = quotesingle;
unicode = 39;
},
{
glyphname = parenleft;
lastChange = "2025-10-08 12:05:32 +0000";
layers = (
{
layerId = m01;
shapes = (
{
closed = 1;
nodes = (
(207.293,-31,o),
(151,25.293,o),
(151,93,cs),
(151,677,ls),
(151,746.379,o),
(206.38,802,o),
(275,802,c),
(275,873,l),
(167.589,873,o),
(80,784.159,o),
(80,677,cs),
(80,93,ls),
(80,-12.858,o),
(168.649,-101,o),
(275,-101,c),
(275,-31,l),
(275,-31,l),
(275,-31,l)
);
}
);
width = 335;
}
);
note = parenleft;
unicode = 40;
},
{
glyphname = parenright;
lastChange = "2025-10-08 12:05:32 +0000";
layers = (
{
layerId = m01;
shapes = (
{
closed = 1;
nodes = (
(167.134,-101,o),
(255,-14.236,o),
(255,93,cs),
(255,677,ls),
(255,788.137,o),
(166.069,873,o),
(60,873,c),
(60,802,l),
(131.588,802,o),
(185,745.748,o),
(185,677,cs),
(185,93,ls),
(185,21.64,o),
(125.504,-31,o),
(60,-31,c),
(60,-101,l),
(60,-101,l),
(60,-101,l)
);
}
);
width = 335;
}
);
note = parenright;
unicode = 41;
},
{
glyphname = asterisk;
lastChange = "2025-10-08 12:05:32 +0000";
layers = (
{
layerId = m01;
shapes = (
{
closed = 1;
nodes = (
(230,461,l),
(170,597,l),
(112,562,l),
(203,444,l),
(203,442,l),
(60,460,l),
(60,394,l),
(203,414,l),
(203,411,l),
(112,293,l),
(166,259,l),
(228,394,l),
(230,394,l),
(289,260,l),
(350,294,l),
(257,410,l),
(257,413,l),
(403,394,l),
(403,460,l),
(257,441,l),
(257,443,l),
(349,563,l),
(291,598,l),
(232,461,l),
(232,461,l),
(232,461,l)
);
}
);
width = 463;
}
);
note = asterisk;
unicode = 42;
},
{
glyphname = plus;
lastChange = "2025-10-08 12:05:32 +0000";
layers = (
{
layerId = m01;
shapes = (
{
closed = 1;
nodes = (
(262,455,l),
(262,603,l),
(192,603,l),
(192,455,l),
(80,455,l),
(80,385,l),
(192,385,l),
(192,237,l),
(262,237,l),
(262,385,l),
(374,385,l),
(374,455,l),
(374,455,l),
(374,455,l)
);
}
);
width = 454;
}
);
note = plus;
unicode = 43;
},
{
glyphname = comma;
lastChange = "2025-10-08 12:05:32 +0000";
layers = (
{
layerId = m01;
shapes = (
{
closed = 1;
nodes = (
(-3,-142,l),
(120,78,l),
(56,110,l),
(-30,-129,l),
(-30,-129,l),
(-30,-129,l)
);
}
);
width = 190;
}
);
note = comma;
unicode = 44;
},
{
glyphname = hyphen;
lastChange = "2025-10-08 12:05:32 +0000";
layers = (
{
layerId = m01;
shapes = (
{
closed = 1;
nodes = (
(80,314,l),
(422,314,l),
(422,385,l),
(80,385,l),
(80,385,l),
(80,385,l)
);
}
);
width = 502;
}
);
note = hyphen;
unicode = 45;
},
{
glyphname = period;
lastChange = "2025-10-08 12:05:32 +0000";
layers = (
{
layerId = m01;
shapes = (
{
closed = 1;
nodes = (
(166.667,4,o),
(189,26.333,o),
(189,53,cs),
(189,79.667,o),
(166.667,102,o),
(140,102,cs),
(113.333,102,o),
(90,79.667,o),
(90,53,cs),
(90,26.333,o),
(113.333,4,o),
(140,4,cs)
);
}
);
width = 279;
}
);
note = period;
unicode = 46;
},
{
glyphname = slash;
lastChange = "2025-10-08 12:05:32 +0000";
layers = (
{
layerId = m01;
shapes = (
{
closed = 1;
nodes = (
(60,-46,l),
(130,-46,l),
(291,843,l),
(220,843,l),
(220,843,l),
(220,843,l)
);
}
);
width = 351;
}
);
note = slash;
unicode = 47;
},
{
glyphname = colon;
lastChange = "2025-10-08 12:05:32 +0000";
layers = (
{
layerId = m01;
shapes = (
{
closed = 1;
nodes = (
(176.667,70,o),
(204,98.333,o),
(204,133,cs),
(204,166.333,o),
(176.667,194,o),
(142,194,cs),
(108.667,194,o),
(81,166.333,o),
(81,133,cs),
(81,98.333,o),
(108.667,70,o),
(142,70,cs)
);
},
{
closed = 1;
nodes = (
(175.333,435,o),
(203,463.333,o),
(203,498,cs),
(203,531.333,o),
(175.333,559,o),
(142,559,cs),
(107.333,559,o),
(80,531.333,o),
(80,498,cs),
(80,463.333,o),
(107.333,435,o),
(142,435,cs)
);
}
);
width = 284;
}
);
note = colon;
unicode = 58;
},
{
glyphname = semicolon;
lastChange = "2025-10-08 12:05:32 +0000";
layers = (
{
layerId = m01;
shapes = (
{
closed = 1;
nodes = (
(98,24,l),
(220,244,l),
(156,276,l),
(70,38,l),
(70,38,l),
(70,38,l)
);
},
{
closed = 1;
nodes = (
(208.333,466,o),
(237,493.333,o),
(237,528,cs),
(237,561.333,o),
(208.333,589,o),
(175,589,cs),
(140.333,589,o),
(113,561.333,o),
(113,528,cs),
(113,493.333,o),
(140.333,466,o),
(175,466,cs)
);
}
);
width = 317;
}
);
note = semicolon;
unicode = 59;
},
{
glyphname = less;
lastChange = "2025-10-08 12:05:32 +0000";
layers = (
{
layerId = m01;
shapes = (
{
closed = 1;
nodes = (
(60,374,l),
(210,-16,l),
(277,6,l),
(134,374,l),
(277,755,l),
(210,778,l),
(210,778,l),
(210,778,l)
);
}
);
width = 337;
}
);
note = less;
unicode = 60;
},
{
glyphname = equal;
lastChange = "2025-10-08 12:05:32 +0000";
layers = (
{
layerId = m01;
shapes = (
{
closed = 1;
nodes = (
(80,277,l),
(374,277,l),
(374,348,l),
(80,348,l),
(80,348,l),
(80,348,l)
);
},
{
closed = 1;
nodes = (
(80,456,l),
(374,456,l),
(374,526,l),
(80,526,l),
(80,526,l),
(80,526,l)
);
}
);
width = 454;
}
);
note = equal;
unicode = 61;
},
{
glyphname = greater;
lastChange = "2025-10-08 12:05:32 +0000";
layers = (
{
layerId = m01;
shapes = (
{
closed = 1;
nodes = (
(203,374,l),
(60,6,l),
(127,-16,l),
(277,374,l),
(127,778,l),
(60,755,l),
(60,755,l),
(60,755,l)
);
}
);
width = 337;
}
);
note = greater;
unicode = 62;
},
{
glyphname = question;
kernLeft = question;
kernRight = question;
lastChange = "2025-10-08 12:05:32 +0000";
layers = (
{
layerId = m01;
shapes = (
{
closed = 1;
nodes = (
(235,24.333,o),
(257.333,2,o),
(284,2,cs),
(310.667,2,o),
(333,24.333,o),
(333,51,cs),
(333,77.667,o),
(310.667,100,o),
(284,100,cs),
(257.333,100,o),
(235,77.667,o),
(235,51,cs)
);
},
{
closed = 1;
nodes = (
(407.052,427.261,o),
(468,501.281,o),
(468,589,cs),
(468,689.352,o),
(387.62,773,o),
(284,773,cs),
(182.667,773,o),
(100,690.333,o),
(100,589,c),
(170,589,l),
(170,650.326,o),
(221.322,702,o),
(284,702,cs),
(346.228,702,o),
(397,649.997,o),
(397,589,cs),
(397,527.365,o),
(345.635,476,o),
(284,476,cs),
(248,476,l),
(248,175,l),
(319,175,l),
(319,408,l),
(319,408,l),
(319,408,l)
);
}
);
width = 548;
}
);
note = question;
unicode = 63;
},
{
glyphname = at;
lastChange = "2025-10-08 12:05:32 +0000";
layers = (
{
layerId = m01;
shapes = (
{
closed = 1;
nodes = (
(346.052,259,o),
(306,302.344,o),
(306,351,cs),
(306,423,ls),
(306,474.995,o),
(347.321,516,o),
(399,516,cs),
(446.908,516,o),
(491,479.466,o),
(491,423,cs),
(491,351,ls),
(491,297.967,o),
(447.967,259,o),
(399,259,cs)
);
},
{
closed = 1;
nodes = (
(208.981,773,o),
(53,614.933,o),
(53,424,cs),
(53,350,ls),
(53,158.471,o),
(208.374,2,o),
(401,2,cs),
(507,2,ls),
(548.333,2,o),
(588.333,9.667,o),
(627,25,c),
(600,90,l),
(570,78,o),
(539,72,o),
(507,72,cs),
(401,72,ls),
(250.071,72,o),
(123,196.629,o),
(123,350,cs),
(123,424,ls),
(123,575.453,o),
(247.488,702,o),
(401,702,cs),
(556.299,702,o),
(680,574.95,o),
(680,424,cs),
(680,317,ls),
(680,285,o),
(653,259,o),
(621,259,cs),
(589,259,o),
(562,285,o),
(562,317,cs),
(562,423,ls),
(562,515.902,o),
(487.032,586,o),
(399,586,cs),
(308.477,586,o),
(235,514.205,o),
(235,423,cs),
(235,351,ls),
(235,263.448,o),
(306.515,188,o),
(399,188,cs),
(447,188,o),
(487.333,208.333,o),
(518,239,c),
(540.667,209.667,o),
(578.333,188,o),
(621,188,cs),
(694.799,188,o),
(751,247.145,o),
(751,317,cs),
(751,424,ls),
(751,612.415,o),
(595.556,773,o),
(401,773,cs)
);
}
);
width = 790;
}
);
note = at;
unicode = 64;
},
{
glyphname = bracketleft;
lastChange = "2025-10-08 12:05:32 +0000";
layers = (
{
layerId = m01;
shapes = (
{
closed = 1;
nodes = (
(185,-17,l),
(185,796,l),
(283,796,l),
(283,866,l),
(114,866,l),
(114,-88,l),
(283,-88,l),
(283,-17,l),
(283,-17,l),
(283,-17,l)
);
}
);
width = 342;
}
);
note = bracketleft;
unicode = 91;
},
{
glyphname = backslash;
lastChange = "2025-10-08 12:05:32 +0000";
layers = (
{
layerId = m01;
shapes = (
{
closed = 1;
nodes = (
(210,-46,l),
(281,-46,l),
(120,843,l),
(50,843,l),
(50,843,l),
(50,843,l)
);
}
);
width = 328;
}
);
note = backslash;
unicode = 92;
},
{
glyphname = bracketright;
lastChange = "2025-10-08 12:05:32 +0000";
layers = (
{
layerId = m01;
shapes = (
{
closed = 1;
nodes = (
(229,-88,l),
(229,866,l),
(61,866,l),
(61,796,l),
(159,796,l),
(159,-17,l),
(61,-17,l),
(61,-88,l),
(61,-88,l),
(61,-88,l)
);
}
);
width = 343;
}
);
note = bracketright;
unicode = 93;
},
{
glyphname = asciicircum;
lastChange = "2025-10-08 12:05:32 +0000";
layers = (
{
layerId = m01;
shapes = (
{
closed = 1;
nodes = (
(77,561,l),
(157,561,l),
(259,760,l),
(362,561,l),
(441,561,l),
(291,854,l),
(228,854,l),
(228,854,l),
(228,854,l)
);
}
);
width = 533;
}
);
note = asciicircum;
unicode = 94;
},
{
glyphname = underscore;
lastChange = "2025-10-08 12:05:32 +0000";
layers = (
{
layerId = m01;
shapes = (
{
closed = 1;
nodes = (
(67,1,l),
(693,1,l),
(693,71,l),
(67,71,l),
(67,71,l),
(67,71,l)
);
}
);
width = 760;
}
);
note = underscore;
unicode = 95;
},
{
glyphname = grave;
lastChange = "2025-10-08 12:05:32 +0000";
layers = (
{
layerId = m01;
shapes = (
{
closed = 1;
nodes = (
(178,679,l),
(90,882,l),
(38,860,l),
(115,648,l),
(115,648,l),
(115,648,l)
);
}
);
width = 223;
}
);
note = grave;
unicode = 96;
},
{
glyphname = braceleft;
lastChange = "2025-10-08 12:05:32 +0000";
layers = (
{
layerId = m01;
shapes = (
{
closed = 1;
nodes = (
(264.499,-23,o),
(212,34.573,o),
(212,101,cs),
(212,277,ls),
(212,319.667,o),
(193.667,357,o),
(163,385,c),
(193.667,411.667,o),
(212,448.333,o),
(212,491,cs),
(212,667,ls),
(212,734.945,o),
(264.115,792,o),
(336,792,c),
(336,863,l),
(228.036,863,o),
(140,774.964,o),
(140,667,cs),
(140,491,ls),
(140,451,o),
(110,420,o),
(70,420,c),
(70,349,l),
(110,349,o),
(141,317,o),
(141,277,cs),
(141,101,ls),
(141,-5.895,o),
(229.514,-94,o),
(336,-94,c),
(336,-23,l),
(336,-23,l),
(336,-23,l)
);
}
);
width = 411;
}
);
note = braceleft;
unicode = 123;
},
{
glyphname = bar;
lastChange = "2025-10-08 12:05:32 +0000";
layers = (
{
layerId = m01;
shapes = (
{
closed = 1;
nodes = (
(87,-95,l),
(157,-95,l),
(157,892,l),
(87,892,l),
(87,892,l),
(87,892,l)
);
}
);
width = 240;
}
);
note = bar;
unicode = 124;
},
{
glyphname = braceright;
lastChange = "2025-10-08 12:05:32 +0000";
layers = (
{
layerId = m01;
shapes = (
{
closed = 1;
nodes = (
(185.423,-94,o),
(273,-7.524,o),
(273,101,cs),
(273,277,ls),
(273,317,o),
(305,349,o),
(345,349,c),
(345,420,l),
(305,420,o),
(273,451,o),
(273,491,cs),
(273,667,ls),
(273,778.137,o),
(184.069,863,o),
(78,863,c),
(78,792,l),
(147.527,792,o),
(203,736.527,o),
(203,667,cs),
(203,491,ls),
(203,448.333,o),
(220.333,411.667,o),
(251,385,c),
(220.333,357,o),
(202,319.667,o),
(202,277,cs),
(202,101,ls),
(202,32.332,o),
(146.541,-23,o),
(78,-23,c),
(78,-94,l),
(78,-94,l),
(78,-94,l)
);
}
);
width = 415;
}
);
note = braceright;
unicode = 125;
},
{
glyphname = asciitilde;
lastChange = "2025-10-08 12:05:32 +0000";
layers = (
{
layerId = m01;
shapes = (
{
closed = 1;
nodes = (
(432.031,293,o),
(482,344.903,o),
(482,410,c),
(418,410,l),
(418,380.667,o),
(393.333,357,o),
(364,357,cs),
(355.333,357,o),
(347,359.333,o),
(339,364,cs),
(254,411,ls),
(236,421,o),
(217.333,426,o),
(198,426,cs),
(132.576,426,o),
(80,374.938,o),
(80,309,c),
(144,309,l),
(144,337,o),
(169,361,o),
(197,361,cs),
(206.333,361,o),
(215,359,o),
(223,355,cs),
(308,308,ls),
(326,298,o),
(344.667,293,o),
(364,293,cs)
);
}
);
width = 562;
}
);
note = asciitilde;
unicode = 126;
},
{
glyphname = periodcentered;
lastChange = "2025-10-08 12:05:32 +0000";
layers = (
{
layerId = m01;
shapes = (
{
closed = 1;
nodes = (
(118,299,o),
(140,321,o),
(140,349,cs),
(140,375.667,o),
(118,398,o),
(90,398,cs),
(63.333,398,o),
(41,375.667,o),
(41,349,cs),
(41,321,o),
(63.333,299,o),
(90,299,cs)
);
}
);
width = 183;
}
);
note = periodcentered;
unicode = 183;
},
{
glyphname = multiply;
lastChange = "2025-10-08 12:05:32 +0000";
layers = (
{
layerId = m01;
shapes = (
{
closed = 1;
nodes = (
(259,420,l),
(176,540,l),
(90,540,l),
(216,357,l),
(80,161,l),
(166,161,l),
(259,296,l),
(351,161,l),
(436,161,l),
(301,357,l),
(428,540,l),
(341,540,l),
(341,540,l),
(341,540,l)
);
}
);
width = 516;
}
);
note = multiply;
unicode = 215;
},
{
glyphname = divide;
lastChange = "2025-10-08 12:05:32 +0000";
layers = (
{
layerId = m01;
shapes = (
{
closed = 1;
nodes = (
(80,385,l),
(373,385,l),
(373,455,l),
(80,455,l),
(80,455,l),
(80,455,l)
);
},
{
closed = 1;
nodes = (
(191,603,l),
(191,509,l),
(262,509,l),
(262,603,l),
(262,603,l),
(262,603,l)
);
},
{
closed = 1;
nodes = (
(262,237,l),
(262,331,l),
(191,331,l),
(191,237,l),
(191,237,l),
(191,237,l)
);
}
);
width = 453;
}
);
note = divide;
unicode = 247;
},
{
glyphname = uni00AD;
lastChange = "2025-10-08 12:05:32 +0000";
layers = (
{
layerId = m01;
shapes = (
{
closed = 1;
nodes = (
(80,385,l),
(373,385,l),
(373,455,l),
(80,455,l),
(80,455,l),
(80,455,l)
);
}
);
width = 453;
}
);
note = uni00AD;
unicode = (173,8208);
},
{
glyphname = endash;
lastChange = "2025-10-08 12:05:32 +0000";
layers = (
{
layerId = m01;
shapes = (
{
closed = 1;
nodes = (
(80,385,l),
(410,385,l),
(410,455,l),
(80,455,l),
(80,455,l),
(80,455,l)
);
}
);
width = 490;
}
);
note = endash;
unicode = 8211;
},
{
glyphname = emdash;
lastChange = "2025-10-08 12:05:32 +0000";
layers = (
{
layerId = m01;
shapes = (
{
closed = 1;
nodes = (
(80,385,l),
(558,385,l),
(558,455,l),
(80,455,l),
(80,455,l),
(80,455,l)
);
}
);
width = 638;
}
);
note = emdash;
unicode = 8212;
},
{
glyphname = quoteleft;
lastChange = "2025-10-08 12:05:32 +0000";
layers = (
{
layerId = m01;
shapes = (
{
closed = 1;
nodes = (
(161,628,l),
(38,849,l),
(11,835,l),
(97,596,l),
(97,596,l),
(97,596,l)
);
}
);
width = 208;
}
);
note = quoteleft;
unicode = 8216;
},
{
glyphname = quoteright;
lastChange = "2025-10-08 12:05:32 +0000";
layers = (
{
layerId = m01;
shapes = (
{
closed = 1;
nodes = (
(38,596,l),
(161,818,l),
(97,849,l),
(11,610,l),
(11,610,l),
(11,610,l)
);
}
);
width = 220;
}
);
note = quoteright;
unicode = 8217;
},
{
glyphname = quotedblleft;
lastChange = "2025-10-08 12:05:32 +0000";
layers = (
{
layerId = m01;
shapes = (
{
closed = 1;
nodes = (
(286,628,l),
(163,849,l),
(136,835,l),
(222,596,l),
(222,596,l),
(222,596,l)
);
},
{
closed = 1;
nodes = (
(161,628,l),
(38,849,l),
(11,835,l),
(97,596,l),
(97,596,l),
(97,596,l)
);
}
);
width = 340;
}
);
note = quotedblleft;
unicode = 8220;
},
{
glyphname = quotedblright;
lastChange = "2025-10-08 12:05:32 +0000";
layers = (
{
layerId = m01;
shapes = (
{
closed = 1;
nodes = (
(163,596,l),
(286,818,l),
(222,849,l),
(136,610,l),
(136,610,l),
(136,610,l)
);
},
{
closed = 1;
nodes = (
(38,596,l),
(161,818,l),
(97,849,l),
(11,610,l),
(11,610,l),
(11,610,l)
);
}
);
width = 345;
}
);
note = quotedblright;
unicode = 8221;
},
{
glyphname = uni0985;
lastChange = "2025-10-08 12:46:29 +0000";
layers = (
{
hints = (
{
horizontal = 1;
place = (0,30);
type = Stem;
},
{
place = (0,30);
type = Stem;
}
);
layerId = m01;
shapes = (
{
closed = 1;
nodes = (
(686,460,o),
(576,670,o),
(412,641,cs),
(260,617,o),
(267,404,o),
(420,366,c),
(437,435,l),
(327,466,o),
(367,616,o),
(488,558,cs),
(559,523,o),
(595,426,o),
(595,347,cs),
(595,247,o),
(532,197,o),
(445,197,cs),
(285,197,o),
(166,436,o),
(132,630,c),
(62,618,l),
(100,397,o),
(240,126,o),
(446,126,cs),
(511,126,o),
(594,150,o),
(638,229,c),
(786,84,l),
(786,1,l),
(857,1,l),
(857,691,l),
(948,691,l),
(948,763,l),
(-9,763,l),
(-9,691,l),
(786,691,l),
(786,184,l),
(663,305,l)
);
}
);
width = 939;
}
);
note = uni0985;
unicode = 2437;
},
{
glyphname = uni0986;
lastChange = "2025-10-08 12:48:11 +0000";
layers = (
{
hints = (
{
horizontal = 1;
place = (0,30);
type = Stem;
},
{
place = (0,30);
type = Stem;
}
);
layerId = m01;
shapes = (
{
closed = 1;
nodes = (
(857,1,l),
(857,691,l),
(1018,691,l),
(1018,1,l),
(1090,1,l),
(1090,691,l),
(1180,691,l),
(1180,763,l),
(-9,763,l),
(-9,691,l),
(786,691,l),
(786,184,l),
(663,305,l),
(684,446,o),
(596,643,o),
(436,643,cs),
(269,643,o),
(253,408,o),
(420,366,c),
(437,435,l),
(327,465,o),
(366,616,o),
(488,558,cs),
(559,523,o),
(595,426,o),
(595,347,cs),
(595,243,o),
(526,197,o),
(445,197,cs),
(285,197,o),
(166,434,o),
(132,630,c),
(62,618,l),
(100,393,o),
(244,126,o),
(446,126,cs),
(511,126,o),
(594,150,o),
(638,229,c),
(786,84,l),
(786,1,l)
);
}
);
width = 1171;
}
);
note = uni0986;
unicode = 2438;
},
{
glyphname = uni0987;
lastChange = "2025-10-08 12:50:37 +0000";
layers = (
{
hints = (
{
horizontal = 1;
origin = (0,28);
target = (0,29);
type = Stem;
},
{
horizontal = 1;
origin = (0,27);
target = (0,0);
type = Stem;
},
{
horizontal = 1;
origin = (0,1);
target = (0,26);
type = Stem;
},
{
horizontal = 1;
origin = (0,25);
target = (0,2);
type = Stem;
},
{
horizontal = 1;
origin = (0,3);
target = (0,23);
type = Stem;
},
{
horizontal = 1;
origin = (0,24);
target = (0,4);
type = Stem;
},
{
horizontal = 1;
origin = (0,22);
target = (0,14);
type = Stem;
},
{
horizontal = 1;
origin = (0,13);
target = (0,12);
type = Stem;
},
{
horizontal = 1;
origin = (0,21);
target = (0,5);
type = Stem;
},
{
horizontal = 1;
origin = (0,15);
target = (0,16);
type = Stem;
},
{
horizontal = 1;
origin = (0,11);
target = (0,20);
type = Stem;
},
{
horizontal = 1;
origin = (0,6);
target = (0,19);
type = Stem;
},
{
horizontal = 1;
origin = (0,18);
target = (0,17);
type = Stem;
},
{
horizontal = 1;
origin = (0,10);
target = (0,7);
type = Stem;
},
{
horizontal = 1;
origin = (0,8);
target = (0,9);
type = Stem;
},
{
horizontal = 1;
origin = (1,13);
target = (1,14);
type = Stem;
},
{
horizontal = 1;
origin = (1,11);
target = (1,12);
type = Stem;
},
{
horizontal = 1;
origin = (1,15);
target = (1,16);
type = Stem;
},
{
horizontal = 1;
origin = (1,7);
target = (1,8);
type = Stem;
},
{
horizontal = 1;
origin = (1,6);
target = (1,9);
type = Stem;
},
{
horizontal = 1;
origin = (1,2);
target = (1,1);
type = Stem;
},
{
horizontal = 1;
origin = (1,3);
target = (1,10);
type = Stem;
},
{
horizontal = 1;
origin = (1,17);
target = (1,4);
type = Stem;
},
{
horizontal = 1;
origin = (1,0);
target = (1,5);
type = Stem;
},
{
origin = (1,6);
target = (1,12);
type = Stem;
},
{
origin = (1,13);
target = (1,5);
type = Stem;
},
{
origin = (0,25);
target = (0,24);
type = Stem;
},
{
origin = (1,3);
target = (1,7);
type = Stem;
},
{
origin = (0,10);
target = (0,11);
type = Stem;
},
{
origin = (0,12);
target = (1,4);
type = Stem;
},
{
origin = (0,16);
target = (1,2);
type = Stem;
},
{
origin = (0,13);
target = (0,17);
type = Stem;
},
{
origin = (0,26);
target = (1,1);
type = Stem;
},
{
origin = (0,9);
target = (0,14);
type = Stem;
},
{
origin = (1,8);
target = (0,15);
type = Stem;
},
{
origin = (0,23);
target = (0,2);
type = Stem;
},
{
origin = (0,18);
target = (0,8);
type = Stem;
},
{
origin = (1,9);
target = (0,1);
type = Stem;
},
{
origin = (0,27);
target = (0,3);
type = Stem;
},
{
origin = (0,19);
target = (1,0);
type = Stem;
},
{
origin = (0,7);
target = (0,0);
type = Stem;
},
{
origin = (0,20);
target = (0,21);
type = Stem;
},
{
origin = (0,22);
target = (1,11);
type = Stem;
},
{
origin = (1,10);
target = (0,28);
type = Stem;
},
{
origin = (0,6);
target = (0,4);
type = Stem;
},
{
origin = (0,5);
target = (1,16);
type = Stem;
},
{
origin = (0,29);
target = (1,17);
type = Stem;
},
{
origin = (1,14);
target = (1,15);
type = Stem;
}
);
layerId = m01;
shapes = (
{
closed = 1;
nodes = (
(417,73.667,o),
(346.333,131.333,o),
(229,198,c),
(360,218,o),
(493,285,o),
(493,422,cs),
(490.333,528.667,o),
(410.333,608.667,o),
(289,626,cs),
(191,640,o),
(79,574,o),
(79,483,cs),
(79,416,o),
(133,370,o),
(200,355,c),
(213,425,l),
(98,447,o),
(153,567,o),
(280,555,cs),
(361.333,545.667,o),
(419.667,492.333,o),
(421,419,cs),
(421,294,o),
(219,255,o),
(70,264,c),
(61,193,l),
(158.333,177,o),
(355,36,o),
(479,-68,c),
(525,-13,l)
);
},
{
closed = 1;
nodes = (
(394,999,o),
(183,932,cs),
(109,911,o),
(71,932,o),
(91,993,c),
(24,1015,l),
(-17,901,o),
(71,823,o),
(204,864,cs),
(340,907,o),
(474,950,o),
(450,763,c),
(-9,763,l),
(-9,691,l),
(583,691,l),
(583,763,l),
(522,763,l),
(549,991,o)
);
}
);
width = 574;
}
);
note = uni0987;
unicode = 2439;
},
{
glyphname = uni0988;
lastChange = "2025-10-08 12:53:20 +0000";
layers = (
{
layerId = m01;
shapes = (
{
closed = 1;
nodes = (
(398,436,l),
(398,528,o),
(351,611,o),
(259,626,cs),
(185,637,o),
(105,600,o),
(78,526,cs),
(58,470,o),
(76,376,o),
(178,356,c),
(193,425,l),
(141,437,o),
(137,478,o),
(145,502,cs),
(159,542,o),
(210,560,o),
(247,555,cs),
(309.667,545.667,o),
(326,486.333,o),
(326,433,cs),
(326,305,o),
(193,252,o),
(68,264,c),
(61,193,l),
(252,167,o),
(370,301,o),
(520,419,c),
(444,246,o),
(393,24,o),
(547,-85,c),
(589,-27,l),
(437,80,o),
(563,367,o),
(656,528,c),
(603,576,l),
(397,414,l)
);
},
{
closed = 1;
nodes = (
(488,997,o),
(263,933,cs),
(193,915,o),
(131,922,o),
(156,992,c),
(89,1016,l),
(41,881,o),
(163,831,o),
(282,864,cs),
(429,906,o),
(593,949,o),
(561,763,c),
(-9,763,l),
(-9,691,l),
(718,691,l),
(718,763,l),
(633,763,l),
(664,995,o)
);
}
);
width = 709;
}
);
note = uni0988;
unicode = 2440;
},
{
glyphname = uni0988.alt;
lastChange = "2025-10-08 12:55:53 +0000";
layers = (
{
hints = (
{
horizontal = 1;
place = (0,30);
type = Stem;
},
{
place = (0,30);
type = Stem;
}
);
layerId = m01;
shapes = (
{
closed = 1;
nodes = (
(419,654,o),
(134,692,o),
(73,526,cs),
(51,465,o),
(79,374,o),
(172,356,c),
(188,425,l),
(98,442,o),
(133,568,o),
(243,555,cs),
(342,543,o),
(351,386,o),
(252,314,cs),
(61,171,l),
(105,114,l),
(517,424,l),
(441,251,o),
(388,25,o),
(542,-85,c),
(584,-27,l),
(435,79,o),
(556,373,o),
(651,528,c),
(600,576,l),
(391,419,l)
);
},
{
closed = 1;
nodes = (
(485,997,o),
(259,933,cs),
(188,914,o),
(130,922,o),
(151,992,c),
(84,1016,l),
(39,891,o),
(147,828,o),
(278,864,cs),
(423,905,o),
(578,956,o),
(557,763,c),
(-9,763,l),
(-9,691,l),
(713,691,l),
(713,763,l),
(629,763,l),
(656,996,o)
);
}
);
width = 704;
}
);
note = uni0988.alt;
},
{
glyphname = uni0989;
lastChange = "2025-10-08 12:58:41 +0000";
layers = (
{
hints = (
{
horizontal = 1;
origin = (0,36);
target = (0,37);
type = Stem;
},
{
horizontal = 1;
origin = (0,38);
target = (0,30);
type = Stem;
},
{
horizontal = 1;
origin = (0,31);
target = (0,29);
type = Stem;
},
{
horizontal = 1;
origin = (0,25);
target = (0,24);
type = Stem;
},
{
horizontal = 1;
origin = (0,28);
target = (0,35);
type = Stem;
},
{
horizontal = 1;
origin = (0,23);
target = (0,26);
type = Stem;
},
{
horizontal = 1;
origin = (0,32);
target = (0,44);
type = Stem;
},
{
horizontal = 1;
origin = (0,43);
target = (0,39);
type = Stem;
},
{
horizontal = 1;
origin = (0,27);
target = (0,42);
type = Stem;
},
{
horizontal = 1;
origin = (0,41);
target = (0,40);
type = Stem;
},
{
horizontal = 1;
origin = (0,34);
target = (0,33);
type = Stem;
},
{
horizontal = 1;
origin = (0,21);
target = (0,22);
type = Stem;
},
{
horizontal = 1;
origin = (0,45);
target = (0,46);
type = Stem;
},
{
horizontal = 1;
origin = (0,0);
target = (0,19);
type = Stem;
},
{
horizontal = 1;
origin = (0,20);
target = (0,47);
type = Stem;
},
{
horizontal = 1;
origin = (0,48);
target = (0,49);
type = Stem;
},
{
horizontal = 1;
origin = (0,12);
target = (0,13);
type = Stem;
},
{
horizontal = 1;
origin = (0,14);
target = (0,18);
type = Stem;
},
{
horizontal = 1;
origin = (0,1);
target = (0,15);
type = Stem;
},
{
horizontal = 1;
origin = (0,16);
target = (0,17);
type = Stem;
},
{
horizontal = 1;
origin = (0,11);
target = (0,5);
type = Stem;
},
{
horizontal = 1;
origin = (0,6);
target = (0,7);
type = Stem;
},
{
horizontal = 1;
origin = (0,8);
target = (0,2);
type = Stem;
},
{
horizontal = 1;
origin = (0,3);
target = (0,4);
type = Stem;
},
{
horizontal = 1;
origin = (0,9);
target = (0,10);
type = Stem;
},
{
origin = (0,20);
target = (0,21);
type = Stem;
},
{
origin = (0,11);
target = (0,10);
type = Stem;
},
{
origin = (0,34);
target = (0,12);
type = Stem;
},
{
origin = (0,35);
target = (0,8);
type = Stem;
},
{
origin = (0,9);
target = (0,7);
type = Stem;
},
{
origin = (0,33);
target = (0,32);
type = Stem;
},
{
origin = (0,13);
target = (0,6);
type = Stem;
},
{
origin = (0,36);
target = (0,31);
type = Stem;
},
{
origin = (0,5);
target = (0,14);
type = Stem;
},
{
origin = (0,22);
target = (0,23);
type = Stem;
},
{
origin = (0,4);
target = (0,15);
type = Stem;
},
{
origin = (0,24);
target = (0,44);
type = Stem;
},
{
origin = (0,45);
target = (0,30);
type = Stem;
},
{
origin = (0,37);
target = (0,25);
type = Stem;
},
{
origin = (0,3);
target = (0,16);
type = Stem;
},
{
origin = (0,43);
target = (0,26);
type = Stem;
},
{
origin = (0,41);
target = (0,42);
type = Stem;
},
{
origin = (0,17);
target = (0,19);
type = Stem;
},
{
origin = (0,18);
target = (0,27);
type = Stem;
},
{
origin = (0,40);
target = (0,29);
type = Stem;
},
{
origin = (0,2);
target = (0,28);
type = Stem;
},
{
origin = (0,0);
target = (0,1);
type = Stem;
},
{
origin = (0,38);
target = (0,39);
type = Stem;
},
{
origin = (0,46);
target = (0,47);
type = Stem;
},
{
origin = (0,48);
target = (0,49);
type = Stem;
}
);
layerId = m01;
shapes = (
{
closed = 1;
nodes = (
(634,763,l),
(654,879,o),
(607,969,o),
(458,969,cs),
(337,969,o),
(242,924,o),
(172,924,cs),
(120,924,o),
(91,940,o),
(110,990,c),
(44,1016,l),
(7,916,o),
(71,852,o),
(171,852,cs),
(250,852,o),
(347,897,o),
(459,897,cs),
(556,897,o),
(574,859,o),
(562,763,c),
(-9,763,l),
(-9,691,l),
(318,691,l),
(318,374,l),
(347,339,l),
(444,319,o),
(527,378,o),
(582,473,c),
(629,347,o),
(605,136,o),
(410,131,cs),
(225,131,o),
(141,398,o),
(132,610,c),
(61,607,l),
(73,350,o),
(181,59,o),
(410,59,cs),
(700,59,o),
(730,444,o),
(603,574,c),
(544,560,l),
(544,559,o),
(493,411,o),
(390,407,c),
(390,691,l),
(745,691,l),
(745,763,l),
(745,763,l),
(745,763,l)
);
}
);
width = 736;
}
);
note = uni0989;
unicode = 2441;
},
{
glyphname = uni098A;
lastChange = "2025-10-08 13:00:02 +0000";
layers = (
{
hints = (
{
horizontal = 1;
place = (0,30);
type = Stem;
},
{
place = (0,30);
type = Stem;
}
);
layerId = m01;
shapes = (
{
closed = 1;
nodes = (
(693,763,l),
(709,898,o),
(654,969,o),
(518,969,cs),
(396,969,o),
(303,924,o),
(231,924,cs),
(180,924,o),
(149,942,o),
(170,990,c),
(103,1016,l),
(68,926,o),
(121,852,o),
(231,852,cs),
(307,852,o),
(407,897,o),
(518,897,cs),
(614,897,o),
(635,858,o),
(621,763,c),
(-9,763,l),
(-9,691,l),
(377,691,l),
(377,374,l),
(406,339,l),
(503,319,o),
(588,380,o),
(641,473,c),
(690,344,o),
(665,134,o),
(469,131,cs),
(268,131,o),
(230,411,o),
(241,606,c),
(170,611,l),
(162,509,o),
(169,381,o),
(207,276,c),
(155.667,351.333,o),
(119.667,444.333,o),
(99,555,c),
(53,546,l),
(96,312,o),
(272,59,o),
(468,59,cs),
(762,59,o),
(789,447,o),
(662,574,c),
(603,560,l),
(603,560,o),
(550,411,o),
(449,407,c),
(449,691,l),
(804,691,l),
(804,763,l)
);
}
);
width = 795;
}
);
note = uni098A;
unicode = 2442;
},
{
glyphname = uni098B;
lastChange = "2025-10-08 12:05:32 +0000";
layers = (
{
layerId = m01;
shapes = (
{
closed = 1;
nodes = (
(169,449,l),
(434,544,l),
(434,183,l),
(434,183,l),
(434,183,l)
);
},
{
closed = 1;
nodes = (
(660,763,l),
(660,255,l),
(506,410,l),
(506,763,l),
(434,763,l),
(434,615,l),
(263,758,l),
(228,764,l),
(53,700,l),
(77,633,l),
(233,690,l),
(351,590,l),
(92,497,l),
(78,438,l),
(434,82,l),
(434,1,l),
(506,1,l),
(506,309,l),
(660,154,l),
(660,72,l),
(732,72,l),
(732,181,l),
(733,182,l),
(732,184,l),
(732,691,l),
(821,691,l),
(821,763,l),
(821,763,l),
(821,763,l)
);
}
);
width = 812;
}
);
note = uni098B;
unicode = 2443;
},
{
glyphname = uni098B.alt;
lastChange = "2025-10-08 12:58:27 +0000";
layers = (
{
layerId = m01;
shapes = (
{
closed = 1;
nodes = (
(211,449,l),
(477,544,l),
(477,183,l)
);
},
{
closed = 1;
nodes = (
(702,763,l),
(702,255,l),
(548,410,l),
(548,763,l),
(476,763,l),
(476,615,l),
(313,769,l),
(254,738,l),
(254,694,o),
(224,677,o),
(191,677,cs),
(149,677,o),
(126,713,o),
(124,765,c),
(53,762,l),
(56,667,o),
(114,606,o),
(191,606,cs),
(244,606,o),
(288,634,o),
(311,673,c),
(397,591,l),
(134,497,l),
(121,438,l),
(476,82,l),
(476,1,l),
(548,1,l),
(548,309,l),
(702,154,l),
(702,72,l),
(774,72,l),
(774,181,l),
(775,182,l),
(774,184,l),
(774,691,l),
(864,691,l),
(864,763,l)
);
}
);
width = 855;
}
);
note = uni098B.alt;
},
{
glyphname = uni098C;
lastChange = "2025-10-08 13:01:30 +0000";
layers = (
{
layerId = m01;
shapes = (
{
closed = 1;
nodes = (
(460,240,o),
(386,337,o),
(256,337,cs),
(138.667,334.333,o),
(71,259.667,o),
(63,181,cs),
(53,103,o),
(108,29,o),
(204,1,c),
(224,70,l),
(184,81,o),
(134,103,o),
(134,173,cs),
(134,218.333,o),
(176.333,266.333,o),
(255,265,cs),
(385,265,o),
(453,121,o),
(394,41,c),
(424,21,l),
(455,3,l),
(495,68,o),
(614,205,o),
(597,318,cs),
(572,510,o),
(389,518,o),
(225,605,cs),
(172,631,o),
(178,661,o),
(213,708,c),
(156,750,l),
(63,622,o),
(131,559,o),
(295,498,cs),
(391,462,o),
(443,441,o),
(487,394,cs),
(550,327,o),
(533,247,o),
(479,167,c)
);
}
);
width = 661;
}
);
note = uni098C;
unicode = 2444;
},
{
glyphname = uni098F;
lastChange = "2025-10-08 13:02:18 +0000";
layers = (
{
layerId = m01;
shapes = (
{
closed = 1;
nodes = (
(648,1,l),
(648,643,ls),
(648,808,o),
(471,800,o),
(344,694,cs),
(276,639,o),
(245,554,o),
(279,483,cs),
(315,408,o),
(401,399,o),
(467,413,c),
(451,482,l),
(414,474,o),
(363,474,o),
(343,515,cs),
(325,555,o),
(349,607,o),
(389,640,cs),
(451,690,o),
(577,747,o),
(577,643,cs),
(577,160,l),
(515.667,194.667,o),
(456,200,o),
(348,204,cs),
(270,207,o),
(197,202,o),
(154,278,cs),
(120,341,o),
(131,422,o),
(161,487,c),
(95,516,l),
(57,430,o),
(46,326,o),
(92,244,cs),
(150,140,o),
(237,135,o),
(346,132,cs),
(461,129,o),
(528,122,o),
(577,71,c),
(577,1,l)
);
}
);
width = 727;
}
);
note = uni098F;
unicode = 2447;
},
{
glyphname = uni0990;
lastChange = "2025-10-08 13:04:13 +0000";
layers = (
{
hints = (
{
horizontal = 1;
origin = (0,27);
target = (0,28);
type = Stem;
},
{
horizontal = 1;
origin = (0,26);
target = (0,24);
type = Stem;
},
{
horizontal = 1;
origin = (0,23);
target = (0,25);
type = Stem;
},
{
horizontal = 1;
origin = (0,13);
target = (0,22);
type = Stem;
},
{
horizontal = 1;
origin = (0,15);
target = (0,16);
type = Stem;
},
{
horizontal = 1;
origin = (0,14);
target = (0,17);
type = Stem;
},
{
horizontal = 1;
origin = (0,21);
target = (0,18);
type = Stem;
},
{
horizontal = 1;
origin = (0,4);
target = (0,5);
type = Stem;
},
{
horizontal = 1;
origin = (0,29);
target = (0,7);
type = Stem;
},
{
horizontal = 1;
origin = (0,30);
target = (0,6);
type = Stem;
},
{
horizontal = 1;
origin = (0,19);
target = (0,48);
type = Stem;
},
{
horizontal = 1;
origin = (0,20);
target = (0,47);
type = Stem;
},
{
horizontal = 1;
origin = (0,31);
target = (0,8);
type = Stem;
},
{
horizontal = 1;
origin = (0,3);
target = (0,46);
type = Stem;
},
{
horizontal = 1;
origin = (0,9);
target = (0,12);
type = Stem;
},
{
horizontal = 1;
origin = (0,49);
target = (0,32);
type = Stem;
},
{
horizontal = 1;
origin = (0,45);
target = (0,10);
type = Stem;
},
{
horizontal = 1;
origin = (0,2);
target = (0,11);
type = Stem;
},
{
horizontal = 1;
origin = (0,44);
target = (0,1);
type = Stem;
},
{
horizontal = 1;
origin = (0,0);
target = (0,43);
type = Stem;
},
{
horizontal = 1;
origin = (0,33);
target = (0,42);
type = Stem;
},
{
horizontal = 1;
origin = (0,34);
target = (0,41);
type = Stem;
},
{
horizontal = 1;
origin = (0,35);
target = (0,36);
type = Stem;
},
{
horizontal = 1;
origin = (0,40);
target = (0,37);
type = Stem;
},
{
horizontal = 1;
origin = (0,38);
target = (0,39);
type = Stem;
},
{
origin = (0,21);
target = (0,22);
type = Stem;
},
{
origin = (0,20);
target = (0,18);
type = Stem;
},
{
origin = (0,17);
target = (0,19);
type = Stem;
},
{
origin = (0,3);
target = (0,23);
type = Stem;
},
{
origin = (0,16);
target = (0,4);
type = Stem;
},
{
origin = (0,8);
target = (0,24);
type = Stem;
},
{
origin = (0,40);
target = (0,7);
type = Stem;
},
{
origin = (0,15);
target = (0,2);
type = Stem;
},
{
origin = (0,41);
target = (0,9);
type = Stem;
},
{
origin = (0,36);
target = (0,39);
type = Stem;
},
{
origin = (0,37);
target = (0,6);
type = Stem;
},
{
origin = (0,10);
target = (0,5);
type = Stem;
},
{
origin = (0,1);
target = (0,35);
type = Stem;
},
{
origin = (0,14);
target = (0,38);
type = Stem;
},
{
origin = (0,25);
target = (0,42);
type = Stem;
},
{
origin = (0,11);
target = (0,12);
type = Stem;
},
{
origin = (0,13);
target = (0,26);
type = Stem;
},
{
origin = (0,27);
target = (0,34);
type = Stem;
},
{
origin = (0,43);
target = (0,0);
type = Stem;
},
{
origin = (0,28);
target = (0,29);
type = Stem;
},
{
origin = (0,48);
target = (0,49);
type = Stem;
},
{
origin = (0,47);
target = (0,44);
type = Stem;
},
{
origin = (0,45);
target = (0,46);
type = Stem;
},
{
origin = (0,30);
target = (0,31);
type = Stem;
},
{
origin = (0,32);
target = (0,33);
type = Stem;
}
);
layerId = m01;
shapes = (
{
closed = 1;
nodes = (
(648,808,o),
(471,800,o),
(344,694,cs),
(192,568,o),
(272,372,o),
(467,413,c),
(451,482,l),
(328,455,o),
(299,566,o),
(389,640,cs),
(451,690,o),
(577,747,o),
(577,643,cs),
(577,160,l),
(481,214,o),
(329,200,o),
(255,210,cs),
(129,227,o),
(107,371,o),
(161,487,c),
(95,516,l),
(20,348,o),
(76,163,o),
(244,139,cs),
(310,129,o),
(502,148,o),
(577,71,c),
(577,1,l),
(648,1,l),
(648,438,l),
(753.333,467.333,o),
(814,552,o),
(814,672,cs),
(814,861,o),
(639,902,o),
(480.5,1004,cs),
(431,1036,o),
(441,1066,o),
(483,1108,c),
(431,1157,l),
(319,1038,o),
(387,970,o),
(537,890,cs),
(641,836,o),
(742,783,o),
(742,672,cs),
(742,591.333,o),
(710.667,538.333,o),
(648,513,c),
(648,643,l)
);
}
);
width = 867;
}
);
note = uni0990;
unicode = 2448;
},
{
glyphname = uni0993;
lastChange = "2025-10-08 13:08:26 +0000";
layers = (
{
hints = (
{
horizontal = 1;
place = (0,30);
type = Stem;
},
{
place = (0,30);
type = Stem;
}
);
layerId = m01;
shapes = (
{
closed = 1;
nodes = (
(649,140,o),
(453,140,cs),
(285.667,140,o),
(178.667,294,o),
(132,602,c),
(62,591,l),
(116.667,239,o),
(243.667,68,o),
(453,68,cs),
(651,68,o),
(750,297,o),
(599,420,c),
(722,506,o),
(657,732,o),
(446,737,cs),
(262,737,o),
(198,535,o),
(343,406,c),
(391,459,l),
(296,544,o),
(326,665,o),
(443,665,cs),
(631,661,o),
(632,434,o),
(469,459,c),
(463,387,l),
(666,364,o)
);
}
);
width = 725;
}
);
note = uni0993;
unicode = 2451;
},
{
glyphname = uni0994;
lastChange = "2025-10-08 13:20:56 +0000";
layers = (
{
hints = (
{
horizontal = 1;
origin = (0,47);
target = (0,48);
type = Stem;
},
{
horizontal = 1;
origin = (0,49);
target = (0,40);
type = Stem;
},
{
horizontal = 1;
origin = (0,41);
target = (0,42);
type = Stem;
},
{
horizontal = 1;
origin = (0,46);
target = (0,43);
type = Stem;
},
{
horizontal = 1;
origin = (0,50);
target = (0,39);
type = Stem;
},
{
horizontal = 1;
origin = (0,38);
target = (0,27);
type = Stem;
},
{
horizontal = 1;
origin = (0,51);
target = (0,0);
type = Stem;
},
{
horizontal = 1;
origin = (0,1);
target = (0,2);
type = Stem;
},
{
horizontal = 1;
origin = (0,3);
target = (0,33);
type = Stem;
},
{
horizontal = 1;
origin = (0,34);
target = (0,35);
type = Stem;
},
{
horizontal = 1;
origin = (0,36);
target = (0,28);
type = Stem;
},
{
horizontal = 1;
origin = (0,37);
target = (0,21);
type = Stem;
},
{
horizontal = 1;
origin = (0,26);
target = (0,4);
type = Stem;
},
{
horizontal = 1;
origin = (0,29);
target = (0,20);
type = Stem;
},
{
horizontal = 1;
origin = (0,45);
target = (0,44);
type = Stem;
},
{
horizontal = 1;
origin = (0,19);
target = (0,22);
type = Stem;
},
{
horizontal = 1;
origin = (0,32);
target = (0,30);
type = Stem;
},
{
horizontal = 1;
origin = (0,31);
target = (0,5);
type = Stem;
},
{
horizontal = 1;
origin = (0,18);
target = (0,23);
type = Stem;
},
{
horizontal = 1;
origin = (0,24);
target = (0,25);
type = Stem;
},
{
horizontal = 1;
origin = (0,17);
target = (0,6);
type = Stem;
},
{
horizontal = 1;
origin = (0,16);
target = (0,7);
type = Stem;
},
{
horizontal = 1;
origin = (0,15);
target = (0,8);
type = Stem;
},
{
horizontal = 1;
origin = (0,14);
target = (0,9);
type = Stem;
},
{
horizontal = 1;
origin = (0,10);
target = (0,13);
type = Stem;
},
{
horizontal = 1;
origin = (0,11);
target = (0,12);
type = Stem;
},
{
origin = (0,45);
target = (0,46);
type = Stem;
},
{
origin = (0,44);
target = (0,43);
type = Stem;
},
{
origin = (0,26);
target = (0,47);
type = Stem;
},
{
origin = (0,25);
target = (0,42);
type = Stem;
},
{
origin = (0,29);
target = (0,13);
type = Stem;
},
{
origin = (0,30);
target = (0,27);
type = Stem;
},
{
origin = (0,14);
target = (0,10);
type = Stem;
},
{
origin = (0,28);
target = (0,12);
type = Stem;
},
{
origin = (0,31);
target = (0,24);
type = Stem;
},
{
origin = (0,41);
target = (0,48);
type = Stem;
},
{
origin = (0,38);
target = (0,11);
type = Stem;
},
{
origin = (0,37);
target = (0,36);
type = Stem;
},
{
origin = (0,9);
target = (0,35);
type = Stem;
},
{
origin = (0,34);
target = (0,15);
type = Stem;
},
{
origin = (0,8);
target = (0,51);
type = Stem;
},
{
origin = (0,23);
target = (0,0);
type = Stem;
},
{
origin = (0,1);
target = (0,2);
type = Stem;
},
{
origin = (0,33);
target = (0,16);
type = Stem;
},
{
origin = (0,32);
target = (0,40);
type = Stem;
},
{
origin = (0,49);
target = (0,22);
type = Stem;
},
{
origin = (0,21);
target = (0,39);
type = Stem;
},
{
origin = (0,7);
target = (0,20);
type = Stem;
},
{
origin = (0,17);
target = (0,18);
type = Stem;
},
{
origin = (0,19);
target = (0,3);
type = Stem;
},
{
origin = (0,50);
target = (0,4);
type = Stem;
},
{
origin = (0,5);
target = (0,6);
type = Stem;
}
);
layerId = m01;
shapes = (
{
closed = 1;
nodes = (
(607,427,o),
(612,431,o),
(615,434,c),
(731,458,o),
(798,545,o),
(798,672,cs),
(798,821,o),
(677,889,o),
(554,953,cs),
(477,994,o),
(383,1024,o),
(467,1108,c),
(415,1157,l),
(305,1041,o),
(371,970,o),
(521,890,cs),
(625,836,o),
(726,783,o),
(726,672,cs),
(726,605,o),
(704,557,o),
(660,528,c),
(659,638,o),
(603,733,o),
(441,737,cs),
(266,737,o),
(198,536,o),
(343,406,c),
(391,459,l),
(292,547,o),
(333,665,o),
(439,665,cs),
(645,663,o),
(618,458,o),
(483,458,cs),
(478.333,458,o),
(473.667,458.333,o),
(469,459,c),
(463,387,l),
(666,364,o),
(649,140,o),
(453,140,cs),
(285.667,140,o),
(178.667,294,o),
(132,602,c),
(62,591,l),
(116.667,239,o),
(243.667,68,o),
(453,68,cs),
(651,68,o),
(750,297,o),
(599,420,c)
);
}
);
width = 851;
}
);
note = uni0994;
unicode = 2452;
},
{
glyphname = uni0995;
lastChange = "2025-10-08 13:08:10 +0000";
layers = (
{
layerId = m01;
shapes = (
{
closed = 1;
nodes = (
(61,438,l),
(417,82,l),
(417,1,l),
(489,1,l),
(489,559,l),
(591.667,553.667,o),
(662.667,483,o),
(664,411,cs),
(664,342,o),
(630,316,o),
(581,313,c),
(586,241,l),
(663,248,o),
(741,301,o),
(735,416,cs),
(727,525.333,o),
(631.667,625.667,o),
(489,631,c),
(489,691,l),
(806,691,l),
(806,763,l),
(-9,763,l),
(-9,691,l),
(417,691,l),
(417,620,l),
(75,497,l),
(75,497,l),
(75,497,l)
);
},
{
closed = 1;
nodes = (
(417,544,l),
(417,183,l),
(152,449,l),
(152,449,l),
(152,449,l)
);
}
);
width = 797;
}
);
note = uni0995;
unicode = 2453;
},
{
glyphname = uni0996;
lastChange = "2025-10-08 13:22:27 +0000";
layers = (
{
hints = (
{
horizontal = 1;
origin = (0,16);
target = (0,17);
type = Stem;
},
{
horizontal = 1;
origin = (0,15);
target = (0,22);
type = Stem;
},
{
horizontal = 1;
origin = (0,14);
target = (0,23);
type = Stem;
},
{
horizontal = 1;
origin = (0,12);
target = (0,0);
type = Stem;
},
{
horizontal = 1;
origin = (0,13);
target = (0,9);
type = Stem;
},
{
horizontal = 1;
origin = (0,11);
target = (0,8);
type = Stem;
},
{
horizontal = 1;
origin = (0,5);
target = (0,7);
type = Stem;
},
{
horizontal = 1;
origin = (0,1);
target = (0,4);
type = Stem;
},
{
horizontal = 1;
origin = (0,6);
target = (0,10);
type = Stem;
},
{
horizontal = 1;
origin = (0,18);
target = (0,19);
type = Stem;
},
{
horizontal = 1;
origin = (0,3);
target = (0,2);
type = Stem;
},
{
horizontal = 1;
origin = (0,20);
target = (0,21);
type = Stem;
},
{
origin = (0,7);
target = (0,6);
type = Stem;
},
{
origin = (0,8);
target = (0,14);
type = Stem;
},
{
origin = (0,13);
target = (0,5);
type = Stem;
},
{
origin = (0,12);
target = (0,23);
type = Stem;
},
{
origin = (0,9);
target = (0,4);
type = Stem;
},
{
origin = (0,3);
target = (0,10);
type = Stem;
},
{
origin = (0,2);
target = (0,0);
type = Stem;
},
{
origin = (0,11);
target = (0,1);
type = Stem;
},
{
origin = (0,15);
target = (0,16);
type = Stem;
},
{
origin = (0,21);
target = (0,22);
type = Stem;
},
{
origin = (0,17);
target = (0,18);
type = Stem;
},
{
origin = (0,19);
target = (0,20);
type = Stem;
}
);
layerId = m01;
shapes = (
{
closed = 1;
nodes = (
(410,394,o),
(500,592,o),
(367,762,c),
(307,758,l),
(263,642,o),
(191,574,o),
(97,648,c),
(53,591,l),
(107,548,o),
(249,500,o),
(342,670,c),
(420,501,o),
(233,365,o),
(146,398,c),
(115,334,l),
(516,77,l),
(516,1,l),
(588,1,l),
(588,691,l),
(676,691,l),
(676,763,l),
(516,763,l),
(516,162,l),
(246,335,l)
);
}
);
width = 667;
}
);
note = uni0996;
unicode = 2454;
},
{
glyphname = uni0996.alt;
lastChange = "2025-10-08 13:24:38 +0000";
layers = (
{
hints = (
{
place = (0,30);
type = Stem;
},
{
horizontal = 1;
place = (0,30);
type = Stem;
}
);
layerId = m01;
shapes = (
{
closed = 1;
nodes = (
(600,691,l),
(688,691,l),
(688,763,l),
(528,763,l),
(528,161,l),
(258,334,l),
(409,389,o),
(521,579,o),
(379,761,c),
(323,761,l),
(211,618,l),
(105,696,l),
(63,638,l),
(197,540,l),
(247,546,l),
(348,678,l),
(442,504,o),
(243,364,o),
(158,396,c),
(127,333,l),
(528,76,l),
(528,1,l),
(600,1,l),
(600,1,l),
(600,1,l)
);
}
);
width = 679;
}
);
note = uni0996.alt;
},
{
glyphname = uni0997;
lastChange = "2025-10-08 13:25:54 +0000";
layers = (
{
hints = (
{
horizontal = 1;
place = (0,30);
type = Stem;
},
{
place = (0,30);
type = Stem;
}
);
layerId = m01;
shapes = (
{
closed = 1;
nodes = (
(217,894,o),
(9,672,o),
(72,473,c),
(121,451,l),
(363,559,o),
(322,419,o),
(165,262,c),
(216,212,l),
(456,458,o),
(374,629,o),
(134,534,c),
(134,675,o),
(237,764,o),
(387,609,cs),
(487,506,l),
(487,1,l),
(558,1,l),
(558,691,l),
(647,691,l),
(647,763,l),
(487,763,l),
(487,609,l),
(439,659,l)
);
}
);
width = 638;
}
);
note = uni0997;
unicode = 2455;
},
{
glyphname = uni0997.alt;
lastChange = "2025-10-08 13:29:13 +0000";
layers = (
{
hints = (
{
horizontal = 1;
place = (0,30);
type = Stem;
},
{
place = (0,30);
type = Stem;
}
);
layerId = m01;
shapes = (
{
closed = 1;
nodes = (
(324,755,o),
(231,791,o),
(150,735,cs),
(96.667,699,o),
(62,627.333,o),
(62,562,cs),
(62,493,o),
(102,445,o),
(166,445,cs),
(208,445,o),
(285,483,o),
(285,438,cs),
(285,391,o),
(232,310,o),
(152,266,c),
(186,203,l),
(365,301,o),
(423,531,o),
(259,531,cs),
(195,531,o),
(134,483,o),
(134,563,cs),
(134,603,o),
(156.333,652,o),
(191,676,cs),
(240,710,o),
(299,677,o),
(347,627,cs),
(466,503,l),
(466,1,l),
(537,1,l),
(537,691,l),
(625,691,l),
(625,763,l),
(466,763,l),
(466,607,l),
(398,676,l)
);
}
);
width = 616;
}
);
note = uni0997.alt;
},
{
glyphname = uni0998;
lastChange = "2025-10-08 13:29:38 +0000";
layers = (
{
layerId = m01;
shapes = (
{
closed = 1;
nodes = (
(175,353,l),
(382,493,l),
(342,552,l),
(256,502,o),
(71,582,o),
(162,691,c),
(456,691,l),
(456,163,l)
);
},
{
closed = 1;
nodes = (
(527,691,l),
(615,691,l),
(615,763,l),
(-9,763,l),
(-9,691,l),
(79,691,l),
(32,585,o),
(115,497,o),
(224,472,c),
(91,382,l),
(91,323,l),
(456,77,l),
(456,1,l),
(527,1,l)
);
}
);
width = 606;
}
);
note = uni0998;
unicode = 2456;
},
{
glyphname = uni0999;
lastChange = "2025-10-08 13:31:14 +0000";
layers = (
{
layerId = m01;
shapes = (
{
closed = 1;
nodes = (
(394,690,o),
(531,733,o),
(561,662,cs),
(599,578,o),
(453,553,o),
(361,580,c)
);
},
{
closed = 1;
nodes = (
(686,10,o),
(723,323,o),
(611,435,c),
(555,429,l),
(469,283,o),
(328,278,o),
(348,510,c),
(508,466,o),
(688,543,o),
(627,691,cs),
(583,808,o),
(361,805,o),
(294,606,c),
(227.333,640,o),
(169.333,691.333,o),
(120,760,c),
(62,718,l),
(122,634,o),
(194.333,572.333,o),
(279,533,c),
(247,254,o),
(432,169,o),
(584,347,c),
(627,241,o),
(589,81,o),
(445,81,cs),
(246,81,o),
(146,304,o),
(139,511,c),
(68,510,l),
(76,262,o),
(207,10,o),
(445,10,cs)
);
}
);
width = 733;
}
);
note = uni0999;
unicode = 2457;
},
{
glyphname = uni099A;
lastChange = "2025-10-08 13:32:52 +0000";
layers = (
{
hints = (
{
horizontal = 1;
origin = (0,4);
target = (1,1);
type = Stem;
},
{
horizontal = 1;
origin = (1,2);
target = (1,3);
type = Stem;
},
{
horizontal = 1;
origin = (1,0);
target = (0,3);
type = Stem;
},
{
horizontal = 1;
origin = (0,5);
target = (1,18);
type = Stem;
},
{
horizontal = 1;
origin = (1,4);
target = (1,17);
type = Stem;
},
{
horizontal = 1;
origin = (0,2);
target = (0,1);
type = Stem;
},
{
horizontal = 1;
origin = (1,5);
target = (0,0);
type = Stem;
},
{
horizontal = 1;
origin = (1,6);
target = (1,16);
type = Stem;
},
{
horizontal = 1;
origin = (1,7);
target = (0,6);
type = Stem;
},
{
horizontal = 1;
origin = (1,8);
target = (1,9);
type = Stem;
},
{
horizontal = 1;
origin = (1,10);
target = (1,11);
type = Stem;
},
{
horizontal = 1;
origin = (1,14);
target = (1,15);
type = Stem;
},
{
horizontal = 1;
origin = (1,12);
target = (1,13);
type = Stem;
},
{
origin = (1,13);
target = (1,14);
type = Stem;
},
{
origin = (1,15);
target = (1,16);
type = Stem;
},
{
origin = (1,0);
target = (1,17);
type = Stem;
},
{
origin = (1,18);
target = (1,1);
type = Stem;
},
{
origin = (0,4);
target = (0,5);
type = Stem;
},
{
origin = (0,6);
target = (1,9);
type = Stem;
},
{
origin = (1,10);
target = (1,8);
type = Stem;
},
{
origin = (1,2);
target = (0,0);
type = Stem;
},
{
origin = (0,1);
target = (1,7);
type = Stem;
},
{
origin = (1,3);
target = (0,3);
type = Stem;
},
{
origin = (0,2);
target = (1,6);
type = Stem;
},
{
origin = (1,4);
target = (1,5);
type = Stem;
},
{
origin = (1,11);
target = (1,12);
type = Stem;
}
);
layerId = m01;
shapes = (
{
closed = 1;
nodes = (
(227,454,o),
(347.667,417.333,o),
(445,400,c),
(425,150,o),
(151,12,o),
(151,175,cs),
(151,518,l)
);
},
{
closed = 1;
nodes = (
(80,90,o),
(131,34,o),
(211,34,cs),
(390,34,o),
(517,251,o),
(517,430,c),
(486,466,l),
(372,479,o),
(159,539,o),
(151,653,cs),
(151,691,l),
(587,691,l),
(587,763,l),
(-9,763,l),
(-9,691,l),
(79,691,l),
(79.667,471,o),
(80,299,o),
(80,175,cs)
);
}
);
width = 578;
}
);
note = uni099A;
unicode = 2458;
},
{
glyphname = uni099B;
lastChange = "2025-10-08 13:34:31 +0000";
layers = (
{
hints = (
{
horizontal = 1;
origin = (1,15);
target = (1,16);
type = Stem;
},
{
horizontal = 1;
origin = (1,14);
target = (1,17);
type = Stem;
},
{
horizontal = 1;
origin = (1,18);
target = (1,13);
type = Stem;
},
{
horizontal = 1;
origin = (1,12);
target = (1,19);
type = Stem;
},
{
horizontal = 1;
origin = (1,20);
target = (1,10);
type = Stem;
},
{
horizontal = 1;
origin = (1,11);
target = (1,9);
type = Stem;
},
{
horizontal = 1;
origin = (1,21);
target = (0,4);
type = Stem;
},
{
horizontal = 1;
origin = (1,1);
target = (1,2);
type = Stem;
},
{
horizontal = 1;
origin = (1,3);
target = (1,0);
type = Stem;
},
{
horizontal = 1;
origin = (1,8);
target = (1,22);
type = Stem;
},
{
horizontal = 1;
origin = (1,4);
target = (0,3);
type = Stem;
},
{
horizontal = 1;
origin = (0,5);
target = (1,36);
type = Stem;
},
{
horizontal = 1;
origin = (1,7);
target = (1,23);
type = Stem;
},
{
horizontal = 1;
origin = (1,6);
target = (1,35);
type = Stem;
},
{
horizontal = 1;
origin = (1,5);
target = (0,2);
type = Stem;
},
{
horizontal = 1;
origin = (0,1);
target = (0,0);
type = Stem;
},
{
horizontal = 1;
origin = (0,6);
target = (1,34);
type = Stem;
},
{
horizontal = 1;
origin = (1,24);
target = (1,25);
type = Stem;
},
{
horizontal = 1;
origin = (1,26);
target = (1,27);
type = Stem;
},
{
horizontal = 1;
origin = (1,28);
target = (1,29);
type = Stem;
},
{
horizontal = 1;
origin = (1,32);
target = (1,33);
type = Stem;
},
{
horizontal = 1;
origin = (1,30);
target = (1,31);
type = Stem;
},
{
origin = (1,31);
target = (1,32);
type = Stem;
},
{
origin = (1,33);
target = (1,34);
type = Stem;
},
{
origin = (1,0);
target = (1,35);
type = Stem;
},
{
origin = (1,36);
target = (1,12);
type = Stem;
},
{
origin = (1,11);
target = (1,1);
type = Stem;
},
{
origin = (1,28);
target = (0,4);
type = Stem;
},
{
origin = (0,5);
target = (0,6);
type = Stem;
},
{
origin = (1,27);
target = (1,2);
type = Stem;
},
{
origin = (0,0);
target = (1,13);
type = Stem;
},
{
origin = (1,10);
target = (0,1);
type = Stem;
},
{
origin = (1,26);
target = (1,3);
type = Stem;
},
{
origin = (1,19);
target = (0,3);
type = Stem;
},
{
origin = (0,2);
target = (1,25);
type = Stem;
},
{
origin = (1,4);
target = (1,5);
type = Stem;
},
{
origin = (1,18);
target = (1,14);
type = Stem;
},
{
origin = (1,20);
target = (1,6);
type = Stem;
},
{
origin = (1,17);
target = (1,7);
type = Stem;
},
{
origin = (1,8);
target = (1,9);
type = Stem;
},
{
origin = (1,24);
target = (1,15);
type = Stem;
},
{
origin = (1,21);
target = (1,22);
type = Stem;
},
{
origin = (1,23);
target = (1,16);
type = Stem;
},
{
origin = (1,29);
target = (1,30);
type = Stem;
}
);
layerId = m01;
shapes = (
{
closed = 1;
nodes = (
(176.667,565.667,o),
(232.333,550.333,o),
(287,541,c),
(269,438,o),
(134,329,o),
(134,471,cs),
(134,591,l)
);
},
{
closed = 1;
nodes = (
(62,398,o),
(93,333,o),
(166,333,cs),
(246,333,o),
(340.667,423.333,o),
(358,534,c),
(395,524,o),
(441,492,o),
(442,419,cs),
(442,290,o),
(223,254,o),
(90,263,c),
(82,192,l),
(178,176,o),
(376.333,35,o),
(499,-69,c),
(545,-14,l),
(437,72.667,o),
(366,130.333,o),
(250,197,c),
(381,217,o),
(513,292,o),
(513,419,cs),
(513,513,o),
(455,609,o),
(316,609,cs),
(237.333,609,o),
(137,655,o),
(133,691,c),
(582,691,l),
(582,763,l),
(-9,763,l),
(-9,691,l),
(61,691,l),
(61.667,599.667,o),
(62,526.333,o),
(62,471,cs)
);
}
);
width = 573;
}
);
note = uni099B;
unicode = 2459;
},
{
glyphname = uni099C;
lastChange = "2025-10-08 13:35:32 +0000";
layers = (
{
hints = (
{
horizontal = 1;
origin = (0,26);
target = (0,27);
type = Stem;
},
{
horizontal = 1;
origin = (0,12);
target = (0,11);
type = Stem;
},
{
horizontal = 1;
origin = (0,25);
target = (0,10);
type = Stem;
},
{
horizontal = 1;
origin = (0,28);
target = (0,2);
type = Stem;
},
{
horizontal = 1;
origin = (0,3);
target = (0,4);
type = Stem;
},
{
horizontal = 1;
origin = (0,13);
target = (0,9);
type = Stem;
},
{
horizontal = 1;
origin = (0,14);
target = (0,15);
type = Stem;
},
{
horizontal = 1;
origin = (0,24);
target = (0,8);
type = Stem;
},
{
horizontal = 1;
origin = (0,16);
target = (0,29);
type = Stem;
},
{
horizontal = 1;
origin = (0,0);
target = (0,1);
type = Stem;
},
{
horizontal = 1;
origin = (0,41);
target = (0,5);
type = Stem;
},
{
horizontal = 1;
origin = (0,17);
target = (0,40);
type = Stem;
},
{
horizontal = 1;
origin = (0,18);
target = (0,19);
type = Stem;
},
{
horizontal = 1;
origin = (0,23);
target = (0,30);
type = Stem;
},
{
horizontal = 1;
origin = (0,22);
target = (0,31);
type = Stem;
},
{
horizontal = 1;
origin = (0,32);
target = (0,21);
type = Stem;
},
{
horizontal = 1;
origin = (0,7);
target = (0,6);
type = Stem;
},
{
horizontal = 1;
origin = (0,33);
target = (0,20);
type = Stem;
},
{
horizontal = 1;
origin = (0,34);
target = (0,35);
type = Stem;
},
{
horizontal = 1;
origin = (0,38);
target = (0,39);
type = Stem;
},
{
horizontal = 1;
origin = (0,36);
target = (0,37);
type = Stem;
},
{
origin = (0,37);
target = (0,38);
type = Stem;
},
{
origin = (0,7);
target = (0,8);
type = Stem;
},
{
origin = (0,6);
target = (0,5);
type = Stem;
},
{
origin = (0,9);
target = (0,4);
type = Stem;
},
{
origin = (0,10);
target = (0,40);
type = Stem;
},
{
origin = (0,41);
target = (0,11);
type = Stem;
},
{
origin = (0,19);
target = (0,0);
type = Stem;
},
{
origin = (0,3);
target = (0,39);
type = Stem;
},
{
origin = (0,20);
target = (0,18);
type = Stem;
},
{
origin = (0,12);
target = (0,21);
type = Stem;
},
{
origin = (0,17);
target = (0,34);
type = Stem;
},
{
origin = (0,1);
target = (0,33);
type = Stem;
},
{
origin = (0,13);
target = (0,16);
type = Stem;
},
{
origin = (0,2);
target = (0,22);
type = Stem;
},
{
origin = (0,15);
target = (0,14);
type = Stem;
},
{
origin = (0,32);
target = (0,25);
type = Stem;
},
{
origin = (0,24);
target = (0,28);
type = Stem;
},
{
origin = (0,26);
target = (0,23);
type = Stem;
},
{
origin = (0,29);
target = (0,27);
type = Stem;
},
{
origin = (0,31);
target = (0,30);
type = Stem;
},
{
origin = (0,35);
target = (0,36);
type = Stem;
}
);
layerId = m01;
shapes = (
{
closed = 1;
nodes = (
(366,405,ls),
(513,405,o),
(541,179,o),
(394,179,cs),
(200,179,o),
(139,421,o),
(133,609,c),
(61,607,l),
(70,374,o),
(141,224,o),
(238,157,cs),
(342,87,o),
(473,83,o),
(537,188,cs),
(573,245,o),
(572,315,o),
(539,374,cs),
(508,432,o),
(455,476,o),
(345,476,c),
(454,641,l),
(490,566.333,o),
(568.333,504.333,o),
(715,487,c),
(638,329,o),
(617,147,o),
(702,-6,c),
(765,28,l),
(681,178,o),
(725,381,o),
(803,498,c),
(775,554,l),
(601.667,559.333,o),
(530.333,624.333,o),
(509,691,c),
(874,691,l),
(874,763,l),
(-9,763,l),
(-9,691,l),
(402,691,l),
(248,460,l),
(278,405,l)
);
}
);
width = 865;
}
);
note = uni099C;
unicode = 2460;
},
{
glyphname = uni099C.alt;
lastChange = "2025-10-08 13:36:41 +0000";
layers = (
{
hints = (
{
horizontal = 1;
place = (0,30);
type = Stem;
},
{
place = (0,30);
type = Stem;
}
);
layerId = m01;
shapes = (
{
closed = 1;
nodes = (
(240,360,o),
(375,293,o),
(483,384,c),
(519,303,o),
(495,182,o),
(394,180,cs),
(393,180,ls),
(307.667,180,o),
(227.833,233.667,o),
(176.5,363,cs),
(150.833,427.667,o),
(136.333,510.333,o),
(133,611,c),
(61,608,l),
(71,364,o),
(162,108,o),
(395,108,cs),
(580,111,o),
(614,352,o),
(515,466,c),
(459,462,l),
(417,396,o),
(311,393,o),
(311,502,cs),
(312,559,o),
(355,626,o),
(442,674,c),
(467.333,590,o),
(544.333,508,o),
(715,488,c),
(638,330,o),
(617,149,o),
(702,-5,c),
(765,30,l),
(681,180,o),
(725,383,o),
(803,500,c),
(775,555,l),
(604.333,561.667,o),
(531.333,624.333,o),
(510,691,c),
(874,691,l),
(874,763,l),
(-9,763,l),
(-9,691,l),
(341,691,l),
(275,637,o),
(241,575,o),
(240,504,cs)
);
}
);
width = 866;
}
);
note = uni099C.alt;
},
{
glyphname = uni099D;
lastChange = "2025-10-08 13:37:01 +0000";
layers = (
{
hints = (
{
horizontal = 1;
place = (0,30);
type = Stem;
},
{
place = (0,30);
type = Stem;
}
);
layerId = m01;
shapes = (
{
closed = 1;
nodes = (
(488,763,l),
(-9,763,l),
(-9,691,l),
(417,691,l),
(417,620,l),
(74,498,l),
(61,439,l),
(417,83,l),
(417,1,l),
(488,1,l),
(488,310,l),
(643,155,l),
(643,72,l),
(714,72,l),
(714,691,l),
(803,691,l),
(803,763,l),
(642,763,l),
(642,691,l),
(643,691,l),
(643,256,l),
(488,411,l)
);
},
{
closed = 1;
nodes = (
(417,184,l),
(151,449,l),
(417,545,l)
);
}
);
width = 794;
}
);
note = uni099D;
unicode = 2461;
},
{
glyphname = uni099E;
lastChange = "2025-10-08 13:39:10 +0000";
layers = (
{
hints = (
{
horizontal = 1;
place = (0,30);
type = Stem;
},
{
place = (0,30);
type = Stem;
}
);
layerId = m01;
shapes = (
{
closed = 1;
nodes = (
(599,712,o),
(555,763,o),
(489,763,cs),
(355,763,o),
(189,603,o),
(262,470,cs),
(300,398,o),
(379,392,o),
(433,406,c),
(417,475,l),
(376,465,o),
(316,473,o),
(316,540,cs),
(316,626,o),
(434,692,o),
(489,692,cs),
(519,692,o),
(527,665,o),
(527,633,cs),
(532,164,l),
(442,215,o),
(330,199,o),
(243,212,cs),
(127,230,o),
(113,384,o),
(157,492,c),
(91,518,l),
(28,362,o),
(66,169,o),
(232,142,cs),
(308,130,o),
(462,153,o),
(533,71,c),
(534,1,l),
(605,2,l),
(603,186,l),
(652.333,128.667,o),
(712.667,98,o),
(766,98,cs),
(906,98,o),
(947,294,o),
(816,392,c),
(957,481,o),
(898,680,o),
(760,680,cs),
(697,680,o),
(643,644,o),
(599,586,c),
(599,634,l)
);
},
{
closed = 1;
nodes = (
(630,512,o),
(689,609,o),
(760,609,cs),
(850,609,o),
(867,430,o),
(684,430,c),
(684,359,l),
(859,359,o),
(851,169,o),
(765,169,cs),
(711.667,169,o),
(639.333,230.333,o),
(602,329,c),
(601,445,l)
);
}
);
width = 959;
}
);
note = uni099E;
unicode = 2462;
},
{
glyphname = uni099F;
lastChange = "2025-10-08 13:42:40 +0000";
layers = (
{
hints = (
{
horizontal = 1;
origin = (0,3);
target = (0,4);
type = Stem;
},
{
horizontal = 1;
origin = (0,5);
target = (0,2);
type = Stem;
},
{
horizontal = 1;
origin = (0,16);
target = (0,17);
type = Stem;
},
{
horizontal = 1;
origin = (0,18);
target = (0,19);
type = Stem;
},
{
horizontal = 1;
origin = (0,1);
target = (0,20);
type = Stem;
},
{
horizontal = 1;
origin = (0,6);
target = (0,15);
type = Stem;
},
{
horizontal = 1;
origin = (0,7);
target = (0,14);
type = Stem;
},
{
horizontal = 1;
origin = (0,11);
target = (0,10);
type = Stem;
},
{
horizontal = 1;
origin = (0,13);
target = (0,12);
type = Stem;
},
{
horizontal = 1;
origin = (0,9);
target = (0,8);
type = Stem;
},
{
horizontal = 1;
origin = (0,0);
target = (0,21);
type = Stem;
},
{
horizontal = 1;
origin = (0,22);
target = (0,45);
type = Stem;
},
{
horizontal = 1;
origin = (0,23);
target = (0,24);
type = Stem;
},
{
horizontal = 1;
origin = (0,43);
target = (0,44);
type = Stem;
},
{
horizontal = 1;
origin = (0,37);
target = (0,38);
type = Stem;
},
{
horizontal = 1;
origin = (0,36);
target = (0,42);
type = Stem;
},
{
horizontal = 1;
origin = (0,39);
target = (0,40);
type = Stem;
},
{
horizontal = 1;
origin = (0,41);
target = (0,25);
type = Stem;
},
{
horizontal = 1;
origin = (0,29);
target = (0,30);
type = Stem;
},
{
horizontal = 1;
origin = (0,31);
target = (0,35);
type = Stem;
},
{
horizontal = 1;
origin = (0,32);
target = (0,26);
type = Stem;
},
{
horizontal = 1;
origin = (0,27);
target = (0,28);
type = Stem;
},
{
horizontal = 1;
origin = (0,33);
target = (0,34);
type = Stem;
},
{
origin = (0,35);
target = (0,34);
type = Stem;
},
{
origin = (0,44);
target = (0,45);
type = Stem;
},
{
origin = (0,36);
target = (0,32);
type = Stem;
},
{
origin = (0,33);
target = (0,31);
type = Stem;
},
{
origin = (0,0);
target = (0,1);
type = Stem;
},
{
origin = (0,2);
target = (0,37);
type = Stem;
},
{
origin = (0,30);
target = (0,3);
type = Stem;
},
{
origin = (0,19);
target = (0,20);
type = Stem;
},
{
origin = (0,21);
target = (0,18);
type = Stem;
},
{
origin = (0,38);
target = (0,29);
type = Stem;
},
{
origin = (0,17);
target = (0,4);
type = Stem;
},
{
origin = (0,28);
target = (0,10);
type = Stem;
},
{
origin = (0,39);
target = (0,16);
type = Stem;
},
{
origin = (0,9);
target = (0,5);
type = Stem;
},
{
origin = (0,11);
target = (0,12);
type = Stem;
},
{
origin = (0,40);
target = (0,27);
type = Stem;
},
{
origin = (0,41);
target = (0,43);
type = Stem;
},
{
origin = (0,13);
target = (0,14);
type = Stem;
},
{
origin = (0,15);
target = (0,42);
type = Stem;
},
{
origin = (0,26);
target = (0,24);
type = Stem;
},
{
origin = (0,6);
target = (0,7);
type = Stem;
},
{
origin = (0,8);
target = (0,25);
type = Stem;
},
{
origin = (0,22);
target = (0,23);
type = Stem;
}
);
layerId = m01;
shapes = (
{
closed = 1;
nodes = (
(80,691,l),
(80,182,ls),
(80,96,o),
(117,37,o),
(189,37,cs),
(314,37,o),
(504,226,o),
(504,379,cs),
(504,547,o),
(288,604,o),
(245,422,c),
(315,408,l),
(332,495,o),
(433,472,o),
(433,381,cs),
(433,265,o),
(271,108,o),
(188,108,cs),
(155,108,o),
(151,149,o),
(151,182,cs),
(151,691,l),
(575,691,l),
(575,763,l),
(503,763,l),
(511,892,o),
(465,959,o),
(344,959,cs),
(232,959,o),
(162,915,o),
(93,915,cs),
(47,915,o),
(27,937,o),
(44,982,c),
(-23,1005,l),
(-57,915,o),
(-6,845,o),
(92,843,cs),
(157,843,o),
(247,888,o),
(343,888,cs),
(427,888,o),
(438,847,o),
(430,763,c),
(-8,763,l),
(-8,691,l)
);
}
);
width = 566;
}
);
note = uni099F;
unicode = 2463;
},
{
glyphname = uni09A0;
lastChange = "2025-10-08 13:44:10 +0000";
layers = (
{
hints = (
{
horizontal = 1;
origin = (1,14);
target = (1,15);
type = Stem;
},
{
horizontal = 1;
origin = (1,16);
target = (0,4);
type = Stem;
},
{
horizontal = 1;
origin = (0,5);
target = (0,6);
type = Stem;
},
{
horizontal = 1;
origin = (0,7);
target = (1,13);
type = Stem;
},
{
horizontal = 1;
origin = (0,0);
target = (1,10);
type = Stem;
},
{
horizontal = 1;
origin = (0,8);
target = (1,12);
type = Stem;
},
{
horizontal = 1;
origin = (0,3);
target = (1,11);
type = Stem;
},
{
horizontal = 1;
origin = (0,1);
target = (1,17);
type = Stem;
},
{
horizontal = 1;
origin = (1,9);
target = (0,2);
type = Stem;
},
{
horizontal = 1;
origin = (1,7);
target = (1,8);
type = Stem;
},
{
horizontal = 1;
origin = (1,18);
target = (1,19);
type = Stem;
},
{
horizontal = 1;
origin = (1,5);
target = (1,6);
type = Stem;
},
{
horizontal = 1;
origin = (1,20);
target = (1,21);
type = Stem;
},
{
horizontal = 1;
origin = (1,22);
target = (1,4);
type = Stem;
},
{
horizontal = 1;
origin = (1,1);
target = (1,0);
type = Stem;
},
{
horizontal = 1;
origin = (1,2);
target = (1,3);
type = Stem;
},
{
origin = (1,6);
target = (1,7);
type = Stem;
},
{
origin = (1,13);
target = (1,12);
type = Stem;
},
{
origin = (1,4);
target = (1,11);
type = Stem;
},
{
origin = (0,8);
target = (1,14);
type = Stem;
},
{
origin = (0,7);
target = (1,22);
type = Stem;
},
{
origin = (1,5);
target = (0,6);
type = Stem;
},
{
origin = (1,3);
target = (1,0);
type = Stem;
},
{
origin = (1,8);
target = (0,0);
type = Stem;
},
{
origin = (1,21);
target = (1,10);
type = Stem;
},
{
origin = (1,15);
target = (0,5);
type = Stem;
},
{
origin = (1,9);
target = (1,1);
type = Stem;
},
{
origin = (1,18);
target = (0,2);
type = Stem;
},
{
origin = (1,2);
target = (0,1);
type = Stem;
},
{
origin = (0,3);
target = (0,4);
type = Stem;
},
{
origin = (1,17);
target = (1,16);
type = Stem;
},
{
origin = (1,19);
target = (1,20);
type = Stem;
}
);
layerId = m01;
shapes = (
{
closed = 1;
nodes = (
(270,274,o),
(360,412,o),
(348,572,c),
(460,398,o),
(472,110,o),
(290,110,cs),
(194,110,o),
(138,228,o),
(133,323,c)
);
},
{
closed = 1;
nodes = (
(225,1018,o),
(327,979,c),
(354,1045,l),
(197,1108,o),
(70,940,o),
(182,763,c),
(-9,763,l),
(-9,691,l),
(238,691,l),
(320,565,o),
(282,310,o),
(119,409,c),
(64,385,l),
(44,230,o),
(134,39,o),
(288,39,cs),
(571,39,o),
(555,470,o),
(345,691,c),
(572,691,l),
(572,763,l),
(270,763,l),
(155,898,o)
);
}
);
width = 563;
}
);
note = uni09A0;
unicode = 2464;
},
{
glyphname = uni09A1;
lastChange = "2025-10-08 13:45:06 +0000";
layers = (
{
hints = (
{
horizontal = 1;
origin = (0,11);
target = up;
type = BottomGhost;
},
{
place = (0,30);
type = Stem;
}
);
layerId = m01;
shapes = (
{
closed = 1;
nodes = (
(446,320,o),
(529,378,o),
(582,474,c),
(636,335,o),
(594,135,o),
(411,131,cs),
(226,131,o),
(142,395,o),
(133,611,c),
(61,607,l),
(73,352,o),
(180,59,o),
(411,59,cs),
(722,66,o),
(718,459,o),
(603,574,c),
(545,561,l),
(533,511,o),
(470,412,o),
(391,408,c),
(391,691,l),
(745,691,l),
(745,763,l),
(-9,763,l),
(-9,691,l),
(318,691,l),
(318,374,l),
(347,340,l),
(347,340,l),
(347,340,l)
);
}
);
width = 736;
}
);
note = uni09A1;
unicode = 2465;
},
{
glyphname = uni09A2;
lastChange = "2025-10-08 13:46:17 +0000";
layers = (
{
hints = (
{
horizontal = 1;
place = (0,30);
type = Stem;
},
{
place = (0,30);
type = Stem;
}
);
layerId = m01;
shapes = (
{
closed = 1;
nodes = (
(106,99,o),
(141,37,o),
(215,37,cs),
(351,37,o),
(531,237,o),
(531,379,cs),
(531,539,o),
(315,610,o),
(273,422,c),
(342,408,l),
(359,498,o),
(460,471,o),
(460,380,cs),
(460,265,o),
(295,108,o),
(215,108,cs),
(181,108,o),
(178,150,o),
(178,182,cs),
(178,691,l),
(601,691,l),
(601,763,l),
(-9,763,l),
(-9,691,l),
(106,691,l),
(106,182,l)
);
}
);
width = 592;
}
);
note = uni09A2;
unicode = 2466;
},
{
glyphname = uni09A3;
lastChange = "2025-10-08 13:46:56 +0000";
layers = (
{
hints = (
{
horizontal = 1;
origin = (0,1);
target = down;
type = TopGhost;
},
{
place = (0,30);
type = Stem;
}
);
layerId = m01;
shapes = (
{
closed = 1;
nodes = (
(325,748.667,o),
(275.333,775,o),
(226,775,cs),
(135,775,o),
(79,692,o),
(65,602,cs),
(40,425,o),
(173,319,o),
(303,395,c),
(265,456,l),
(190,406,o),
(119,480,o),
(136,593,cs),
(144,643,o),
(174,704,o),
(225,704,cs),
(254.333,704,o),
(287,685,o),
(323,647,cs),
(442,525,l),
(442,1,l),
(514,1,l),
(514,691,l),
(602,691,l),
(602,763,l),
(442,763,l),
(442,627,l),
(375,696,l)
);
}
);
width = 593;
}
);
note = uni09A3;
unicode = 2467;
},
{
glyphname = uni09A4;
lastChange = "2025-10-08 13:48:37 +0000";
layers = (
{
hints = (
{
horizontal = 1;
place = (0,30);
type = Stem;
},
{
place = (0,30);
type = Stem;
}
);
layerId = m01;
shapes = (
{
closed = 1;
nodes = (
(-9,763,l),
(-9,691,l),
(746,691,l),
(746,763,l)
);
},
{
closed = 1;
nodes = (
(602,62,o),
(675,193,o),
(675,345,cs),
(675,516,o),
(576,642,o),
(457,642,cs),
(342,640,o),
(296,543,o),
(296,472,cs),
(296,395,o),
(340,326,o),
(425,305,c),
(442,375,l),
(387,386,o),
(368,429,o),
(368,472,cs),
(368,520,o),
(399,569,o),
(456,569,cs),
(546,569,o),
(604,463,o),
(604,344,cs),
(604,235,o),
(560,132,o),
(435,131,cs),
(244,131,o),
(141,393,o),
(133,611,c),
(61,607,l),
(71,351,o),
(201,59,o),
(434,59,cs)
);
}
);
width = 737;
}
);
note = uni09A4;
unicode = 2468;
},
{
glyphname = uni09A5;
lastChange = "2025-10-08 13:50:24 +0000";
layers = (
{
hints = (
{
horizontal = 1;
place = (0,30);
type = Stem;
},
{
place = (0,30);
type = Stem;
}
);
layerId = m01;
shapes = (
{
closed = 1;
nodes = (
(304.333,397.667,o),
(380,491.667,o),
(380,589,cs),
(380,675,o),
(325,763,o),
(205,763,cs),
(204,763,ls),
(81,763,o),
(1,621,o),
(94,510,c),
(149,555,l),
(100,616,o),
(134,692,o),
(204,692,cs),
(270,692,o),
(308,655,o),
(308,591,cs),
(308,505.667,o),
(218,421.333,o),
(102,400,c),
(88,335,l),
(463,79,l),
(463,1,l),
(535,1,l),
(535,691,l),
(623,691,l),
(623,763,l),
(463,763,l),
(463,165,l),
(191,351,l)
);
}
);
width = 614;
}
);
note = uni09A5;
unicode = 2469;
},
{
glyphname = uni09A6;
lastChange = "2025-10-08 13:54:43 +0000";
layers = (
{
hints = (
{
place = (0,30);
type = Stem;
},
{
horizontal = 1;
place = (0,30);
type = Stem;
}
);
layerId = m01;
shapes = (
{
closed = 1;
nodes = (
(421,467,l),
(394,316,o),
(384,126,o),
(448,-14,c),
(513,15,l),
(444,166,o),
(474,392,o),
(515,555,c),
(457,591,l),
(153,328,l),
(153,691,l),
(585,691,l),
(585,763,l),
(-9,763,l),
(-9,691,l),
(82,691,l),
(82,250,l),
(141,224,l)
);
}
);
width = 576;
}
);
note = uni09A6;
unicode = 2470;
},
{
glyphname = uni09A7;
lastChange = "2025-10-08 13:55:32 +0000";
layers = (
{
hints = (
{
horizontal = 1;
place = (0,30);
type = Stem;
},
{
place = (0,30);
type = Stem;
}
);
layerId = m01;
shapes = (
{
closed = 1;
nodes = (
(224.667,539.667,o),
(134,593,o),
(134,645,cs),
(134,720,o),
(213,735,o),
(272,655,c),
(330,697,l),
(228,844,o),
(45,774,o),
(63,636,cs),
(72.333,564,o),
(138.333,508.667,o),
(217,470,c),
(79,396,l),
(74,336,l),
(426,79,l),
(426,1,l),
(497,1,l),
(497,691,l),
(586,691,l),
(586,763,l),
(426,763,l),
(426,582,l),
(298,513,l)
);
},
{
closed = 1;
nodes = (
(426,501,l),
(426,168,l),
(162,360,l)
);
}
);
width = 577;
}
);
note = uni09A7;
unicode = 2471;
},
{
glyphname = uni09A8;
lastChange = "2025-10-08 13:56:30 +0000";
layers = (
{
hints = (
{
horizontal = 1;
place = (0,30);
type = Stem;
},
{
place = (0,30);
type = Stem;
}
);
layerId = m01;
shapes = (
{
closed = 1;
nodes = (
(213,685,o),
(61,551,o),
(61,376,cs),
(61,233,o),
(181,140,o),
(302,213,c),
(264,274,l),
(198,230,o),
(132,286,o),
(132,375,cs),
(132,480,o),
(201,592,o),
(323,465,cs),
(442,343,l),
(442,1,l),
(513,1,l),
(513,691,l),
(601,691,l),
(601,763,l),
(-18,763,l),
(-18,691,l),
(442,691,l),
(442,445,l),
(374,515,l)
);
}
);
width = 591;
}
);
note = uni09A8;
unicode = 2472;
},
{
glyphname = uni09A8.alt;
lastChange = "2025-10-08 13:57:20 +0000";
layers = (
{
hints = (
{
horizontal = 1;
place = (0,30);
type = Stem;
},
{
place = (0,30);
type = Stem;
}
);
layerId = m01;
shapes = (
{
closed = 1;
nodes = (
(318,685,o),
(61,601,o),
(61,392,cs),
(61,263,o),
(169,160,o),
(290,219,c),
(263,285,l),
(193,251,o),
(136,309,o),
(136,389,cs),
(136,598,o),
(393,532,o),
(467,228,c),
(467,1,l),
(538,1,l),
(538,691,l),
(626,691,l),
(626,763,l),
(-18,763,l),
(-18,691,l),
(467,691,l),
(467,405,l)
);
}
);
width = 617;
}
);
note = uni09A8.alt;
},
{
glyphname = uni09AA;
lastChange = "2025-10-08 13:58:13 +0000";
layers = (
{
hints = (
{
horizontal = 1;
place = (0,30);
type = Stem;
},
{
place = (0,30);
type = Stem;
}
);
layerId = m01;
shapes = (
{
closed = 1;
nodes = (
(266.333,550,o),
(225.667,588.333,o),
(167,595,c),
(199,637,o),
(255,694,o),
(307,694,cs),
(351,694,o),
(386,653,o),
(414,624,c),
(317,486,l)
);
},
{
closed = 1;
nodes = (
(599,1,l),
(599,691,l),
(687,691,l),
(687,763,l),
(528,763,l),
(528,610,l),
(456,685,o),
(396,765,o),
(308,765,cs),
(202,765,o),
(112,658,o),
(62,564,c),
(107,515,l),
(181,543,o),
(227,488,o),
(275,425,c),
(195,312,l),
(253,271,l),
(465,572,l),
(528,508,l),
(528,1,l)
);
}
);
width = 678;
}
);
note = uni09AA;
unicode = 2474;
},
{
glyphname = uni09AA.alt;
lastChange = "2025-10-08 13:59:07 +0000";
layers = (
{
hints = (
{
horizontal = 1;
origin = (1,1);
target = down;
type = TopGhost;
},
{
place = (0,30);
type = Stem;
}
);
layerId = m01;
shapes = (
{
closed = 1;
nodes = (
(234,686,o),
(309,735,o),
(386,654,cs),
(426,613,l),
(315,469,l),
(304,537,o),
(258,596,o),
(168,598,c)
);
},
{
closed = 1;
nodes = (
(307,841,o),
(149,734,o),
(62,566,c),
(105,516,l),
(254,564,o),
(284,433,o),
(196,314,c),
(252,271,l),
(476,562,l),
(528,510,l),
(528,1,l),
(599,1,l),
(599,691,l),
(687,691,l),
(687,763,l),
(528,763,l),
(528,612,l),
(438,704,l)
);
}
);
width = 678;
}
);
note = uni09AA.alt;
},
{
glyphname = uni09AB;
lastChange = "2025-10-08 14:01:39 +0000";
layers = (
{
hints = (
{
horizontal = 1;
place = (0,30);
type = Stem;
},
{
place = (0,30);
type = Stem;
}
);
layerId = m01;
shapes = (
{
closed = 1;
nodes = (
(67,336,l),
(418,79,l),
(418,1,l),
(490,1,l),
(490,559,l),
(681,550,o),
(726,325,o),
(581,313,c),
(587,242,l),
(826,261,o),
(773,631,o),
(477,631,cs),
(468,631,o),
(435,630,o),
(418,630,c),
(418,168,l),
(149,364,l),
(305,474,l),
(311,527,l),
(160,691,l),
(799,691,l),
(799,763,l),
(-9,763,l),
(-9,691,l),
(63,691,l),
(231,509,l),
(67,394,l)
);
}
);
width = 790;
}
);
note = uni09AB;
unicode = 2475;
},
{
glyphname = uni09AC;
lastChange = "2025-10-08 14:01:48 +0000";
layers = (
{
hints = (
{
horizontal = 1;
origin = (1,0);
target = up;
type = BottomGhost;
},
{
place = (0,30);
type = Stem;
}
);
layerId = m01;
shapes = (
{
closed = 1;
nodes = (
(61,439,l),
(417,83,l),
(417,1,l),
(489,1,l),
(489,691,l),
(577,691,l),
(577,763,l),
(-9,763,l),
(-9,691,l),
(417,691,l),
(417,620,l),
(75,497,l)
);
},
{
closed = 1;
nodes = (
(417,184,l),
(152,449,l),
(417,544,l)
);
}
);
width = 568;
}
);
note = uni09AC;
unicode = 2476;
},
{
glyphname = uni09AD;
lastChange = "2025-10-08 14:03:13 +0000";
layers = (
{
hints = (
{
place = (0,30);
type = Stem;
},
{
horizontal = 1;
origin = (0,0);
target = down;
type = TopGhost;
}
);
layerId = m01;
shapes = (
{
closed = 1;
nodes = (
(-9,763,l),
(-9,691,l),
(769,691,l),
(769,763,l)
);
},
{
closed = 1;
nodes = (
(727,60,o),
(752,444,o),
(631,574,c),
(570,558,l),
(570,530.688,o),
(506.421,394,o),
(420,394,cs),
(316,396,o),
(310,577,o),
(458,542,c),
(484,609,l),
(372,646,o),
(261,573,o),
(275,452,cs),
(285,375,o),
(342,322,o),
(421,322,cs),
(510.333,322,o),
(571,386,o),
(611,466,c),
(652,340,o),
(628,146,o),
(461,132,c),
(245,132,o),
(143,398,o),
(133,613,c),
(61,609,l),
(71,363,o),
(213,60,o),
(447,60,cs)
);
}
);
width = 760;
}
);
note = uni09AD;
unicode = 2477;
},
{
glyphname = uni09AE;
lastChange = "2025-10-08 14:04:57 +0000";
layers = (
{
hints = (
{
horizontal = 1;
place = (0,30);
type = Stem;
},
{
place = (0,30);
type = Stem;
}
);
layerId = m01;
shapes = (
{
closed = 1;
nodes = (
(480,691,l),
(480,382,l),
(164,691,l)
);
},
{
closed = 1;
nodes = (
(551,691,l),
(639,691,l),
(639,763,l),
(-9,763,l),
(-9,691,l),
(63,691,l),
(248,509,l),
(135,498,o),
(60,408,o),
(71,304,cs),
(82,144,o),
(247,84,o),
(342,146,c),
(303,206,l),
(239,170,o),
(144,220,o),
(142,309,cs),
(142,453,o),
(292,462,o),
(348,411,cs),
(480,282,l),
(480,1,l),
(551,1,l)
);
}
);
width = 630;
}
);
note = uni09AE;
unicode = 2478;
},
{
glyphname = uni09AF;
lastChange = "2025-10-08 14:05:25 +0000";
layers = (
{
hints = (
{
horizontal = 1;
origin = (0,0);
target = down;
type = TopGhost;
},
{
place = (0,30);
type = Stem;
}
);
layerId = m01;
shapes = (
{
closed = 1;
nodes = (
(67,336,l),
(418,79,l),
(418,1,l),
(490,1,l),
(490,691,l),
(578,691,l),
(578,763,l),
(-9,763,l),
(-9,691,l),
(63,691,l),
(231,509,l),
(67,394,l)
);
},
{
closed = 1;
nodes = (
(305,474,l),
(311,527,l),
(160,691,l),
(418,691,l),
(418,168,l),
(149,364,l)
);
}
);
width = 569;
}
);
note = uni09AF;
unicode = 2479;
},
{
glyphname = uni09B0;
lastChange = "2025-10-08 14:05:48 +0000";
layers = (
{
hints = (
{
horizontal = 1;
origin = (1,0);
target = down;
type = TopGhost;
},
{
place = (0,30);
type = Stem;
}
);
layerId = m01;
shapes = (
{
closed = 1;
nodes = (
(125.333,142,o),
(100,117.667,o),
(100,87,cs),
(100,56,ls),
(100,25.333,o),
(125.333,1,o),
(156,1,cs),
(186.667,1,o),
(211,25.333,o),
(211,56,cs),
(211,87,ls),
(211,117.667,o),
(186.667,142,o),
(156,142,cs)
);
},
{
closed = 1;
nodes = (
(61,438,l),
(417,82,l),
(417,1,l),
(489,1,l),
(489,691,l),
(577,691,l),
(577,763,l),
(-9,763,l),
(-9,691,l),
(417,691,l),
(417,619,l),
(75,496,l)
);
},
{
closed = 1;
nodes = (
(417,183,l),
(152,448,l),
(417,543,l)
);
}
);
width = 568;
}
);
note = uni09B0;
unicode = 2480;
},
{
glyphname = uni09B2;
lastChange = "2025-10-08 14:07:06 +0000";
layers = (
{
hints = (
{
place = (0,30);
type = Stem;
},
{
horizontal = 1;
place = (0,30);
type = Stem;
}
);
layerId = m01;
shapes = (
{
closed = 1;
nodes = (
(457,626,o),
(360,581,o),
(327,518,c),
(302,557,o),
(262,584,o),
(215,584,cs),
(113,584,o),
(61,492,o),
(61,390,cs),
(61,211,o),
(174,101,o),
(312,151,c),
(288,218,l),
(190,180,o),
(131,283,o),
(131,388,cs),
(131,442,o),
(151,513,o),
(211,513,cs),
(251,513,o),
(294,482,o),
(294,354,c),
(365,351,l),
(379,613,o),
(498,509,o),
(530,350,c),
(530,0,l),
(601,0,l),
(601,691,l),
(691,691,l),
(691,763,l),
(-8,763,l),
(-8,691,l),
(530,691,l),
(530,504,l)
);
}
);
width = 681;
}
);
note = uni09B2;
unicode = 2482;
},
{
glyphname = uni09B6;
lastChange = "2025-10-08 14:07:27 +0000";
layers = (
{
hints = (
{
horizontal = 1;
origin = (0,0);
target = up;
type = BottomGhost;
},
{
place = (0,30);
type = Stem;
}
);
layerId = m01;
shapes = (
{
closed = 1;
nodes = (
(539,1,l),
(610,1,l),
(610,691,l),
(698,691,l),
(698,763,l),
(539,763,l),
(539,592,l),
(393,760,l),
(338,758,l),
(229,615,l),
(97,763,l),
(-9,763,l),
(-9,691,l),
(66,691,l),
(185,558,l),
(53,384,l),
(110,340,l),
(234,504,l),
(380,340,l),
(433,388,l),
(278,561,l),
(368,680,l),
(539,483,l)
);
}
);
width = 689;
}
);
note = uni09B6;
unicode = 2486;
},
{
glyphname = uni09B6.alt;
lastChange = "2025-10-08 14:08:39 +0000";
layers = (
{
hints = (
{
horizontal = 1;
origin = (0,19);
target = down;
type = TopGhost;
},
{
place = (0,30);
type = Stem;
}
);
layerId = m01;
shapes = (
{
closed = 1;
nodes = (
(402,380,o),
(490,413,c),
(464,479,l),
(364,440,o),
(324,477,o),
(324,584,cs),
(327,709,o),
(391,711,o),
(472,649,cs),
(572,572,l),
(572,1,l),
(643,1,l),
(643,691,l),
(731,691,l),
(731,763,l),
(572,763,l),
(572,662,l),
(515,705,ls),
(421,777,o),
(326,783,o),
(277,695,c),
(233,740.333,o),
(177,763,o),
(109,763,cs),
(-9,763,l),
(-9,691,l),
(109,692,ls),
(188,692,o),
(262,639,o),
(249,563,cs),
(230,472,o),
(165,433,o),
(105,499,c),
(53,452,l),
(122,372,o),
(219,374,o),
(281,458,c),
(323,385,o)
);
}
);
width = 722;
}
);
note = uni09B6.alt;
},
{
glyphname = uni09B7;
lastChange = "2025-10-08 14:08:59 +0000";
layers = (
{
hints = (
{
horizontal = 1;
origin = (0,0);
target = up;
type = BottomGhost;
},
{
place = (0,30);
type = Stem;
}
);
layerId = m01;
shapes = (
{
closed = 1;
nodes = (
(429,79,l),
(429,1,l),
(501,1,l),
(501,691,l),
(589,691,l),
(589,763,l),
(-9,763,l),
(-9,691,l),
(72,691,l),
(229,541,l),
(74,389,l),
(78,335,l)
);
},
{
closed = 1;
nodes = (
(175,691,l),
(429,691,l),
(429,448,l)
);
},
{
closed = 1;
nodes = (
(280,492,l),
(429,349,l),
(429,167,l),
(154,368,l)
);
}
);
width = 580;
}
);
note = uni09B7;
unicode = 2487;
},
{
glyphname = uni09B8;
lastChange = "2025-10-08 14:09:32 +0000";
layers = (
{
hints = (
{
horizontal = 1;
origin = (1,0);
target = up;
type = BottomGhost;
},
{
place = (0,30);
type = Stem;
}
);
layerId = m01;
shapes = (
{
closed = 1;
nodes = (
(177,691,l),
(522,691,l),
(522,351,l)
);
},
{
closed = 1;
nodes = (
(593,1,l),
(593,691,l),
(681,691,l),
(681,763,l),
(-9,763,l),
(-9,691,l),
(75,691,l),
(304,466,l),
(279,365,o),
(227,255,o),
(182,246,cs),
(157,238,o),
(124,278,o),
(109,300,c),
(51,258,l),
(87,207,o),
(136,164,o),
(196,176,cs),
(275,191,o),
(329,297,o),
(362,408,c),
(522,251,l),
(522,1,l)
);
}
);
width = 672;
}
);
note = uni09B8;
unicode = 2488;
},
{
glyphname = uni09B8.alt;
lastChange = "2025-10-08 14:10:32 +0000";
layers = (
{
hints = (
{
horizontal = 1;
origin = (1,1);
target = up;
type = BottomGhost;
},
{
place = (0,30);
type = Stem;
}
);
layerId = m01;
shapes = (
{
closed = 1;
nodes = (
(277,399,o),
(242,273,o),
(196,273,cs),
(170,273,o),
(131,311,o),
(113,328,c),
(61,280,l),
(98.333,236,o),
(155,198,o),
(203,198,cs),
(288,198,o),
(325,318,o),
(357,395,cs),
(419,529,o),
(473,446,o),
(542,316,c),
(542,1,l),
(614,1,l),
(614,691,l),
(701,691,l),
(701,763,l),
(-9,763,l),
(-9,691,l),
(94,691,l),
(291,428,l)
);
},
{
closed = 1;
nodes = (
(487,535,o),
(400,579,o),
(332,494,c),
(183,691,l),
(542,691,l),
(542,444,l)
);
}
);
width = 692;
}
);
note = uni09B8.alt;
},
{
glyphname = uni09B9;
lastChange = "2025-10-08 14:11:44 +0000";
layers = (
{
hints = (
{
horizontal = 1;
origin = (0,0);
target = down;
type = TopGhost;
},
{
place = (0,30);
type = Stem;
}
);
layerId = m01;
shapes = (
{
closed = 1;
nodes = (
(-9,763,l),
(-9,691,l),
(581,691,l),
(581,763,l)
);
},
{
closed = 1;
nodes = (
(417,73.667,o),
(346.333,131.333,o),
(229,198,c),
(361,217,o),
(493,288,o),
(493,421,cs),
(490.333,527.667,o),
(410.333,607.667,o),
(289,625,cs),
(209,636,o),
(120,600,o),
(88,527,cs),
(55,447,o),
(113,371,o),
(200,355,c),
(213,425,l),
(171,434,o),
(138,462,o),
(154,499,cs),
(173,545,o),
(235,559,o),
(280,555,cs),
(365.333,544.333,o),
(419.667,492.333,o),
(421,419,cs),
(421,304,o),
(249,261,o),
(124,261,cs),
(107,261,o),
(89,262,o),
(70,263,c),
(61,193,l),
(158.333,177,o),
(356.333,34.667,o),
(479,-68,c),
(525,-13,l)
);
}
);
width = 572;
}
);
note = uni09B9;
unicode = 2489;
},
{
glyphname = uni09DC;
lastChange = "2025-10-08 14:12:40 +0000";
layers = (
{
hints = (
{
horizontal = 1;
origin = (0,1);
target = down;
type = TopGhost;
},
{
place = (0,30);
type = Stem;
}
);
layerId = m01;
shapes = (
{
closed = 1;
nodes = (
(446,357,o),
(527,406,o),
(582,496,c),
(626,399,o),
(619,195,o),
(413,190,cs),
(227,190,o),
(142,417,o),
(133,621,c),
(61,619,l),
(74,376,o),
(184,118,o),
(411,118,cs),
(721,120,o),
(718,487,o),
(602,592,c),
(545,578,l),
(527,523,o),
(467,443,o),
(391,440,c),
(391,691,l),
(744,691,l),
(744,763,l),
(-9,763,l),
(-9,691,l),
(318,691,l),
(318,408,l),
(348,372,l)
);
},
{
closed = 1;
nodes = (
(374.333,53,o),
(350,28.667,o),
(350,-2,cs),
(350,-33,ls),
(350,-63.667,o),
(374.333,-88,o),
(405,-88,cs),
(435.667,-88,o),
(460,-62.333,o),
(460,-33,cs),
(460,-2,ls),
(460,28.667,o),
(435.667,53,o),
(405,53,cs)
);
}
);
width = 735;
}
);
note = uni09DC;
unicode = 2524;
},
{
glyphname = uni09DD;
lastChange = "2025-10-08 14:13:24 +0000";
layers = (
{
hints = (
{
horizontal = 1;
place = (0,30);
type = Stem;
},
{
place = (0,30);
type = Stem;
}
);
layerId = m01;
shapes = (
{
closed = 1;
nodes = (
(79,156,o),
(122,107,o),
(188,107,cs),
(313,107,o),
(503,279,o),
(503,421,cs),
(503,579,o),
(285,625,o),
(245,460,c),
(315,445,l),
(331,524,o),
(432,501,o),
(432,422,cs),
(432,328,o),
(279,178,o),
(189,178,cs),
(155,178,o),
(150,207,o),
(150,242,cs),
(150,691,l),
(574,691,l),
(574,763,l),
(-9,763,l),
(-9,691,l),
(79,691,l),
(79,242,l)
);
},
{
closed = 1;
nodes = (
(205.333,53,o),
(181,28.667,o),
(181,-2,cs),
(181,-33,ls),
(181,-63.667,o),
(205.333,-88,o),
(236,-88,cs),
(266.667,-88,o),
(291,-63.667,o),
(291,-33,cs),
(291,-2,ls),
(291,28.667,o),
(266.667,53,o),
(236,53,cs)
);
}
);
width = 565;
}
);
note = uni09DD;
unicode = 2525;
},
{
glyphname = uni09DF;
lastChange = "2025-10-08 14:13:39 +0000";
layers = (
{
hints = (
{
horizontal = 1;
origin = (0,0);
target = down;
type = TopGhost;
},
{
place = (0,30);
type = Stem;
}
);
layerId = m01;
shapes = (
{
closed = 1;
nodes = (
(67,335,l),
(418,79,l),
(418,1,l),
(490,1,l),
(490,691,l),
(578,691,l),
(578,763,l),
(-9,763,l),
(-9,691,l),
(63,691,l),
(231,508,l),
(67,393,l)
);
},
{
closed = 1;
nodes = (
(126.333,142,o),
(101,117.667,o),
(101,87,cs),
(101,56,ls),
(101,25.333,o),
(126.333,1,o),
(157,1,cs),
(187.667,1,o),
(212,25.333,o),
(212,56,cs),
(212,87,ls),
(212,117.667,o),
(187.667,142,o),
(157,142,cs)
);
},
{
closed = 1;
nodes = (
(305,473,l),
(311,527,l),
(160,691,l),
(418,691,l),
(418,167,l),
(149,363,l)
);
}
);
width = 569;
}
);
note = uni09DF;
unicode = 2527;
},
{
glyphname = uni09CE;
lastChange = "2025-10-08 14:14:41 +0000";
layers = (
{
layerId = m01;
shapes = (
{
closed = 1;
nodes = (
(530,109,o),
(355,243,o),
(221,358,cs),
(162,409,o),
(133,462,o),
(133,517,cs),
(133,590,o),
(196,681,o),
(284,690,cs),
(350,698,o),
(394,649,o),
(394,607,cs),
(394,564,o),
(335,541,o),
(297,579,c),
(246,530,l),
(325,446,o),
(465,500,o),
(465,608,cs),
(465,686,o),
(387,778,o),
(273,761,cs),
(166,745,o),
(62,641,o),
(62,518,cs),
(62,440,o),
(100,369,o),
(175,305,cs),
(255,235,o),
(435,114,o),
(347,13,c),
(401,-34,l),
(401,-34,l),
(401,-34,l)
);
}
);
width = 505;
}
);
note = uni09CE;
unicode = 2510;
},
{
glyphname = uni0982;
lastChange = "2025-10-08 14:16:36 +0000";
layers = (
{
hints = (
{
horizontal = 1;
origin = (1,0);
target = down;
type = TopGhost;
},
{
place = (0,30);
type = Stem;
}
);
layerId = m01;
shapes = (
{
closed = 1;
nodes = (
(337,672,o),
(337,582,cs),
(328,505,o),
(234,482,o),
(189,538,cs),
(135,603,o),
(166,650,o),
(190,669,cs),
(247,713,o)
);
},
{
closed = 1;
nodes = (
(95,406,l),
(44,355,l),
(410,-11,l),
(461,40,l)
);
},
{
closed = 1;
nodes = (
(280,414,o),
(352,470,cs),
(397,507,o),
(451,594,o),
(363,701,cs),
(312,765,o),
(217,782,o),
(145,723,cs),
(77,667,o),
(72,568,o),
(123,506,cs),
(188,425,o)
);
}
);
width = 479;
}
);
note = uni0982;
unicode = 2434;
},
{
glyphname = uni0983;
lastChange = "2025-10-08 14:17:40 +0000";
layers = (
{
layerId = m01;
shapes = (
{
closed = 1;
nodes = (
(279.333,236,o),
(317,198.333,o),
(317,153,cs),
(317,105,o),
(279,69,o),
(234,69,cs),
(217,69,ls),
(166,69,o),
(133,114,o),
(133,153,cs),
(133,200,o),
(175,236,o),
(216,236,cs),
(234,236,l)
);
},
{
closed = 1;
nodes = (
(279,692,o),
(317,654,o),
(317,609,cs),
(317,561,o),
(279,525,o),
(234,525,cs),
(217,525,ls),
(169,525,o),
(133,563,o),
(133,608,cs),
(133,658,o),
(176,692,o),
(216,692,cs),
(234,692,l)
);
},
{
closed = 1;
nodes = (
(319,-2,o),
(389,68,o),
(389,153,cs),
(387.667,238.333,o),
(319.333,307,o),
(234,307,cs),
(216,307,ls),
(129,307,o),
(62,238,o),
(62,152,cs),
(62,67,o),
(132,-2,o),
(217,-2,cs),
(234,-2,l)
);
},
{
closed = 1;
nodes = (
(320,454,o),
(389,523,o),
(389,609,cs),
(387.667,694.333,o),
(319.333,763,o),
(234,763,cs),
(216,763,ls),
(129,763,o),
(62,694,o),
(62,608,cs),
(62,523,o),
(132,454,o),
(217,454,cs),
(234,454,l)
);
}
);
width = 442;
}
);
note = uni0983;
unicode = 2435;
},
{
glyphname = uni09E0;
lastChange = "2025-10-08 14:17:48 +0000";
layers = (
{
layerId = m01;
shapes = (
{
closed = 1;
nodes = (
(169,449,l),
(434,544,l),
(434,183,l)
);
},
{
closed = 1;
nodes = (
(660,154,l),
(660,72,l),
(732,72,l),
(732,181,l),
(733,182,l),
(732,184,l),
(732,691,l),
(821,691,l),
(821,763,l),
(660,763,l),
(660,255,l),
(506,410,l),
(506,763,l),
(434,763,l),
(434,614,l),
(263,758,l),
(228,764,l),
(53,700,l),
(77,633,l),
(233,690,l),
(351,590,l),
(92,497,l),
(78,438,l),
(432,84,l),
(432,18,l),
(262,-99,l),
(262,-156,l),
(542,-348,l),
(580,-294,l),
(343,-128,l),
(488,-30,l),
(504,-1,l),
(504,1,l),
(506,1,l),
(506,309,l)
);
}
);
width = 812;
}
);
note = uni09E0;
unicode = 2528;
},
{
glyphname = uni09E0.alt;
lastChange = "2025-10-08 14:18:17 +0000";
layers = (
{
hints = (
{
horizontal = 1;
origin = (1,22);
target = down;
type = TopGhost;
},
{
place = (0,30);
type = Stem;
}
);
layerId = m01;
shapes = (
{
closed = 1;
nodes = (
(211,449,l),
(477,544,l),
(477,183,l)
);
},
{
closed = 1;
nodes = (
(702,72,l),
(774,72,l),
(774,181,l),
(775,182,l),
(774,184,l),
(774,691,l),
(864,691,l),
(864,763,l),
(702,763,l),
(702,255,l),
(548,410,l),
(548,763,l),
(476,763,l),
(476,614,l),
(313,769,l),
(254,738,l),
(254,731,ls),
(254,669,o),
(129,637,o),
(124,765,c),
(53,762,l),
(59,586,o),
(245,561,o),
(311,673,c),
(397,591,l),
(134,497,l),
(121,438,l),
(476,82,l),
(476,17,l),
(307,-99,l),
(307,-156,l),
(587,-348,l),
(625,-294,l),
(388,-128,l),
(533,-30,l),
(549,-1,l),
(549,115,l),
(548,115,l),
(548,309,l),
(702,154,l)
);
}
);
width = 855;
}
);
note = uni09E0.alt;
},
{
glyphname = uni09E1;
lastChange = "2025-10-08 14:20:26 +0000";
layers = (
{
hints = (
{
horizontal = 1;
place = (0,30);
type = Stem;
},
{
place = (0,30);
type = Stem;
}
);
layerId = m01;
shapes = (
{
closed = 1;
nodes = (
(441.667,307.667,o),
(459.333,338.333,o),
(468,361,c),
(580,315,o),
(639,257,o),
(577,155,c),
(549,223,o),
(490,264,o),
(415,269,c)
);
},
{
closed = 1;
nodes = (
(546,130,o),
(503,43,c),
(534,24,l),
(563,4,l),
(624,96,o),
(674,159,o),
(674,223,cs),
(674,333,o),
(597,388,o),
(479,432,c),
(479,491,o),
(437,558,o),
(364.5,594.5,cs),
(311,622,o),
(242,644,o),
(199,664.5,cs),
(162,682,o),
(165,696,o),
(190,730,c),
(132,772,l),
(108,739,o),
(94,704,o),
(103,666,cs),
(116.333,620.667,o),
(158.667,600.667,o),
(240,570,cs),
(349,530,o),
(399,500,o),
(407,435,cs),
(412,409,o),
(397,375,o),
(383,352,c),
(360,422,o),
(284,466,o),
(203,466,cs),
(123,462,o),
(67.667,404.667,o),
(61,342,cs),
(52,279,o),
(96,220,o),
(173,198,c),
(192,267,l),
(168,275,o),
(132,287,o),
(132,334,cs),
(134.667,364.667,o),
(163,392.333,o),
(207,395,cs),
(299,395,o),
(346,314,o),
(314,248,c),
(310,243,o),
(311,245,o),
(310,239,c),
(213,162,o),
(246,35,o),
(367,1,c),
(386,70,l),
(287,103,o),
(319,193,o),
(406,198,cs),
(483,198,o)
);
}
);
width = 734;
}
);
note = uni09E1;
unicode = 2529;
},
{
glyphname = uni09D70981.rphf;
lastChange = "2025-10-08 14:21:07 +0000";
layers = (
{
hints = (
{
place = (0,30);
type = Stem;
},
{
horizontal = 1;
place = (0,30);
type = Stem;
}
);
layerId = m01;
shapes = (
{
closed = 1;
nodes = (
(-40,750,o),
(55,1037,c),
(-12,1059,l),
(-87,839,o),
(-233,920,o),
(-269,1057,c),
(-338,1038,l),
(-286,833,o)
);
},
{
closed = 1;
nodes = (
(234,929,l),
(194,987,l),
(-63,807,l),
(-25,752,l)
);
},
{
closed = 1;
nodes = (
(-167.667,1133,o),
(-190,1111,o),
(-190,1083,cs),
(-190,1056,ls),
(-190,1029.333,o),
(-167.667,1007,o),
(-141,1007,cs),
(-114.333,1007,o),
(-92,1029.333,o),
(-92,1056,cs),
(-92,1083,ls),
(-92,1111,o),
(-114.333,1133,o),
(-141,1133,cs)
);
}
);
width = 0;
}
);
note = uni09D70981.rphf;
},
{
glyphname = uni0981;
lastChange = "2025-10-08 14:21:25 +0000";
layers = (
{
layerId = m01;
shapes = (
{
closed = 1;
nodes = (
(-100,664,o),
(-2,958,c),
(-69,980,l),
(-144,760,o),
(-290,841,o),
(-326,978,c),
(-395,959,l),
(-344,761,o)
);
},
{
closed = 1;
nodes = (
(-224.667,1054,o),
(-247,1032,o),
(-247,1004,cs),
(-247,977,ls),
(-247,950.333,o),
(-224.667,928,o),
(-198,928,cs),
(-171.333,928,o),
(-149,950.333,o),
(-149,977,cs),
(-149,1004,ls),
(-149,1032,o),
(-171.333,1054,o),
(-198,1054,cs)
);
}
);
width = 0;
}
);
note = uni0981;
unicode = 2433;
},
{
glyphname = uni09BE;
lastChange = "2025-10-08 14:21:31 +0000";
layers = (
{
layerId = m01;
shapes = (
{
closed = 1;
nodes = (
(-9,763,l),
(-9,691,l),
(81,691,l),
(81,1,l),
(152,1,l),
(152,691,l),
(241,691,l),
(241,763,l)
);
}
);
width = 232;
}
);
note = uni09BE;
unicode = 2494;
},
{
glyphname = uni09BF;
lastChange = "2025-10-08 14:22:53 +0000";
layers = (
{
layerId = m01;
shapes = (
{
closed = 1;
nodes = (
(432,1009,o),
(627,865,c),
(663,916,l),
(405,1097,o),
(8,1066,o),
(75,763,c),
(-9,763,l),
(-9,691,l),
(80,691,l),
(80,0,l),
(151,0,l),
(151,691,l),
(251,691,l),
(251,763,l),
(147,763,l),
(69,1017,o)
);
}
);
width = 231;
}
);
note = uni09BF;
unicode = 2495;
},
{
glyphname = uni09C0;
lastChange = "2025-10-08 14:24:16 +0000";
layers = (
{
layerId = m01;
shapes = (
{
closed = 1;
nodes = (
(-129,953,l),
(-129,953,o),
(-465,847,o),
(-472,966,cs),
(-472,1038,o),
(-287,1046,o),
(-216,1040,cs),
(-85,1027,o),
(35,970,o),
(76,881,cs),
(91,847,o),
(82,796,o),
(77,763,c),
(-79,763,l),
(-79,920,l)
);
},
{
closed = 1;
nodes = (
(149,763,l),
(149,827,o),
(168,851,o),
(141,911,cs),
(88,1026,o),
(-52,1094,o),
(-204,1110,cs),
(-342,1125,o),
(-543,1097,o),
(-543,963,cs),
(-536,769,o),
(-145,869,o),
(-150,868,c),
(-150,691,l),
(73,691,l),
(73,1,l),
(144,1,l),
(144,691,l),
(276,691,l),
(276,763,l)
);
}
);
width = 231;
}
);
note = uni09C0;
unicode = 2496;
},
{
glyphname = uni09C1;
lastChange = "2025-10-08 14:25:33 +0000";
layers = (
{
hints = (
{
horizontal = 1;
origin = (1,1);
target = up;
type = BottomGhost;
},
{
place = (0,30);
type = Stem;
}
);
layerId = m01;
shapes = (
{
closed = 1;
nodes = (
(-243,-150,o),
(-243,-84,cs),
(-243,-4,o),
(-161,-17,o),
(-86,-70,c),
(-137,-186,o)
);
},
{
closed = 1;
nodes = (
(130,-178,o),
(52,-98,o),
(-1,-54,c),
(-1,115,l),
(-72,115,l),
(-73,0,l),
(-211,90,o),
(-329,14,o),
(-308,-109,cs),
(-281,-246,o),
(-81,-237,o),
(-35,-120,cs),
(-34,-117,o),
(-33,-114,o),
(-33,-113,c),
(-7,-135,o),
(106,-248,o),
(124,-263,c),
(170,-215,l)
);
}
);
width = 0;
}
);
note = uni09C1;
unicode = 2497;
},
{
glyphname = uni09C2;
lastChange = "2025-10-08 14:26:06 +0000";
layers = (
{
hints = (
{
horizontal = 1;
place = (0,30);
type = Stem;
},
{
place = (0,30);
type = Stem;
}
);
layerId = m01;
shapes = (
{
closed = 1;
nodes = (
(-176,-63,o),
(-176,-123,cs),
(-176,-225,o),
(-18,-337,o),
(100,-157,c),
(253,-316,l),
(305,-266,l),
(118,-73,l),
(59,-83,l),
(-14,-237,o),
(-106,-174,o),
(-106,-123,cs),
(-106,-89,o),
(-73,-68,o),
(-32,-66,c),
(1,-32,l),
(1,115,l),
(-70,115,l),
(-70,-1,l),
(-130,-14,o)
);
}
);
width = 1;
}
);
note = uni09C2;
unicode = 2498;
},
{
glyphname = uni09C3;
lastChange = "2025-10-08 14:26:15 +0000";
layers = (
{
layerId = m01;
shapes = (
{
closed = 1;
nodes = (
(38,-318,l),
(76,-264,l),
(-161,-98,l),
(-16,0,l),
(0,29,l),
(0,145,l),
(-72,145,l),
(-72,48,l),
(-242,-69,l),
(-242,-126,l)
);
}
);
width = 0;
}
);
note = uni09C3;
unicode = 2499;
},
{
glyphname = uni09C4;
lastChange = "2025-10-08 12:05:32 +0000";
layers = (
{
layerId = m01;
shapes = (
{
closed = 1;
nodes = (
(-93,-106,l),
(-226,-193,l),
(-223,-252,l),
(55,-396,l),
(85,-336,l),
(-139,-219,l),
(-4,-132,l),
(-7,-71,l),
(-149,1,l),
(-17,79,l),
(0,109,l),
(0,218,l),
(-72,218,l),
(-72,129,l),
(-240,27,l),
(-237,-35,l),
(-237,-35,l),
(-237,-35,l)
);
}
);
width = 0;
}
);
note = uni09C4;
unicode = 2500;
},
{
glyphname = uni09E2;
lastChange = "2025-10-08 12:05:32 +0000";
layers = (
{
layerId = m01;
shapes = (
{
closed = 1;
nodes = (
(-151,-153.667,o),
(-152.667,-156,o),
(-154,-158,c),
(-123,-176,l),
(-93,-196,l),
(-91,-193.333,o),
(-89.333,-190.333,o),
(-88,-187,c),
(-81.333,-177,o),
(-71.667,-163,o),
(-59,-145,cs),
(-37.667,-113.667,o),
(-22,-87,o),
(-12,-65,cs),
(-5.333,-48.333,o),
(-2,-30.667,o),
(-2,-12,cs),
(-2,-5.333,o),
(-2.333,1.333,o),
(-3,8,cs),
(-13.667,97.333,o),
(-79.333,133.667,o),
(-182,171,cs),
(-228.667,188.333,o),
(-253,200.667,o),
(-255,208,c),
(-255,210,ls),
(-255,215.333,o),
(-250.333,224.667,o),
(-241,238,c),
(-299,280,l),
(-317,254.667,o),
(-326,231,o),
(-326,209,cs),
(-326,201.667,o),
(-325,194.333,o),
(-323,187,cs),
(-311,147,o),
(-276.333,129.333,o),
(-207,104,cs),
(-120.333,72,o),
(-75.333,48.333,o),
(-74,-1,cs),
(-74,-21,o),
(-78,-39,o),
(-86,-55,c),
(-88,-51.667,o),
(-89.667,-49,o),
(-91,-47,cs),
(-123,5,o),
(-169,31,o),
(-229,31,cs),
(-236,31,ls),
(-301.333,28.333,o),
(-351.333,-17.333,o),
(-358,-76,cs),
(-358.667,-80.667,o),
(-359,-85,o),
(-359,-89,cs),
(-359,-109.667,o),
(-352.667,-130,o),
(-340,-150,cs),
(-324,-174,o),
(-298,-191,o),
(-262,-201,c),
(-242,-133,l),
(-272,-123.667,o),
(-287,-108.667,o),
(-287,-88,cs),
(-287,-84,ls),
(-285.667,-62.667,o),
(-264,-41.333,o),
(-232,-40,cs),
(-228,-40,ls),
(-195.333,-40,o),
(-170.333,-54,o),
(-153,-82,cs),
(-145.667,-95.333,o),
(-142,-108.333,o),
(-142,-121,cs),
(-142,-131,o),
(-144.333,-141,o),
(-149,-151,c)
);
}
);
width = 0;
}
);
note = uni09E2;
unicode = 2530;
},
{
glyphname = uni09E3;
lastChange = "2025-10-08 12:05:32 +0000";
layers = (
{
layerId = m01;
shapes = (
{
closed = 1;
nodes = (
(-189.667,61.667,o),
(-176,87,o),
(-170,107,c),
(-108.667,81.667,o),
(-77.333,55.333,o),
(-72,10,cs),
(-71.333,6.667,o),
(-71,3.333,o),
(-71,0,cs),
(-71,-16.667,o),
(-76.667,-35,o),
(-88,-55,c),
(-89.333,-52.333,o),
(-91,-49.333,o),
(-93,-46,cs),
(-120.333,-1.333,o),
(-159.667,24.333,o),
(-211,31,c)
);
},
{
closed = 1;
nodes = (
(-134,-170,l),
(-95,-196,l),
(-94.333,-195.333,o),
(-93.667,-194.333,o),
(-93,-193,c),
(-93,-194,l),
(-85,-180.667,o),
(-73.667,-163,o),
(-59,-141,cs),
(-36.333,-108.333,o),
(-20,-80.667,o),
(-10,-58,cs),
(-2.667,-41.333,o),
(1,-23.333,o),
(1,-4,cs),
(1,3.333,o),
(0.333,11,o),
(-1,19,cs),
(-11.667,105.667,o),
(-76.667,148.333,o),
(-166,183,c),
(-183.333,264.333,o),
(-245.667,297,o),
(-343,333,cs),
(-389.667,350.333,o),
(-414,362.667,o),
(-416,370,c),
(-416,372,ls),
(-416,377.333,o),
(-411.333,386.667,o),
(-402,400,c),
(-460,442,l),
(-478,416.667,o),
(-487,393,o),
(-487,371,cs),
(-487,363.667,o),
(-486,356.333,o),
(-484,349,cs),
(-472,309,o),
(-437.333,291.333,o),
(-368,266,cs),
(-281.333,234,o),
(-240.333,210.333,o),
(-235,161,cs),
(-234.333,158.333,o),
(-234,155.667,o),
(-234,153,cs),
(-234,138.333,o),
(-238.333,123,o),
(-247,107,c),
(-249,109.667,o),
(-250.667,112.333,o),
(-252,115,cs),
(-284,167,o),
(-330,193,o),
(-390,193,cs),
(-397,193,ls),
(-461,190.333,o),
(-512.333,144.667,o),
(-519,86,cs),
(-519.667,81.333,o),
(-520,77,o),
(-520,73,cs),
(-520,52.333,o),
(-513.333,32,o),
(-500,12,cs),
(-484.667,-12,o),
(-459,-29,o),
(-423,-39,c),
(-403,29,l),
(-433,38.333,o),
(-448,53.333,o),
(-448,74,cs),
(-448,78,ls),
(-446.667,99.333,o),
(-425,120.667,o),
(-393,122,cs),
(-389,122,ls),
(-356.333,122,o),
(-331.333,108,o),
(-314,80,cs),
(-306.667,66.667,o),
(-303,53.667,o),
(-303,41,cs),
(-303,31,o),
(-305.333,21,o),
(-310,11,c),
(-312,8.333,o),
(-313.667,6,o),
(-315,4,c),
(-314,4,l),
(-341.333,-16.667,o),
(-356.667,-43.333,o),
(-360,-76,cs),
(-360.667,-80,o),
(-361,-83.667,o),
(-361,-87,cs),
(-361,-108.333,o),
(-354.333,-129.333,o),
(-341,-150,cs),
(-325.667,-174,o),
(-300,-191,o),
(-264,-201,c),
(-244,-133,l),
(-274,-123.667,o),
(-289,-108.667,o),
(-289,-88,cs),
(-289,-84,ls),
(-286.333,-61.333,o),
(-266,-41.333,o),
(-234,-40,cs),
(-228,-40,ls),
(-196,-40,o),
(-171.667,-54,o),
(-155,-82,cs),
(-147.667,-95.333,o),
(-144,-108.333,o),
(-144,-121,cs),
(-144,-133,o),
(-147.333,-144.667,o),
(-154,-156,c),
(-154,-158,l),
(-154,-158,l),
(-154,-158,l)
);
}
);
width = 0;
}
);
note = uni09E3;
unicode = 2531;
},
{
glyphname = uni09C7;
lastChange = "2025-10-08 14:26:40 +0000";
layers = (
{
layerId = m01;
shapes = (
{
closed = 1;
nodes = (
(52,162,o),
(185,-63,o),
(393,38,c),
(368,105,l),
(213,23,o),
(125,209,o),
(134,387,cs),
(143,508,o),
(209,691,o),
(307,691,cs),
(351,691,l),
(351,763,l),
(-9,763,l),
(-9,691,l),
(170,691,l),
(111.333,627,o),
(71,523.667,o),
(63,393,cs)
);
}
);
width = 313;
}
);
note = uni09C7;
unicode = 2503;
},
{
glyphname = uni09C7.init;
lastChange = "2025-10-08 14:27:15 +0000";
layers = (
{
layerId = m01;
shapes = (
{
closed = 1;
nodes = (
(54,280,o),
(81,128,o),
(179,56,cs),
(232,16,o),
(313,-3,o),
(394,38,c),
(368,105,l),
(321,79,o),
(265,80,o),
(221,113,cs),
(147,167,o),
(126,298,o),
(135,387,cs),
(143,482,o),
(193,691,o),
(297,691,cs),
(351,691,l),
(351,763,l),
(297,763,ls),
(151,763,o),
(75,545,o),
(64,393,cs)
);
}
);
width = 314;
}
);
note = uni09C7.init;
},
{
glyphname = uni09C8;
lastChange = "2025-10-08 14:28:39 +0000";
layers = (
{
layerId = m01;
shapes = (
{
closed = 1;
nodes = (
(415,1065,o),
(141,989,cs),
(78,972,o),
(8,977,o),
(34,1048,c),
(-33,1072,l),
(-49,1029,o),
(-48,982,o),
(-16,948,cs),
(31,901,o),
(97,903,o),
(161,920,cs),
(384,988,o),
(340,838,o),
(261,763,c),
(-9,763,l),
(-9,691,l),
(170,691,l),
(111.333,627,o),
(71,523.667,o),
(63,393,cs),
(58,275,o),
(78,130,o),
(178,56,cs),
(229,18,o),
(306,-4,o),
(393,38,c),
(368,105,l),
(319,79,o),
(265,81,o),
(221,113,cs),
(143,169,o),
(129,297,o),
(134,387,cs),
(143,508,o),
(209,691,o),
(307,691,cs),
(351,691,l),
(351,759,l),
(437,884,o)
);
}
);
width = 313;
}
);
note = uni09C8;
unicode = 2504;
},
{
glyphname = uni09C8.init;
lastChange = "2025-10-08 14:30:05 +0000";
layers = (
{
layerId = m01;
shapes = (
{
closed = 1;
nodes = (
(58,275,o),
(78,130,o),
(178,56,cs),
(229,18,o),
(306,-4,o),
(393,38,c),
(368,105,l),
(319,79,o),
(265,81,o),
(221,113,cs),
(143,169,o),
(129,297,o),
(134,387,cs),
(143,508,o),
(209,691,o),
(307,691,cs),
(351,691,l),
(351,759,l),
(432,879,o),
(402,1009,o),
(259,1009,cs),
(227,1009,o),
(187.667,1002.333,o),
(141,989,cs),
(78,972,o),
(7,977,o),
(34,1048,c),
(-33,1072,l),
(-72,979,o),
(-6,909,o),
(87,909,cs),
(146,909,o),
(224,945,o),
(267,936,cs),
(373,930,o),
(314,801,o),
(245,749,c),
(151.667,706.333,o),
(75,577,o),
(63,393,cs)
);
}
);
width = 313;
}
);
note = uni09C8.init;
},
{
glyphname = uni09CB;
lastChange = "2025-10-08 14:30:30 +0000";
layers = (
{
layerId = m01;
shapes = (
{
closed = 1;
nodes = (
(58,275,o),
(78,130,o),
(178,56,cs),
(229,18,o),
(306,-4,o),
(393,38,c),
(368,105,l),
(320,79,o),
(264,80,o),
(221,113,cs),
(143,169,o),
(129,297,o),
(134,387,cs),
(143,508,o),
(209,691,o),
(307,691,cs),
(351,691,l),
(351,763,l),
(-9,763,l),
(-9,691,l),
(170,691,l),
(111.333,627,o),
(72.333,523.667,o),
(63,393,cs)
);
},
{
closed = 1;
nodes = (
(552.667,640,o),
(534,622.333,o),
(534,601,cs),
(534,579,ls),
(534,556.333,o),
(552.667,539,o),
(574,539,cs),
(596.667,539,o),
(615,556.333,o),
(615,579,cs),
(615,601,ls),
(615,622.333,o),
(596.667,640,o),
(574,640,cs)
);
},
{
closed = 1;
nodes = (
(552.667,192,o),
(534,174.667,o),
(534,152,cs),
(534,130,ls),
(534,108.667,o),
(552.667,91,o),
(574,91,cs),
(596.667,91,o),
(615,108.667,o),
(615,130,cs),
(615,152,ls),
(615,174.667,o),
(596.667,192,o),
(574,192,cs)
);
},
{
closed = 1;
nodes = (
(782.333,416,o),
(764,398.333,o),
(764,377,cs),
(764,355,ls),
(764,332.333,o),
(782.333,315,o),
(805,315,cs),
(827.667,315,o),
(845,332.333,o),
(845,355,cs),
(845,377,ls),
(845,398.333,o),
(827.667,416,o),
(805,416,cs)
);
},
{
closed = 1;
nodes = (
(321.333,416,o),
(304,398.333,o),
(304,377,cs),
(304,355,ls),
(304,332.333,o),
(321.333,315,o),
(344,315,cs),
(366.667,315,o),
(385,332.333,o),
(385,355,cs),
(385,377,ls),
(385,398.333,o),
(366.667,416,o),
(344,416,cs)
);
},
{
closed = 1;
nodes = (
(715.667,575,o),
(697,556.333,o),
(697,535,cs),
(697,513,ls),
(697,491.667,o),
(715.667,474,o),
(737,474,cs),
(759.667,474,o),
(778,491.667,o),
(778,513,cs),
(778,535,ls),
(778,556.333,o),
(759.667,575,o),
(737,575,cs)
);
},
{
closed = 1;
nodes = (
(389.333,258,o),
(371,239.333,o),
(371,218,cs),
(371,196,ls),
(371,174.667,o),
(389.333,156,o),
(412,156,cs),
(433.333,156,o),
(452,174.667,o),
(452,196,cs),
(452,218,ls),
(452,239.333,o),
(433.333,258,o),
(412,258,cs)
);
},
{
closed = 1;
nodes = (
(715.667,258,o),
(697,239.333,o),
(697,218,cs),
(697,196,ls),
(697,174.667,o),
(715.667,156,o),
(737,156,cs),
(759.667,156,o),
(778,174.667,o),
(778,196,cs),
(778,218,ls),
(778,239.333,o),
(759.667,258,o),
(737,258,cs)
);
},
{
closed = 1;
nodes = (
(389.333,575,o),
(371,556.333,o),
(371,535,cs),
(371,513,ls),
(371,491.667,o),
(389.333,474,o),
(412,474,cs),
(433.333,474,o),
(452,491.667,o),
(452,513,cs),
(452,535,ls),
(452,556.333,o),
(433.333,575,o),
(412,575,cs)
);
},
{
closed = 1;
nodes = (
(876,763,l),
(876,691,l),
(966,691,l),
(966,1,l),
(1037,1,l),
(1037,691,l),
(1126,691,l),
(1126,763,l)
);
}
);
width = 1098;
}
);
note = uni09CB;
unicode = 2507;
},
{
glyphname = uni09CC;
lastChange = "2025-10-08 14:31:25 +0000";
layers = (
{
layerId = m01;
shapes = (
{
closed = 1;
nodes = (
(58,275,o),
(78,130,o),
(178,56,cs),
(229,18,o),
(306,-4,o),
(393,38,c),
(368,105,l),
(320,79,o),
(264,80,o),
(221,113,cs),
(143,169,o),
(129,297,o),
(134,387,cs),
(143,508,o),
(209,691,o),
(307,691,cs),
(351,691,l),
(351,763,l),
(-9,763,l),
(-9,691,l),
(170,691,l),
(111.333,627,o),
(72.333,523.667,o),
(63,393,cs)
);
},
{
closed = 1;
nodes = (
(909,691,l),
(909,1,l),
(980,1,l),
(980,691,l),
(1069,691,l),
(1069,763,l),
(989,763,l),
(999,830,o),
(1002,922,o),
(950,971,cs),
(876,1039,o),
(712,993,o),
(617,966,cs),
(531,944,o),
(488,966,o),
(510,1025,c),
(443,1049,l),
(404,956,o),
(470,886,o),
(563,886,cs),
(653,886,o),
(833,975,o),
(902,918,cs),
(934,889,o),
(924,805,o),
(917,763,c),
(821,763,l),
(821,691,l)
);
},
{
closed = 1;
nodes = (
(552.667,640,o),
(534,622.333,o),
(534,601,cs),
(534,579,ls),
(534,556.333,o),
(552.667,539,o),
(574,539,cs),
(596.667,539,o),
(615,556.333,o),
(615,579,cs),
(615,601,ls),
(615,622.333,o),
(596.667,640,o),
(574,640,cs)
);
},
{
closed = 1;
nodes = (
(552.667,192,o),
(534,174.667,o),
(534,152,cs),
(534,130,ls),
(534,108.667,o),
(552.667,91,o),
(574,91,cs),
(596.667,91,o),
(615,108.667,o),
(615,130,cs),
(615,152,ls),
(615,174.667,o),
(596.667,192,o),
(574,192,cs)
);
},
{
closed = 1;
nodes = (
(782.333,416,o),
(764,398.333,o),
(764,377,cs),
(764,355,ls),
(764,332.333,o),
(782.333,315,o),
(805,315,cs),
(827.667,315,o),
(845,332.333,o),
(845,355,cs),
(845,377,ls),
(845,398.333,o),
(827.667,416,o),
(805,416,cs)
);
},
{
closed = 1;
nodes = (
(321.333,416,o),
(304,398.333,o),
(304,377,cs),
(304,355,ls),
(304,332.333,o),
(321.333,315,o),
(344,315,cs),
(366.667,315,o),
(385,332.333,o),
(385,355,cs),
(385,377,ls),
(385,398.333,o),
(366.667,416,o),
(344,416,cs)
);
},
{
closed = 1;
nodes = (
(715.667,575,o),
(697,556.333,o),
(697,535,cs),
(697,513,ls),
(697,491.667,o),
(715.667,474,o),
(737,474,cs),
(759.667,474,o),
(778,491.667,o),
(778,513,cs),
(778,535,ls),
(778,556.333,o),
(759.667,575,o),
(737,575,cs)
);
},
{
closed = 1;
nodes = (
(389.333,258,o),
(371,239.333,o),
(371,218,cs),
(371,196,ls),
(371,174.667,o),
(389.333,156,o),
(412,156,cs),
(433.333,156,o),
(452,174.667,o),
(452,196,cs),
(452,218,ls),
(452,239.333,o),
(433.333,258,o),
(412,258,cs)
);
},
{
closed = 1;
nodes = (
(715.667,258,o),
(697,239.333,o),
(697,218,cs),
(697,196,ls),
(697,174.667,o),
(715.667,156,o),
(737,156,cs),
(759.667,156,o),
(778,174.667,o),
(778,196,cs),
(778,218,ls),
(778,239.333,o),
(759.667,258,o),
(737,258,cs)
);
},
{
closed = 1;
nodes = (
(389.333,575,o),
(371,556.333,o),
(371,535,cs),
(371,513,ls),
(371,491.667,o),
(389.333,474,o),
(412,474,cs),
(433.333,474,o),
(452,491.667,o),
(452,513,cs),
(452,535,ls),
(452,556.333,o),
(433.333,575,o),
(412,575,cs)
);
}
);
width = 1042;
}
);
note = uni09CC;
unicode = 2508;
},
{
glyphname = uni09CD;
lastChange = "2025-10-08 12:05:32 +0000";
layers = (
{
layerId = m01;
shapes = (
{
closed = 1;
nodes = (
(113,-144,l),
(-146,34,l),
(-184,-21,l),
(73,-201,l),
(73,-201,l),
(73,-201,l)
);
}
);
width = 0;
}
);
note = uni09CD;
unicode = 2509;
},
{
glyphname = uni0964;
lastChange = "2025-10-08 12:05:32 +0000";
layers = (
{
layerId = m01;
shapes = (
{
closed = 1;
nodes = (
(246,21,l),
(246,743,l),
(175,743,l),
(175,21,l),
(175,21,l),
(175,21,l)
);
}
);
width = 326;
}
);
note = uni0964;
unicode = 2404;
},
{
glyphname = uni0965;
lastChange = "2025-10-08 12:05:32 +0000";
layers = (
{
layerId = m01;
shapes = (
{
closed = 1;
nodes = (
(447,21,l),
(447,743,l),
(376,743,l),
(376,21,l),
(376,21,l),
(376,21,l)
);
},
{
closed = 1;
nodes = (
(246,21,l),
(246,743,l),
(175,743,l),
(175,21,l),
(175,21,l),
(175,21,l)
);
}
);
width = 527;
}
);
note = uni0965;
unicode = 2405;
},
{
glyphname = uni09D7;
lastChange = "2025-10-08 14:32:21 +0000";
layers = (
{
layerId = m01;
shapes = (
{
closed = 1;
nodes = (
(80,691,l),
(80,1,l),
(151,1,l),
(151,691,l),
(240,691,l),
(240,763,l),
(160,763,l),
(170,828,o),
(176,920,o),
(121,971,cs),
(47,1039,o),
(-117,993,o),
(-212,966,cs),
(-296,944,o),
(-341,966,o),
(-319,1025,c),
(-386,1049,l),
(-436,930,o),
(-320,863,o),
(-192,897,cs),
(-131,915,o),
(25,962,o),
(73,918,cs),
(105,889,o),
(95,805,o),
(88,763,c),
(-8,763,l),
(-8,691,l)
);
}
);
width = 231;
}
);
note = uni09D7;
unicode = 2519;
},
{
glyphname = uni09BC;
lastChange = "2025-10-08 12:05:32 +0000";
layers = (
{
layerId = m01;
shapes = (
{
closed = 1;
nodes = (
(-86.667,142,o),
(-111,117.667,o),
(-111,87,cs),
(-111,56,ls),
(-111,25.333,o),
(-86.667,1,o),
(-56,1,cs),
(-25.333,1,o),
(0,25.333,o),
(0,56,cs),
(0,87,ls),
(0,117.667,o),
(-25.333,142,o),
(-56,142,cs)
);
}
);
width = 1;
}
);
note = uni09BC;
unicode = 2492;
},
{
glyphname = uni09FA;
lastChange = "2025-10-08 12:05:32 +0000";
layers = (
{
layerId = m01;
shapes = (
{
closed = 1;
nodes = (
(430.333,60,o),
(460.667,63.667,o),
(490,71,cs),
(663.333,117.667,o),
(772.333,287.667,o),
(791,537,c),
(720,542,l),
(704,322,o),
(616,178.333,o),
(472,141,cs),
(446.667,134.333,o),
(421.333,131,o),
(396,131,cs),
(356,131,o),
(315.333,139.333,o),
(274,156,cs),
(206,183.333,o),
(152,226.333,o),
(112,285,c),
(53,246,l),
(130.333,131.333,o),
(265.667,60,o),
(399,60,cs)
);
},
{
closed = 1;
nodes = (
(410.333,372,o),
(388,349.667,o),
(388,323,cs),
(388,295,ls),
(388,268.333,o),
(410.333,246,o),
(437,246,cs),
(463.667,246,o),
(486,268.333,o),
(486,295,cs),
(486,323,ls),
(486,349.667,o),
(463.667,372,o),
(437,372,cs)
);
}
);
width = 869;
}
);
note = uni09FA;
unicode = 2554;
},
{
glyphname = degree;
lastChange = "2025-10-08 12:05:32 +0000";
layers = (
{
layerId = m01;
shapes = (
{
closed = 1;
nodes = (
(106,692.655,o),
(149.182,735,o),
(203,735,cs),
(255.733,735,o),
(300,691.733,o),
(300,639,cs),
(300,587.605,o),
(258.107,541,o),
(203,541,cs),
(147.05,541,o),
(106,588.557,o),
(106,639,cs)
);
},
{
closed = 1;
nodes = (
(52,553.871,o),
(120.679,488,o),
(203,488,cs),
(293.442,488,o),
(354,561.565,o),
(354,639,cs),
(354,719.619,o),
(285.3,789,o),
(204,789,cs),
(121.024,789,o),
(52,721.747,o),
(52,637,cs)
);
}
);
width = 409;
}
);
note = degree;
unicode = (176,2557);
},
{
glyphname = uni09E6;
lastChange = "2025-10-08 14:32:30 +0000";
layers = (
{
layerId = m01;
shapes = (
{
closed = 1;
nodes = (
(371.667,528,o),
(443,457,o),
(443,369,cs),
(443,320,ls),
(443,232,o),
(371.667,161,o),
(285,161,cs),
(197,161,o),
(126,232,o),
(126,320,cs),
(126,369,ls),
(126,457,o),
(197,528,o),
(285,528,cs)
);
},
{
closed = 1;
nodes = (
(421.584,82,o),
(523,195.926,o),
(523,320,cs),
(523,369,ls),
(523,500.45,o),
(415.013,607,o),
(285,607,cs),
(153.013,607,o),
(47,500.987,o),
(47,369,cs),
(47,320,ls),
(47,192,o),
(150,82,o),
(285,82,cs)
);
}
);
width = 564;
}
);
note = uni09E6;
unicode = 2534;
},
{
glyphname = uni09E7;
lastChange = "2025-10-08 14:33:22 +0000";
layers = (
{
layerId = m01;
shapes = (
{
closed = 1;
nodes = (
(542,25,o),
(516,307,cs),
(509,417,o),
(397,494,o),
(318,551,cs),
(268,589,o),
(159,662,o),
(175,725,c),
(98,745,l),
(69,630,o),
(178,557,o),
(271,487,cs),
(379,408.333,o),
(433,360.667,o),
(437,302,cs),
(437,173,o),
(347,124,o),
(256,124,cs),
(164,124,o),
(99,193,o),
(235,270,c),
(197,340,l),
(113,295,o),
(53,224,o),
(79,149,cs),
(136,-31,o)
);
}
);
width = 568;
}
);
note = uni09E7;
unicode = 2535;
},
{
glyphname = uni09E8;
lastChange = "2025-10-08 14:34:11 +0000";
layers = (
{
layerId = m01;
shapes = (
{
closed = 1;
nodes = (
(474,-72,l),
(526,-13,l),
(243,239,l),
(353.667,260.333,o),
(456.333,348,o),
(503,396,c),
(495,458,l),
(310,567,o),
(286,576,o),
(207,642,cs),
(175,667,o),
(146,704,o),
(159,742,c),
(84,766,l),
(36,621,o),
(230,524,o),
(361,446,cs),
(380,434,o),
(396,424,o),
(409,417,c),
(327,348,o),
(207,272,o),
(127,343,cs),
(84,381,l),
(31,322,l)
);
}
);
width = 567;
}
);
note = uni09E8;
unicode = 2536;
},
{
glyphname = uni09E9;
lastChange = "2025-10-08 14:35:11 +0000";
layers = (
{
layerId = m01;
shapes = (
{
closed = 1;
nodes = (
(593,56,o),
(665,212,o),
(652,396,cs),
(640,515,o),
(600,632,o),
(494,681,cs),
(258,793,o),
(165,453,o),
(389,391,c),
(410,467,l),
(292,499,o),
(330,678,o),
(464,608,cs),
(535,570,o),
(564,484,o),
(574,390,cs),
(583,287,o),
(573,147,o),
(411,136,cs),
(225,136,o),
(131,405,o),
(99,595,c),
(21,582,l),
(61,339,o),
(180,56,o),
(408,56,cs)
);
}
);
width = 685;
}
);
note = uni09E9;
unicode = 2537;
},
{
glyphname = uni09EA;
lastChange = "2025-10-08 14:36:14 +0000";
layers = (
{
layerId = m01;
shapes = (
{
closed = 1;
nodes = (
(382,347,o),
(479,292,o),
(479,217,cs),
(479,49,o),
(162,41,o),
(152,205,cs),
(152,312,o),
(253,358,o),
(311,374,c)
);
},
{
closed = 1;
nodes = (
(441,731,o),
(441,578,cs),
(437,524.667,o),
(395.333,484.667,o),
(316,458,c),
(258,483,o),
(202,525,o),
(202,580,cs),
(202,713,o)
);
},
{
closed = 1;
nodes = (
(558,-51,o),
(558,211,cs),
(558,299,o),
(508,362,o),
(413,414,c),
(493,460.667,o),
(518.667,524.333,o),
(520,575,cs),
(520,828,o),
(123,820,o),
(123,583,cs),
(123,521,o),
(155,466,o),
(216,422,c),
(129,377,o),
(73,304,o),
(73,200,cs),
(88,-65,o)
);
}
);
width = 579;
}
);
note = uni09EA;
unicode = 2538;
},
{
glyphname = uni09EB;
lastChange = "2025-10-08 14:36:46 +0000";
layers = (
{
layerId = m01;
shapes = (
{
closed = 1;
nodes = (
(355,238,o),
(382,162,o),
(440,104,c),
(272,87,o),
(125,208,o),
(142,377,cs),
(147.333,484.333,o),
(209,570.333,o),
(327,635,c),
(341.667,560.333,o),
(384,515,o),
(448,483,c),
(396,438.333,o),
(367,383.667,o),
(361,319,cs)
);
},
{
closed = 1;
nodes = (
(420,678.333,o),
(439,685.667,o),
(459,693,c),
(432,767,l),
(235,698,o),
(76,590,o),
(63,382,cs),
(45,66,o),
(365,-28,o),
(549,48,c),
(551,121,l),
(474,157,o),
(432,242,o),
(440,311,cs),
(450,397,o),
(513.333,455.667,o),
(630,487,c),
(611,564,l),
(581,556,o),
(553.333,546,o),
(528,534,c),
(441.333,567.333,o),
(407.333,597.667,o),
(402,671,c)
);
}
);
width = 651;
}
);
note = uni09EB;
unicode = 2539;
},
{
glyphname = uni09EC;
lastChange = "2025-10-08 14:37:49 +0000";
layers = (
{
layerId = m01;
shapes = (
{
closed = 1;
nodes = (
(706,24,o),
(741,411,o),
(609,548,c),
(544,533,l),
(492,384,o),
(385,316,o),
(382,424,cs),
(382,573,o),
(438,699,o),
(294,737,c),
(274,660,l),
(348,641,o),
(304,490,o),
(304,431,cs),
(304,263,o),
(475,213,o),
(586,431,c),
(633,291,o),
(586,103,o),
(415,103,cs),
(232,103,o),
(150,373,o),
(141,582,c),
(62,579,l),
(74,320,o),
(182,24,o),
(415,24,cs)
);
}
);
width = 743;
}
);
note = uni09EC;
unicode = 2540;
},
{
glyphname = uni09ED;
lastChange = "2025-10-08 14:38:34 +0000";
layers = (
{
layerId = m01;
shapes = (
{
closed = 1;
nodes = (
(375.333,663,o),
(400,635,o),
(400,581,cs),
(400,415,l),
(340,410,o),
(216,404,o),
(163,451,cs),
(92,512,o),
(197,665,o),
(322,665,cs),
(326,665,l),
(326,665,l),
(326,665,l)
);
},
{
closed = 1;
nodes = (
(488,7,o),
(558,24,c),
(539,101,l),
(510,92,o),
(480,101,o),
(480,148,cs),
(480,581,ls),
(480,678.333,o),
(422.333,741.333,o),
(329,744,cs),
(98,744,o),
(-4,499,o),
(110,393,cs),
(183,326,o),
(318,327,o),
(400,335,c),
(400,148,ls),
(400,36,o)
);
}
);
width = 579;
}
);
note = uni09ED;
unicode = 2541;
},
{
glyphname = uni09EE;
lastChange = "2025-10-08 14:39:30 +0000";
layers = (
{
layerId = m01;
shapes = (
{
closed = 1;
nodes = (
(259,428,o),
(451,448,o),
(410,275,cs),
(380,142,o),
(191,34,o),
(191,197,cs),
(191,380,l)
);
},
{
closed = 1;
nodes = (
(191,701,o),
(113,753,o),
(42,753,c),
(41,674,l),
(73,672.667,o),
(112,656.333,o),
(112,599,cs),
(112,197,ls),
(112,-65,o),
(433,23,o),
(487,257,cs),
(499,309,o),
(501,372,o),
(466,422,c),
(525,457,o),
(541,522,o),
(635,540,c),
(619,617,l),
(474,589,o),
(482,502,o),
(394,477,c),
(331,502,o),
(255,496,o),
(191,469,c),
(191,599,l)
);
}
);
width = 635;
}
);
note = uni09EE;
unicode = 2542;
},
{
glyphname = uni09EF;
lastChange = "2025-10-08 14:40:52 +0000";
layers = (
{
layerId = m01;
shapes = (
{
closed = 1;
nodes = (
(521,53,o),
(612,179,o),
(612,299,cs),
(612,448,o),
(475,506,o),
(340,568,cs),
(284,594,o),
(121,650,o),
(180,715,c),
(120,767,l),
(91,734,o),
(79,700,o),
(86,664,cs),
(101,597,o),
(166,561,o),
(307,496,cs),
(406,451,o),
(532,406,o),
(532,297,cs),
(532,229,o),
(493,166,o),
(425,129,c),
(426,260,o),
(393,371,o),
(271,390,cs),
(18,420,o),
(-14,55,o),
(220,41,c),
(223,120,l),
(96,124,o),
(123,337,o),
(259,312,cs),
(354,298,o),
(348,171,o),
(344,101,c),
(358,23,l)
);
}
);
width = 664;
}
);
note = uni09EF;
unicode = 2543;
},
{
glyphname = uni09F3;
lastChange = "2025-10-08 14:41:50 +0000";
layers = (
{
layerId = m01;
shapes = (
{
closed = 1;
nodes = (
(292,531,l),
(233,531,l),
(233,607,ls),
(233,732,o),
(169,801,o),
(50,764,c),
(72,696,l),
(145,718,o),
(162,682,o),
(162,607,cs),
(162,531,l),
(62,531,l),
(62,460,l),
(162,460,l),
(162,195,ls),
(162,-10,o),
(349,21,o),
(485,175,cs),
(545.667,243,o),
(579.667,307.333,o),
(587,368,cs),
(607,529,o),
(463,591,o),
(355,493,c),
(404,441,l),
(457,489,o),
(519,473,o),
(519,400,cs),
(519,341,o),
(479,277,o),
(432,223,cs),
(363,145,o),
(233,53,o),
(233,195,cs),
(233,460,l),
(292,460,l)
);
}
);
width = 651;
}
);
note = uni09F3;
unicode = 2547;
},
{
glyphname = uni20B9;
lastChange = "2025-10-08 14:42:13 +0000";
layers = (
{
layerId = m01;
shapes = (
{
closed = 1;
nodes = (
(575,716,l),
(49,716,l),
(49,644,l),
(263,644,l),
(345,630.667,o),
(391.667,591,o),
(403,525,c),
(49,525,l),
(49,453,l),
(389,453,l),
(323,358,o),
(171,329,o),
(52,337,c),
(43,267,l),
(140.333,251,o),
(338.333,108.667,o),
(461,6,c),
(507,61,l),
(399,147.667,o),
(328.333,205.333,o),
(211,272,c),
(314,300,o),
(432,352,o),
(467,453,c),
(575,453,l),
(575,525,l),
(475,525,l),
(470.333,571.667,o),
(452,611.333,o),
(420,644,c),
(575,644,l)
);
}
);
width = 611;
}
);
note = uni20B9;
unicode = 8377;
},
{
glyphname = uni09F2;
lastChange = "2025-10-08 12:05:32 +0000";
layers = (
{
layerId = m01;
shapes = (
{
closed = 1;
nodes = (
(333,107.333,o),
(355.333,145.333,o),
(370,178,cs),
(381.333,203.333,o),
(387,230.667,o),
(387,260,cs),
(387,269.333,o),
(386.333,278.667,o),
(385,288,cs),
(373,381.333,o),
(309.5,444.167,o),
(239.5,479.5,cs),
(204.5,497.167,o),
(160.333,515.667,o),
(107,535,cs),
(89.667,541.667,o),
(76,547,o),
(66,551,c),
(40,484,l),
(49.333,480.667,o),
(63.667,475.333,o),
(83,468,cs),
(177.667,433.333,o),
(231.167,410.5,o),
(274.5,364.5,cs),
(296.167,341.5,o),
(309.333,312.667,o),
(314,278,cs),
(314.667,272,o),
(315,266,o),
(315,260,cs),
(315,240,o),
(310.667,220.667,o),
(302,202,cs),
(290.667,176.667,o),
(271.333,144,o),
(244,104,c),
(303,64,l),
(303,64,l),
(303,64,l)
);
}
);
width = 446;
}
);
note = uni09F2;
unicode = 2546;
},
{
glyphname = uni09F4;
lastChange = "2025-10-08 12:05:32 +0000";
layers = (
{
layerId = m01;
shapes = (
{
closed = 1;
nodes = (
(319.667,229,o),
(435.167,298.167,o),
(522.5,401.5,cs),
(566.167,453.167,o),
(612.333,519,o),
(661,599,c),
(600,637,l),
(488,453,o),
(398,354.667,o),
(274,316,cs),
(240.667,305.333,o),
(204,300,o),
(164,300,cs),
(130,300,o),
(93.333,304,o),
(54,312,c),
(40,242,l),
(84,233.333,o),
(125.667,229,o),
(165,229,cs)
);
}
);
width = 721;
}
);
note = uni09F4;
unicode = 2548;
},
{
glyphname = uni09F5;
lastChange = "2025-10-08 14:43:23 +0000";
layers = (
{
layerId = m01;
shapes = (
{
closed = 1;
nodes = (
(142,196,o),
(84,235,c),
(40,186,l),
(382,-152,o),
(679,337,o),
(784,547,c),
(720,579,l),
(618,377,o),
(418,75,o),
(204,153,c),
(283,170,o),
(386,230,o),
(386,359,cs),
(380,530,o),
(124,573,o),
(53,388,c),
(120,363,l),
(159,463,o),
(315,463,o),
(315,356,cs),
(315,227,o)
);
}
);
width = 804;
}
);
note = uni09F5;
unicode = 2549;
},
{
glyphname = uni09F6;
lastChange = "2025-10-08 14:44:10 +0000";
layers = (
{
layerId = m01;
shapes = (
{
closed = 1;
nodes = (
(335.333,61,o),
(500.667,134.167,o),
(638,273.5,cs),
(706.667,343.167,o),
(759.667,426.333,o),
(797,523,c),
(730,549,l),
(648,336,o),
(411,133,o),
(215,133,cs),
(175,133,o),
(120,140,o),
(113,189,cs),
(101,279,o),
(298,258,o),
(368,351,cs),
(498,530,o),
(170,718,o),
(71,459,c),
(138,433,l),
(211,615,o),
(401,451,o),
(294,376,cs),
(218,317,o),
(19,340,o),
(42,178,cs),
(58,92,o),
(134,61,o),
(210,61,cs)
);
}
);
width = 817;
}
);
note = uni09F6;
unicode = 2550;
},
{
glyphname = uni09F7;
lastChange = "2025-10-08 12:05:32 +0000";
layers = (
{
layerId = m01;
shapes = (
{
closed = 1;
nodes = (
(80,726,l),
(80,0,l),
(151,0,l),
(151,726,l),
(151,726,l),
(151,726,l)
);
}
);
width = 231;
}
);
note = uni09F7;
unicode = 2551;
},
{
glyphname = uni09F8;
lastChange = "2025-10-08 14:44:38 +0000";
layers = (
{
layerId = m01;
shapes = (
{
closed = 1;
nodes = (
(535,479,o),
(408,526,o),
(332,450,cs),
(172,278,l),
(172,552,ls),
(172,622,o),
(138,680,o),
(66,680,c),
(66,608,l),
(93,608,o),
(101,583,o),
(101,548,cs),
(101,187,l),
(163,163,l),
(384,402,ls),
(414,434,o),
(464,411,o),
(464,371,cs),
(464,1,l),
(535,1,l),
(535,371,l)
);
}
);
width = 615;
}
);
note = uni09F8;
unicode = 2552;
},
{
glyphname = uni09F9;
lastChange = "2025-10-08 12:05:32 +0000";
layers = (
{
layerId = m01;
shapes = (
{
closed = 1;
nodes = (
(301.333,471,o),
(347,425.333,o),
(347,368,cs),
(347,348,ls),
(347,292,o),
(301.333,245,o),
(244,245,cs),
(188,245,o),
(141,292,o),
(141,348,cs),
(141,368,ls),
(141,425.333,o),
(188,471,o),
(244,471,cs)
);
},
{
closed = 1;
nodes = (
(341.59,174,o),
(418,252.439,o),
(418,348,cs),
(418,368,ls),
(418,463.561,o),
(341.59,542,o),
(244,542,cs),
(148.112,542,o),
(70,463.888,o),
(70,368,cs),
(70,348,ls),
(70,252.112,o),
(148.112,174,o),
(244,174,cs)
);
}
);
width = 488;
}
);
note = uni09F9;
unicode = 2553;
},
{
glyphname = uni099509CD0995.akhn;
lastChange = "2025-10-08 14:47:16 +0000";
layers = (
{
layerId = m01;
shapes = (
{
closed = 1;
nodes = (
(61,464,l),
(235,328,l),
(74,286,l),
(62,223,l),
(414,-29,l),
(414,-98,l),
(485,-98,l),
(485,309,l),
(664,305,o),
(728,150,o),
(578,142,c),
(581,71,l),
(817,83,o),
(777,373,o),
(485,381,c),
(485,559,l),
(595,556,o),
(703,490,o),
(642,396,c),
(699,357,l),
(800,494,o),
(655,625,o),
(485,631,c),
(485,691,l),
(804,691,l),
(804,763,l),
(-9,763,l),
(-9,691,l),
(414,691,l),
(414,622,l),
(74,526,l)
);
},
{
closed = 1;
nodes = (
(414,548,l),
(414,373,l),
(322,350,l),
(161,477,l)
);
},
{
closed = 1;
nodes = (
(414,300,l),
(414,59,l),
(166,236,l)
);
}
);
width = 795;
}
);
note = uni099509CD0995.akhn;
},
{
glyphname = uni099509CD099F.akhn;
lastChange = "2025-10-08 14:46:41 +0000";
layers = (
{
layerId = m01;
shapes = (
{
closed = 1;
nodes = (
(416,691,l),
(416,634,l),
(73,509,l),
(61,449,l),
(309,219,l),
(161,-56,o),
(450,-182,o),
(647,-40,cs),
(848,125,o),
(640,317,o),
(466,156,c),
(515,104,l),
(620,203,o),
(726,110,o),
(603,17,cs),
(503,-63,o),
(232,-59,o),
(392,221,cs),
(466,353,o),
(487,397,o),
(488,571,c),
(676,562,o),
(725,368,o),
(580,357,c),
(584,286,l),
(819,302,o),
(773,631,o),
(488,642,c),
(488,691,l),
(805,691,l),
(805,763,l),
(718,763,l),
(740,993,o),
(584,997,o),
(352,931,cs),
(297,915,o),
(228,913,o),
(251,991,c),
(184,1014,l),
(141,890,o),
(245,826,o),
(372,863,cs),
(539,908,o),
(667,943,o),
(646,763,c),
(-9,763,l),
(-9,691,l)
);
},
{
closed = 1;
nodes = (
(416,426,o),
(403,387,o),
(345,284,c),
(153,462,l),
(416,558,l)
);
}
);
width = 796;
}
);
note = uni099509CD099F.akhn;
},
{
glyphname = uni099509CD099F09CD09F0.akhn;
lastChange = "2025-10-08 12:05:32 +0000";
layers = (
{
layerId = m01;
shapes = (
{
closed = 1;
nodes = (
(416,691,l),
(416,620,l),
(73,497,l),
(61,437,l),
(266,251,l),
(238,211.667,o),
(224,175.667,o),
(224,143,cs),
(224,109.667,o),
(238,76.667,o),
(266,44,cs),
(304.667,0,o),
(371,-21,o),
(447,-21,cs),
(495.667,-21,o),
(541.333,-12.667,o),
(584,4,c),
(584,-110,l),
(557.333,-99.333,o),
(525.333,-94,o),
(488,-94,cs),
(465.333,-94,o),
(431.333,-96.667,o),
(386,-102,cs),
(344.667,-106.667,o),
(315.333,-109,o),
(298,-109,cs),
(288.667,-109,o),
(280,-108.333,o),
(272,-107,cs),
(219.333,-101,o),
(184.667,-76,o),
(168,-32,c),
(100,-57,l),
(128,-127.667,o),
(182.667,-168.333,o),
(264,-179,cs),
(274.667,-179.667,o),
(285.667,-180,o),
(297,-180,cs),
(319,-180,o),
(351.667,-177.333,o),
(395,-172,cs),
(437,-167.333,o),
(467.333,-165,o),
(486,-165,cs),
(530,-165,o),
(562.667,-174,o),
(584,-192,c),
(584,-201,l),
(655,-201,l),
(655,48,l),
(689.667,80,o),
(707,113.667,o),
(707,149,cs),
(707,168.333,o),
(701.667,186,o),
(691,202,cs),
(671,234,o),
(628,256,o),
(572,256,cs),
(528,256,o),
(480.333,243,o),
(429,217,c),
(462,154,l),
(502,174,o),
(538.667,184,o),
(572,184,cs),
(601.333,184,o),
(624,175,o),
(632,163,cs),
(634.667,159,o),
(636,154.667,o),
(636,150,cs),
(636,132,o),
(622.667,112.667,o),
(596,92,cs),
(565.333,65.333,o),
(507.667,50,o),
(449,50,cs),
(393,50,o),
(344,64,o),
(320,92,cs),
(304,110,o),
(296,127.333,o),
(296,144,cs),
(296,157.333,o),
(301,172.333,o),
(311,189,cs),
(321,205.667,o),
(338,228.667,o),
(362,258,cs),
(442,356.667,o),
(487,425.333,o),
(487,536,cs),
(487,560,l),
(595,557.333,o),
(661.667,497.333,o),
(663,448,cs),
(663,444,ls),
(663,408,o),
(630.667,384.667,o),
(580,382,c),
(584,311,l),
(682.667,316.333,o),
(735,375,o),
(735,443,cs),
(735,452,ls),
(728.333,542.667,o),
(635,626.667,o),
(487,632,c),
(487,691,l),
(805,691,l),
(805,763,l),
(718,763,l),
(719.333,779,o),
(720,793.667,o),
(720,807,cs),
(720,863.667,o),
(705,905.667,o),
(675,933,cs),
(648.333,957.667,o),
(609.667,970,o),
(559,970,cs),
(508.333,970,o),
(439.333,957.667,o),
(352,933,cs),
(333.333,927.667,o),
(316,925,o),
(300,925,cs),
(278.667,925,o),
(263.333,929.667,o),
(254,939,cs),
(248.667,945,o),
(246,953.333,o),
(246,964,cs),
(246,973.333,o),
(247.667,982.667,o),
(251,992,c),
(184,1016,l),
(177.333,997.333,o),
(174,979.667,o),
(174,963,cs),
(174,933.667,o),
(183.333,909.333,o),
(202,890,cs),
(225.333,865.333,o),
(258,853,o),
(300,853,cs),
(322.667,853,o),
(346.667,856.667,o),
(372,864,cs),
(453.333,886.667,o),
(516,898,o),
(560,898,cs),
(591.333,898,o),
(613.667,892,o),
(627,880,cs),
(641.667,867.333,o),
(649,843.667,o),
(649,809,cs),
(649,795.667,o),
(648,780.333,o),
(646,763,c),
(-9,763,l),
(-9,691,l),
(-9,691,l),
(-9,691,l)
);
},
{
closed = 1;
nodes = (
(416,544,l),
(416,536,ls),
(416,449.333,o),
(378,390.667,o),
(310,308,c),
(153,450,l),
(153,450,l),
(153,450,l)
);
}
);
width = 796;
}
);
note = uni099509CD099F09CD09F0.akhn;
},
{
glyphname = uni099509CD09A4.akhn;
lastChange = "2025-10-08 12:05:32 +0000";
layers = (
{
layerId = m01;
shapes = (
{
closed = 1;
nodes = (
(-9,763,l),
(-9,691,l),
(1001,691,l),
(1001,763,l),
(1001,763,l),
(1001,763,l)
);
},
{
closed = 1;
nodes = (
(600,189.667,o),
(599.333,184.333,o),
(598,179,cs),
(588.667,121.667,o),
(532,73,o),
(452,73,cs),
(381.333,73,o),
(317.5,101.667,o),
(260.5,159,cs),
(203.5,216.333,o),
(160.667,330,o),
(132,500,c),
(61,488,l),
(98.333,269.333,o),
(167.167,126.833,o),
(270.5,55.5,cs),
(322.167,19.833,o),
(382.667,2,o),
(452,2,cs),
(570.667,2,o),
(654.333,77.667,o),
(669,167,cs),
(670.333,177,o),
(671,186.667,o),
(671,196,cs),
(671,246.667,o),
(649,290.333,o),
(605,327,c),
(622.333,346.333,o),
(634,359.333,o),
(640,366,cs),
(667.333,396.667,o),
(688,417.333,o),
(702,428,cs),
(717.333,439.333,o),
(737.333,445,o),
(762,445,cs),
(770,445,ls),
(794,443,o),
(813.667,434.333,o),
(829,419,cs),
(851.667,396.333,o),
(866,358,o),
(866,322,cs),
(866,308,o),
(864,295,o),
(860,283,cs),
(852.667,261,o),
(839.667,244,o),
(821,232,cs),
(811,225.333,o),
(799,222,o),
(785,222,cs),
(777.667,222,o),
(769,223,o),
(759,225,c),
(743,155,l),
(762.333,151,o),
(777.333,149,o),
(788,149,cs),
(792,149,o),
(796,149.333,o),
(800,150,c),
(820.667,150,o),
(840.667,156,o),
(860,168,cs),
(895.333,191.333,o),
(919,222.333,o),
(931,261,cs),
(936.333,280.333,o),
(939,300.333,o),
(939,321,cs),
(939,338.333,o),
(937,355.333,o),
(933,372,cs),
(921.667,414.667,o),
(903.667,447.667,o),
(879,471,cs),
(851,499,o),
(811,515,o),
(771,515,cs),
(764,515,ls),
(748,515,o),
(731,512.333,o),
(713,507,cs),
(703,503,o),
(694,499.333,o),
(686,496,cs),
(675.333,490,o),
(667,484.333,o),
(661,479,cs),
(659.667,477.667,o),
(658.333,476.667,o),
(657,476,c),
(653.667,490.667,o),
(648.333,504.667,o),
(641,518,cs),
(603,585.333,o),
(537.333,621.333,o),
(444,626,cs),
(437,626,ls),
(361,626,o),
(296,584,o),
(272,520,cs),
(265.333,502.667,o),
(262,485,o),
(262,467,cs),
(262,413,o),
(289,362,o),
(343,314,c),
(389,369,l),
(352.333,400.333,o),
(334,432.667,o),
(334,466,cs),
(334,476,o),
(335.667,485.667,o),
(339,495,cs),
(352.333,531,o),
(391,555,o),
(435,555,cs),
(442,555,ls),
(508,551.667,o),
(553.333,528.667,o),
(578,486,cs),
(585.333,472,o),
(589,458.333,o),
(589,445,cs),
(589,431,o),
(585.333,418.667,o),
(578,408,cs),
(560.667,381.333,o),
(529,368,o),
(483,368,cs),
(477.667,368,o),
(472.333,368.333,o),
(467,369,c),
(463,298,l),
(467.667,297.333,o),
(474.667,297,o),
(484,297,cs),
(494,297,o),
(503.667,297.333,o),
(513,298,c),
(567.667,276.667,o),
(600,239,o),
(600,195,cs)
);
}
);
width = 1001;
}
);
note = uni099509CD09A4.akhn;
},
{
glyphname = uni099509CD09A409CD09F1.akhn;
lastChange = "2025-10-08 12:05:32 +0000";
layers = (
{
layerId = m01;
shapes = (
{
closed = 1;
nodes = (
(-9,763,l),
(-9,691,l),
(997,691,l),
(997,763,l),
(997,763,l),
(997,763,l)
);
},
{
closed = 1;
nodes = (
(588,158,l),
(636,189.333,o),
(663,227.333,o),
(669,272,cs),
(670.333,277.333,o),
(671,282.667,o),
(671,288,cs),
(671,328,o),
(652.333,367.333,o),
(611,398,c),
(613,400,o),
(616,403.667,o),
(620,409,c),
(626.667,414.333,o),
(632.667,420.667,o),
(638,428,cs),
(645,435,ls),
(666.333,460.333,o),
(685.667,479.333,o),
(703,492,cs),
(717,502.667,o),
(735.333,508,o),
(758,508,cs),
(765,508,ls),
(788.333,505.333,o),
(806.333,497,o),
(819,483,cs),
(839,463,o),
(851,428.333,o),
(851,395,cs),
(851,381.667,o),
(849.333,369.667,o),
(846,359,cs),
(840,338.333,o),
(829,322.667,o),
(813,312,cs),
(803.667,306,o),
(792.667,303,o),
(780,303,cs),
(772.667,303,o),
(764.667,303.667,o),
(756,305,c),
(741,235,l),
(757,231.667,o),
(772,230,o),
(786,230,cs),
(794,230,ls),
(814.667,230.667,o),
(834,236.667,o),
(852,248,cs),
(885.333,270,o),
(907.667,299.667,o),
(919,337,cs),
(924.333,355,o),
(927,374,o),
(927,394,cs),
(927,410,o),
(925,426.333,o),
(921,443,cs),
(911,482.333,o),
(894,513.333,o),
(870,536,cs),
(843.333,562.667,o),
(804.667,578,o),
(766,578,cs),
(747.333,578,o),
(729.333,575.333,o),
(712,570,cs),
(702.667,567.333,o),
(694,564,o),
(686,560,cs),
(676,554.667,o),
(667.667,549,o),
(661,543,cs),
(657.667,540.333,o),
(654.667,537.667,o),
(652,535,c),
(650,540.333,o),
(647.667,545.333,o),
(645,550,cs),
(609,611.333,o),
(542,644,o),
(444,648,cs),
(436,648,ls),
(353.333,648,o),
(287,607.333,o),
(267,546,cs),
(263.667,534.667,o),
(262,523,o),
(262,511,cs),
(262,461.667,o),
(290,417.667,o),
(346,379,c),
(386,438,l),
(350.667,462.667,o),
(333,487,o),
(333,511,cs),
(333,515.667,o),
(333.667,520,o),
(335,524,cs),
(344.333,552,o),
(385,577,o),
(437,577,cs),
(442,577,ls),
(516.667,574.333,o),
(566,548,o),
(582,516,cs),
(586,508,o),
(588,500.333,o),
(588,493,cs),
(588,485.667,o),
(586,479,o),
(582,473,cs),
(564.667,449,o),
(532.333,437,o),
(485,437,cs),
(467,437,l),
(463,366,l),
(467.667,365.333,o),
(474,365,o),
(482,365,cs),
(492.667,365,o),
(503,365.667,o),
(513,367,c),
(571,347.667,o),
(600,321.333,o),
(600,288,cs),
(600,286,o),
(599.667,283.667,o),
(599,281,cs),
(593.667,235.667,o),
(534.667,195,o),
(452,195,cs),
(281.333,195,o),
(179,305.333,o),
(131,540,c),
(61,526,l),
(106.333,302.667,o),
(203,172.667,o),
(351,136,c),
(209,81,l),
(205,16,l),
(516,-142,l),
(516,-201,l),
(588,-201,l),
(588,-201,l),
(588,-201,l)
);
},
{
closed = 1;
nodes = (
(516,123,l),
(516,-62,l),
(309,43,l),
(309,43,l),
(309,43,l)
);
}
);
width = 988;
}
);
note = uni099509CD09A409CD09F1.akhn;
},
{
glyphname = uni099509CD09A409CD09F0.akhn;
lastChange = "2025-10-08 12:05:32 +0000";
layers = (
{
layerId = m01;
shapes = (
{
closed = 1;
nodes = (
(641,206,l),
(653.667,224,o),
(663,246,o),
(669,272,cs),
(670.333,277.333,o),
(671,283,o),
(671,289,cs),
(671,327.667,o),
(652.333,368.333,o),
(611,399,c),
(623,411,ls),
(628.333,416.333,o),
(633,421.667,o),
(637,427,cs),
(639.667,430.333,o),
(642.333,433.333,o),
(645,436,cs),
(669,463.333,o),
(688.333,482.333,o),
(703,493,cs),
(717,503.667,o),
(735.333,509,o),
(758,509,cs),
(765,509,ls),
(783,509,o),
(801,500.667,o),
(819,484,cs),
(840.333,464,o),
(852,428.667,o),
(852,394,cs),
(852,381.333,o),
(850.333,369.667,o),
(847,359,cs),
(840.333,338.333,o),
(829,323,o),
(813,313,cs),
(802.333,306.333,o),
(790.667,303,o),
(778,303,cs),
(771.333,303,o),
(764,303.667,o),
(756,305,c),
(741,236,l),
(757,232.667,o),
(772,231,o),
(786,231,cs),
(794,231,ls),
(814.667,231,o),
(834,237,o),
(852,249,cs),
(885.333,271,o),
(907.667,300.333,o),
(919,337,cs),
(924.333,355.667,o),
(927,374.667,o),
(927,394,cs),
(927,410.667,o),
(925,427,o),
(921,443,cs),
(911,482.333,o),
(894,513.667,o),
(870,537,cs),
(843.333,563.667,o),
(803.333,579,o),
(766,579,cs),
(747.333,579,o),
(729.333,576.333,o),
(712,571,cs),
(691.333,564.333,o),
(671.333,552.667,o),
(652,536,c),
(650,541.333,o),
(647.667,546.333,o),
(645,551,cs),
(609,612.333,o),
(542,645,o),
(444,649,cs),
(439,649,ls),
(353.667,649,o),
(287,608.333,o),
(267,547,cs),
(263.667,535.667,o),
(262,523.667,o),
(262,511,cs),
(262,462.333,o),
(290,418.667,o),
(346,380,c),
(386,438,l),
(350.667,462.667,o),
(333,487.333,o),
(333,512,cs),
(333,516.667,o),
(333.667,521,o),
(335,525,cs),
(344.333,553,o),
(386.667,577,o),
(440,577,cs),
(442,577,ls),
(516.667,575.667,o),
(566,549,o),
(582,517,cs),
(586,508.333,o),
(588,500.667,o),
(588,494,cs),
(588,486.667,o),
(586,480,o),
(582,474,cs),
(564,450,o),
(531.333,438,o),
(484,438,cs),
(467,438,l),
(463,367,l),
(467.667,366.333,o),
(474,366,o),
(482,366,cs),
(492.667,366,o),
(503,366.667,o),
(513,368,c),
(571,348.667,o),
(600,322.333,o),
(600,289,cs),
(600,286.333,o),
(599.667,284,o),
(599,282,cs),
(583,230,o),
(534.667,196,o),
(452,196,cs),
(281.333,196,o),
(179,306.333,o),
(131,541,c),
(61,527,l),
(117,256.333,o),
(244,125,o),
(452,125,cs),
(496,125,o),
(535.333,133.333,o),
(570,150,c),
(570,14,l),
(533.333,34.667,o),
(492.667,45,o),
(448,45,cs),
(418.667,45,o),
(390,42,o),
(354,38,cs),
(324,34.667,o),
(303.333,33,o),
(292,33,cs),
(274,33,o),
(257.333,35,o),
(242,39,cs),
(184.667,55,o),
(153.667,90,o),
(149,144,c),
(77,137,l),
(87,51,o),
(135.667,-4.667,o),
(223,-30,cs),
(244.333,-36,o),
(267,-39,o),
(291,-39,cs),
(304.333,-39,o),
(335,-36.333,o),
(383,-31,cs),
(415.667,-27.667,o),
(437.667,-26,o),
(449,-26,cs),
(491.667,-26,o),
(528.667,-37,o),
(570,-73,c),
(570,-107,l),
(641,-107,l),
(641,-107,l),
(641,-107,l)
);
},
{
closed = 1;
nodes = (
(-9,763,l),
(-9,691,l),
(997,691,l),
(997,763,l),
(997,763,l),
(997,763,l)
);
}
);
width = 988;
}
);
note = uni099509CD09A409CD09F0.akhn;
},
{
glyphname = uni099509CD09A8.akhn;
lastChange = "2025-10-08 12:05:32 +0000";
layers = (
{
layerId = m01;
shapes = (
{
closed = 1;
nodes = (
(61,437,l),
(203,296,l),
(145.667,274,o),
(110,224,o),
(96,146,cs),
(94,133.333,o),
(93,121,o),
(93,109,cs),
(93,43.667,o),
(119,-10.667,o),
(163,-40,cs),
(184.333,-54,o),
(208,-61,o),
(234,-61,cs),
(260,-61,o),
(285.333,-53.667,o),
(310,-39,c),
(272,22,l),
(259.333,14,o),
(246.667,10,o),
(234,10,cs),
(222.667,10,o),
(212,13,o),
(202,19,cs),
(180.667,33.667,o),
(164,65.333,o),
(164,108,cs),
(164,117.333,o),
(164.667,126.667,o),
(166,136,cs),
(175.333,185.333,o),
(195,216,o),
(225,228,cs),
(229.667,229.333,o),
(234.333,230,o),
(239,230,cs),
(253.667,230,o),
(269.333,224,o),
(286,212,c),
(417,81,l),
(417,-37,l),
(489,-37,l),
(489,558,l),
(591.667,552.667,o),
(658.667,486,o),
(664,410,cs),
(665,401,l),
(665,354.333,o),
(638.333,316,o),
(581,312,c),
(586,240,l),
(675.333,248,o),
(736,313,o),
(736,401,cs),
(736,405.667,o),
(735.667,410.333,o),
(735,415,cs),
(727,524.333,o),
(631.667,624.667,o),
(489,630,c),
(489,691,l),
(807,691,l),
(807,763,l),
(-9,763,l),
(-9,691,l),
(417,691,l),
(417,619,l),
(75,496,l),
(75,496,l),
(75,496,l)
);
},
{
closed = 1;
nodes = (
(417,543,l),
(417,182,l),
(152,448,l),
(152,448,l),
(152,448,l)
);
}
);
width = 798;
}
);
note = uni099509CD09A8.akhn;
},
{
glyphname = uni099509CD09A8.akhn.alt;
lastChange = "2025-10-08 12:05:32 +0000";
layers = (
{
layerId = m01;
shapes = (
{
closed = 1;
nodes = (
(61,468,l),
(413,207,l),
(413,145,l),
(366,182,ls),
(322,218,o),
(278.333,236,o),
(235,236,cs),
(218.333,236,o),
(202.667,233.333,o),
(188,228,cs),
(137.333,207.333,o),
(105.333,168.333,o),
(92,111,cs),
(90,99.667,o),
(89,88.667,o),
(89,78,cs),
(89,33.333,o),
(106.333,-3.333,o),
(141,-32,cs),
(167,-51.333,o),
(196.333,-61,o),
(229,-61,cs),
(255.667,-61,o),
(280.333,-55.333,o),
(303,-44,c),
(272,20,l),
(258,13.333,o),
(243.667,10,o),
(229,10,cs),
(211.667,10,o),
(197,15,o),
(185,25,cs),
(169,37.667,o),
(161,55,o),
(161,77,cs),
(161,83.667,o),
(161.667,90.333,o),
(163,97,cs),
(169.667,129,o),
(186.333,150.333,o),
(213,161,cs),
(219.667,163.667,o),
(227,165,o),
(235,165,cs),
(261.667,165,o),
(290.333,152.333,o),
(321,127,cs),
(413,53,l),
(413,-47,l),
(485,-47,l),
(485,558,l),
(587.667,552.667,o),
(654.333,487.333,o),
(661,410,cs),
(661,401,ls),
(661,354.333,o),
(634.667,316,o),
(576,312,c),
(581,240,l),
(671.667,248,o),
(733,313,o),
(733,401,cs),
(733,405.667,o),
(732.667,410.333,o),
(732,415,cs),
(722.667,524.333,o),
(627.667,624.667,o),
(485,630,c),
(485,691,l),
(802,691,l),
(802,763,l),
(-9,763,l),
(-9,691,l),
(413,691,l),
(413,621,l),
(74,531,l),
(74,531,l),
(74,531,l)
);
},
{
closed = 1;
nodes = (
(413,547,l),
(413,296,l),
(164,481,l),
(164,481,l),
(164,481,l)
);
}
);
width = 793;
}
);
note = uni099509CD09A8.akhn.alt;
},
{
glyphname = uni099509CD09F1.blwf;
lastChange = "2025-10-08 12:05:32 +0000";
layers = (
{
layerId = m01;
shapes = (
{
closed = 1;
nodes = (
(61,464,l),
(235,328,l),
(75,286,l),
(63,223,l),
(414,-29,l),
(414,-98,l),
(485,-98,l),
(485,559,l),
(587.667,553.667,o),
(655.333,487,o),
(662,411,cs),
(662,404,ls),
(662,356,o),
(635.667,317,o),
(577,313,c),
(582,241,l),
(672.667,249,o),
(733,312.667,o),
(733,402,cs),
(733,416,l),
(723.667,525.333,o),
(629,625.667,o),
(485,631,c),
(485,691,l),
(804,691,l),
(804,763,l),
(-9,763,l),
(-9,691,l),
(414,691,l),
(414,622,l),
(74,526,l),
(74,526,l),
(74,526,l)
);
},
{
closed = 1;
nodes = (
(414,373,l),
(323,350,l),
(161,476,l),
(414,548,l),
(414,548,l),
(414,548,l)
);
},
{
closed = 1;
nodes = (
(414,300,l),
(414,59,l),
(167,236,l),
(167,236,l),
(167,236,l)
);
}
);
width = 795;
}
);
note = uni099509CD09F1.blwf;
},
{
glyphname = uni099509CD09AE.akhn;
lastChange = "2025-10-08 12:05:32 +0000";
layers = (
{
layerId = m01;
shapes = (
{
closed = 1;
nodes = (
(61,438,l),
(296,203,l),
(291.333,199.667,o),
(287,196,o),
(283,192,cs),
(252.333,160,o),
(234,113.333,o),
(234,68,cs),
(234,35.333,o),
(242,7.333,o),
(258,-16,cs),
(288.667,-61.333,o),
(336.667,-83,o),
(390,-83,cs),
(430.667,-83,o),
(468.667,-72.333,o),
(504,-51,c),
(468,11,l),
(444,-3.667,o),
(418.333,-11,o),
(391,-11,cs),
(357.667,-11,o),
(333,1,o),
(317,25,cs),
(309,35.667,o),
(305,50,o),
(305,68,cs),
(305,98,o),
(314.333,122.333,o),
(333,141,cs),
(349,157,o),
(370.333,165,o),
(397,165,cs),
(439.667,165,o),
(490.333,145.333,o),
(549,106,cs),
(823,-81,l),
(823,-98,l),
(894,-98,l),
(894,691,l),
(982,691,l),
(982,763,l),
(-9,763,l),
(-9,691,l),
(417,691,l),
(417,619,l),
(75,497,l),
(75,497,l),
(75,497,l)
);
},
{
closed = 1;
nodes = (
(553.667,188.333,o),
(520.333,206,o),
(489,218,c),
(489,559,l),
(591.667,553.667,o),
(658.667,487,o),
(664,411,cs),
(665,402,l),
(665,355.333,o),
(638.333,317,o),
(581,313,c),
(586,241,l),
(675.333,247.667,o),
(736,312.667,o),
(736,402,cs),
(736,406.667,o),
(735.667,411.333,o),
(735,416,cs),
(727,525.333,o),
(631.667,625.667,o),
(489,631,c),
(489,691,l),
(823,691,l),
(823,5,l),
(589,165,l),
(589,165,l),
(589,165,l)
);
},
{
closed = 1;
nodes = (
(417,235,l),
(410.333,235.667,o),
(403.667,236,o),
(397,236,cs),
(386.333,236,o),
(376,235.333,o),
(366,234,c),
(152,448,l),
(417,543,l),
(417,543,l),
(417,543,l)
);
}
);
width = 973;
}
);
note = uni099509CD09AE.akhn;
},
{
glyphname = uni099509CD09F0.blwf;
lastChange = "2025-10-08 12:05:32 +0000";
layers = (
{
layerId = m01;
shapes = (
{
closed = 1;
nodes = (
(-9,763,l),
(-9,691,l),
(943,691,l),
(943,763,l),
(943,763,l),
(943,763,l)
);
},
{
closed = 1;
nodes = (
(589,363,l),
(606.333,395.667,o),
(630,418,o),
(660,430,cs),
(674.667,436.667,o),
(690,440,o),
(706,440,cs),
(714.667,440,o),
(722.667,439,o),
(730,437,cs),
(753.333,430.333,o),
(771.667,418,o),
(785,400,cs),
(801.667,376,o),
(810,348,o),
(810,316,cs),
(810,294.667,o),
(805.333,276,o),
(796,260,cs),
(780.667,232,o),
(757.667,218,o),
(727,218,cs),
(712.333,218,o),
(697,221,o),
(681,227,c),
(654,161,l),
(680.667,149.667,o),
(706.333,144,o),
(731,144,cs),
(743.667,144,o),
(756,145.667,o),
(768,149,cs),
(808,158.333,o),
(843.667,189,o),
(861,225,cs),
(875.667,254.333,o),
(883,285,o),
(883,317,cs),
(883,361.667,o),
(870,403.333,o),
(844,442,cs),
(819.333,475.333,o),
(786,497,o),
(744,507,cs),
(734,509,o),
(723.667,510,o),
(713,510,cs),
(685.667,510,o),
(658,503.667,o),
(630,491,cs),
(614.667,484.333,o),
(601,475.333,o),
(589,464,c),
(589,514,ls),
(589,568,o),
(569.667,603.667,o),
(531,621,cs),
(516.333,628.333,o),
(499.667,632,o),
(481,632,cs),
(425,632,o),
(356,599,o),
(312,563,cs),
(266.667,525.667,o),
(241,476,o),
(241,428,cs),
(241,407.333,o),
(245.333,388.333,o),
(254,371,cs),
(274,329.667,o),
(317,301,o),
(377,301,cs),
(392.333,301,o),
(408.333,302.667,o),
(425,306,c),
(409,376,l),
(397.667,373.333,o),
(387,372,o),
(377,372,cs),
(347,372,o),
(327.333,382,o),
(318,402,cs),
(314.667,409.333,o),
(313,417.667,o),
(313,427,cs),
(313,456.333,o),
(328,483.333,o),
(358,508,cs),
(392.667,536,o),
(448.667,560,o),
(482,560,cs),
(489.333,560,o),
(495.667,559,o),
(501,557,cs),
(511.667,551.667,o),
(517,537,o),
(517,513,cs),
(517,149,l),
(463.667,177,o),
(409.667,182.333,o),
(319,185,cs),
(275.667,186.333,o),
(248.333,187.667,o),
(237,189,cs),
(198.333,194.333,o),
(169.667,214,o),
(151,248,cs),
(139,270.667,o),
(133,296.667,o),
(133,326,cs),
(133,360,o),
(140.667,394.667,o),
(156,430,c),
(91,459,l),
(71.667,415,o),
(62,371,o),
(62,327,cs),
(62,285,o),
(71,247.333,o),
(89,214,cs),
(119,160,o),
(165,128.333,o),
(227,119,cs),
(241,117,o),
(271,115.333,o),
(317,114,cs),
(421,110,o),
(474.333,103.333,o),
(517,62,c),
(517,1,l),
(589,1,l),
(589,1,l),
(589,1,l)
);
}
);
width = 934;
}
);
note = uni099509CD09F0.blwf;
},
{
glyphname = uni099509CD09B2.akhn;
lastChange = "2025-10-08 12:05:32 +0000";
layers = (
{
layerId = m01;
shapes = (
{
closed = 1;
nodes = (
(512,559,l),
(616,555,o),
(683.333,488.333,o),
(690,411,cs),
(690,402,ls),
(690,355.333,o),
(663.667,317,o),
(605,313,c),
(611,241,l),
(700.333,249,o),
(762,314,o),
(762,402,cs),
(762,406.667,o),
(761.667,411.333,o),
(761,416,cs),
(751.667,525.333,o),
(656,627,o),
(512,631,c),
(512,691,l),
(832,691,l),
(832,763,l),
(-9,763,l),
(-9,691,l),
(441,691,l),
(441,620,l),
(98,497,l),
(88,435,l),
(441,158,l),
(441,133,l),
(423,145,o),
(404.333,151,o),
(385,151,cs),
(361.667,151,o),
(338,142.333,o),
(314,125,c),
(287.333,166.333,o),
(239.667,191,o),
(189,191,cs),
(145,191,o),
(103,171.667,o),
(79,133,cs),
(61.667,105.667,o),
(53,74.667,o),
(53,40,cs),
(53,-29.333,o),
(89.333,-91.333,o),
(152,-110,cs),
(167.333,-114.667,o),
(183.333,-117,o),
(200,-117,cs),
(215.333,-117,o),
(230,-115.667,o),
(244,-113,c),
(229,-43,l),
(219,-44.333,o),
(209.667,-45,o),
(201,-45,cs),
(170.333,-45,o),
(149,-34.333,o),
(137,-13,c),
(128.333,7.667,o),
(124,27,o),
(124,45,cs),
(124,90.333,o),
(154.667,120,o),
(192,120,cs),
(233.333,120,o),
(269.667,84.333,o),
(275,15,c),
(346,23,l),
(346,33,ls),
(347.333,66.333,o),
(363.333,83,o),
(394,83,cs),
(397,83,ls),
(415,81,o),
(429.667,68.333,o),
(441,45,c),
(441,-98,l),
(512,-98,l),
(512,-98,l),
(512,-98,l)
);
},
{
closed = 1;
nodes = (
(441,544,l),
(441,249,l),
(183,452,l),
(183,452,l),
(183,452,l)
);
}
);
width = 823;
}
);
note = uni099509CD09B2.akhn;
},
{
glyphname = uni099509CD09B7.akhn;
lastChange = "2025-10-08 12:05:32 +0000";
layers = (
{
layerId = m01;
shapes = (
{
closed = 1;
nodes = (
(475,511.667,o),
(467.333,511,o),
(460,511,cs),
(436.667,511,o),
(417.667,516.667,o),
(403,528,cs),
(365.667,557.333,o),
(353.667,617.667,o),
(351,691,c),
(483,691,l),
(483,513,l),
(483,513,l),
(483,513,l)
);
},
{
closed = 1;
nodes = (
(387,450.667,o),
(420.667,440,o),
(460,440,cs),
(467.333,440,o),
(475,440.333,o),
(483,441,c),
(483,210,l),
(418.333,290.667,o),
(352,331,o),
(284,331,cs),
(281,331,l),
(285.667,343.667,o),
(288,357.333,o),
(288,372,cs),
(288,378,o),
(287.667,384,o),
(287,390,cs),
(279,456.667,o),
(230,518.667,o),
(170,540,c),
(164,540.667,o),
(159.667,541.333,o),
(157,542,c),
(166.333,562,o),
(171,582.333,o),
(171,603,cs),
(171,631,o),
(162.333,660.333,o),
(145,691,c),
(280,691,l),
(284,596.333,o),
(299,517.333,o),
(359,472,cs)
);
},
{
closed = 1;
nodes = (
(99,573.333,o),
(82,548,o),
(46,512,cs),
(35,501,l),
(87,452,l),
(95,460,ls),
(105.667,469.333,o),
(117.333,474,o),
(130,474,cs),
(135.333,474,o),
(141.333,473,o),
(148,471,cs),
(181.333,460.333,o),
(212,421.667,o),
(216,383,cs),
(217,374,l),
(217,341.333,o),
(199,314.667,o),
(163,294,c),
(198,232,l),
(199,232,l),
(229.667,250,o),
(257.667,259,o),
(283,259,cs),
(343,259,o),
(404.333,210,o),
(483,86,c),
(483,1,l),
(554,1,l),
(554,454,l),
(572,456.667,o),
(588.667,458,o),
(604,458,cs),
(652.667,458,o),
(687.333,446,o),
(708,422,cs),
(718.667,410,o),
(724,396.333,o),
(724,381,cs),
(724,373.667,o),
(723,366.667,o),
(721,360,cs),
(710.333,333.333,o),
(687.333,317.667,o),
(652,313,c),
(662,241,l),
(724,251.667,o),
(765.667,283,o),
(787,335,cs),
(793,350.333,o),
(796,365.667,o),
(796,381,cs),
(796,414.333,o),
(784.667,443.667,o),
(762,469,cs),
(727.333,509,o),
(675,529,o),
(605,529,cs),
(589,529,o),
(572,528,o),
(554,526,c),
(554,691,l),
(866,691,l),
(866,763,l),
(-9,763,l),
(-9,691,l),
(60,691,l),
(86,657.667,o),
(99,628.667,o),
(99,604,cs)
);
}
);
width = 857;
}
);
note = uni099509CD09B7.akhn;
},
{
glyphname = uni099509CD09B709CD09A3.akhn;
lastChange = "2025-10-08 12:05:32 +0000";
layers = (
{
layerId = m01;
shapes = (
{
closed = 1;
nodes = (
(492,523.667,o),
(484.333,523,o),
(477,523,cs),
(452.333,523,o),
(432.667,528.667,o),
(418,540,cs),
(383.333,566.667,o),
(371.667,623,o),
(369,691,c),
(500,691,l),
(500,525,l),
(500,525,l),
(500,525,l)
);
},
{
closed = 1;
nodes = (
(401.333,462.667,o),
(435.333,452,o),
(476,452,cs),
(484,452,o),
(492,452.333,o),
(500,453,c),
(500,306,l),
(475.333,326.667,o),
(447.333,342.667,o),
(416,354,cs),
(384.667,365.333,o),
(351,371,o),
(315,371,cs),
(302.333,371,o),
(289.667,370.333,o),
(277,369,c),
(281,382.333,o),
(283,396,o),
(283,410,cs),
(283,416,o),
(282.667,422.333,o),
(282,429,cs),
(276.667,493,o),
(229,553,o),
(169,573,cs),
(163,575,l),
(174.333,594.333,o),
(180,614,o),
(180,634,cs),
(180,652.667,o),
(175,671.667,o),
(165,691,c),
(296,691,l),
(301.333,603,o),
(316.667,528,o),
(374,484,cs)
);
},
{
closed = 1;
nodes = (
(108,622,o),
(103.5,610,o),
(94.5,598,cs),
(85.5,586,o),
(70,569,o),
(48,547,cs),
(35,534,l),
(87,485,l),
(97,495,ls),
(107,503.667,o),
(118,508,o),
(130,508,cs),
(135.333,508,o),
(141,507,o),
(147,505,cs),
(180.333,494.333,o),
(208,459.333,o),
(212,422,c),
(212,413,ls),
(212,380.333,o),
(193.667,353.333,o),
(157,332,c),
(192,269,l),
(230.667,289.667,o),
(271.333,300,o),
(314,300,cs),
(341.333,300,o),
(367,295.667,o),
(391,287,cs),
(442.333,269,o),
(478.667,237.333,o),
(500,192,c),
(500,116,l),
(446,159,ls),
(402,195,o),
(358.333,213,o),
(315,213,cs),
(298.333,213,o),
(282.667,210.333,o),
(268,205,cs),
(216.667,185,o),
(184.667,145.667,o),
(172,87,cs),
(170,76.333,o),
(169,65.333,o),
(169,54,cs),
(169,10,o),
(186.667,-26.333,o),
(222,-55,cs),
(246.667,-74.333,o),
(276,-84,o),
(310,-84,cs),
(336,-84,o),
(360.333,-78.333,o),
(383,-67,c),
(351,-3,l),
(337.667,-9.667,o),
(324,-13,o),
(310,-13,cs),
(292.667,-13,o),
(277.667,-8.333,o),
(265,1,cs),
(248.333,13.667,o),
(240,31.667,o),
(240,55,cs),
(240,61,o),
(240.667,67.333,o),
(242,74,cs),
(249.333,106,o),
(266,127,o),
(292,137,cs),
(299.333,140.333,o),
(307.333,142,o),
(316,142,cs),
(341.333,142,o),
(369.667,129.333,o),
(401,104,cs),
(500,24,l),
(500,-98,l),
(571,-98,l),
(571,465,l),
(588.333,467,o),
(604.667,468,o),
(620,468,cs),
(671.333,468,o),
(707.333,456.333,o),
(728,433,cs),
(736.667,421.667,o),
(741,409.667,o),
(741,397,cs),
(741,390.333,o),
(739.667,384,o),
(737,378,cs),
(727,352.667,o),
(704.333,337.333,o),
(669,332,c),
(678,261,l),
(740.667,270.333,o),
(782.667,300.667,o),
(804,352,cs),
(809.333,366.667,o),
(812,381.667,o),
(812,397,cs),
(812,427.667,o),
(801.667,455.333,o),
(781,480,cs),
(745,520,o),
(691.667,540,o),
(621,540,cs),
(605,540,o),
(588.333,539,o),
(571,537,c),
(571,691,l),
(875,691,l),
(875,763,l),
(-9,763,l),
(-9,691,l),
(80,691,l),
(98.667,669,o),
(108,650,o),
(108,634,cs)
);
}
);
width = 866;
}
);
note = uni099509CD09B709CD09A3.akhn;
},
{
glyphname = uni099509CD09B709CD09F1.akhn;
lastChange = "2025-10-08 12:05:32 +0000";
layers = (
{
layerId = m01;
shapes = (
{
closed = 1;
nodes = (
(474,511.667,o),
(466.333,511,o),
(459,511,cs),
(435.667,511,o),
(416.667,516.667,o),
(402,528,cs),
(364.667,557.333,o),
(353.667,617.667,o),
(351,691,c),
(482,691,l),
(482,513,l),
(482,513,l),
(482,513,l)
);
},
{
closed = 1;
nodes = (
(385.333,450.667,o),
(418.667,440,o),
(458,440,cs),
(466,440,o),
(474,440.333,o),
(482,441,c),
(482,301,l),
(446,287,l),
(388.667,341,o),
(331,371,o),
(273,377,c),
(279,391.667,o),
(282,406.667,o),
(282,422,cs),
(282,426,o),
(281.667,430,o),
(281,434,cs),
(277,491.333,o),
(235.333,545,o),
(178,565,cs),
(169.333,567.667,o),
(163.667,569,o),
(161,569,c),
(167,583.667,o),
(170,598.667,o),
(170,614,cs),
(170,638,o),
(162.333,663.667,o),
(147,691,c),
(279,691,l),
(283,596.333,o),
(299.333,517.333,o),
(358,472,cs)
);
},
{
closed = 1;
nodes = (
(482,39,l),
(275,144,l),
(482,225,l),
(482,225,l),
(482,225,l)
);
},
{
closed = 1;
nodes = (
(99,593,o),
(84,575.667,o),
(48,541,cs),
(35,528,l),
(85,478,l),
(88.333,481.333,o),
(92,484.667,o),
(96,488,cs),
(106.667,496.667,o),
(118.667,501,o),
(132,501,cs),
(139.333,501,o),
(147,499.667,o),
(155,497,cs),
(187,483.667,o),
(205.333,460.667,o),
(210,428,c),
(210,422,ls),
(210,395.333,o),
(192,371.667,o),
(156,351,c),
(190,289,l),
(211.333,300.333,o),
(233,306,o),
(255,306,cs),
(291.667,306,o),
(330,290,o),
(370,258,c),
(175,182,l),
(172,117,l),
(482,-41,l),
(482,-100,l),
(554,-100,l),
(554,454,l),
(571.333,456.667,o),
(587.667,458,o),
(603,458,cs),
(651.667,458,o),
(686.667,446,o),
(708,422,cs),
(718.667,410,o),
(724,396.333,o),
(724,381,cs),
(724,373.667,o),
(722.667,366.667,o),
(720,360,cs),
(709.333,333.333,o),
(686.667,317.667,o),
(652,313,c),
(661,241,l),
(723,251,o),
(765,282.333,o),
(787,335,cs),
(792.333,349.667,o),
(795,365,o),
(795,381,cs),
(795,413.667,o),
(784,442.667,o),
(762,468,cs),
(732.667,501.333,o),
(683,529,o),
(603,529,cs),
(587,529,o),
(570.667,528,o),
(554,526,c),
(554,691,l),
(856,691,l),
(856,763,l),
(-9,763,l),
(-9,691,l),
(60,691,l),
(86,660.333,o),
(99,635.667,o),
(99,617,cs)
);
}
);
width = 847;
}
);
note = uni099509CD09B709CD09F1.akhn;
},
{
glyphname = uni099509CD09B709CD09AE.akhn;
lastChange = "2025-10-08 12:05:32 +0000";
layers = (
{
layerId = m01;
shapes = (
{
closed = 1;
nodes = (
(172,544,l),
(172,545,l),
(170,545,l),
(170,545,l),
(170,545,l)
);
},
{
closed = 1;
nodes = (
(168.333,545.667,o),
(163.667,546.667,o),
(157,548,c),
(166.333,568,o),
(171,588.333,o),
(171,609,cs),
(171,635,o),
(163.667,662.333,o),
(149,691,c),
(280,691,l),
(284,599,o),
(301.667,522,o),
(359,478,cs),
(386.333,456.667,o),
(419.667,446,o),
(459,446,cs),
(467,446,o),
(475,446.333,o),
(483,447,c),
(483,233,l),
(478.333,233,o),
(473.333,233.333,o),
(468,234,c),
(409.333,302,o),
(348,336,o),
(284,336,cs),
(281,336,l),
(285.667,349.333,o),
(288,363,o),
(288,377,cs),
(288,383.667,o),
(287.667,390,o),
(287,396,cs),
(283,429.333,o),
(270,460,o),
(248,488,cs),
(226,516,o),
(200.333,535,o),
(171,545,cs)
);
},
{
closed = 1;
nodes = (
(615,184.333,o),
(584,201,o),
(554,213,c),
(554,460,l),
(571.333,462.667,o),
(587.667,464,o),
(603,464,cs),
(651.667,464,o),
(686.667,452,o),
(708,428,cs),
(718.667,416,o),
(724,402,o),
(724,386,cs),
(724,379.333,o),
(723,372.333,o),
(721,365,c),
(710.333,339,o),
(687.333,323.333,o),
(652,318,c),
(662,247,l),
(724,257,o),
(765.667,288.333,o),
(787,341,cs),
(793,355.667,o),
(796,371,o),
(796,387,cs),
(796,419.667,o),
(784.667,448.667,o),
(762,474,cs),
(726.667,514.667,o),
(673.667,535,o),
(603,535,cs),
(587.667,535,o),
(571.333,534,o),
(554,532,c),
(554,691,l),
(881,691,l),
(881,3,l),
(647,163,l),
(647,163,l),
(647,163,l)
);
},
{
closed = 1;
nodes = (
(475,517.667,o),
(467.333,517,o),
(460,517,cs),
(436.667,517,o),
(417.667,522.667,o),
(403,534,cs),
(373,557.333,o),
(355.667,609.667,o),
(351,691,c),
(483,691,l),
(483,519,l),
(483,519,l),
(483,519,l)
);
},
{
closed = 1;
nodes = (
(99,579.667,o),
(82,554,o),
(46,518,cs),
(35,507,l),
(87,458,l),
(95,466,ls),
(105.667,475.333,o),
(117.333,480,o),
(130,480,cs),
(135.333,480,o),
(141.333,479,o),
(148,477,cs),
(181.333,465,o),
(212,426.667,o),
(216,388,cs),
(217,380,l),
(217,347.333,o),
(199,320.667,o),
(163,300,c),
(198,238,l),
(228.667,256,o),
(257,265,o),
(283,265,cs),
(316.333,265,o),
(349.667,249.667,o),
(383,219,c),
(367.667,211.667,o),
(353.667,202,o),
(341,190,cs),
(310.333,159.333,o),
(293,112.667,o),
(293,66,cs),
(293,34,o),
(301,6.333,o),
(317,-17,cs),
(346.333,-63.667,o),
(394.333,-85,o),
(449,-85,cs),
(489,-85,o),
(527,-74.333,o),
(563,-53,c),
(527,9,l),
(503,-5.667,o),
(477.333,-13,o),
(450,-13,cs),
(416.667,-13,o),
(392,-1,o),
(376,23,cs),
(368,34.333,o),
(364,49,o),
(364,67,cs),
(364,97,o),
(373.333,121,o),
(392,139,cs),
(408,155,o),
(429.333,163,o),
(456,163,cs),
(498,163,o),
(548.333,143.333,o),
(607,104,cs),
(881,-84,l),
(881,-98,l),
(953,-98,l),
(953,691,l),
(1041,691,l),
(1041,763,l),
(-9,763,l),
(-9,691,l),
(64,691,l),
(87.333,660.333,o),
(99,633,o),
(99,609,cs)
);
}
);
width = 1032;
}
);
note = uni099509CD09B709CD09AE.akhn;
},
{
glyphname = uni099509CD09B8.akhn;
lastChange = "2025-10-08 12:05:32 +0000";
layers = (
{
layerId = m01;
shapes = (
{
closed = 1;
nodes = (
(63,435,l),
(407,164,l),
(391,154,o),
(379.333,147,o),
(372,143,cs),
(342,125,o),
(313,116,o),
(285,116,cs),
(219.667,117.333,o),
(165.333,144.333,o),
(112,195,c),
(65,143,l),
(101,111,o),
(133,86.333,o),
(161,69,cs),
(191.667,51,o),
(227,42,o),
(267,42,cs),
(281,42,ls),
(329.667,44,o),
(372.667,56.333,o),
(410,79,cs),
(418,83.667,o),
(433,93.167,o),
(455,107.5,cs),
(477,121.833,o),
(493.667,131.667,o),
(505,137,cs),
(525.667,147,o),
(547.667,152,o),
(571,152,cs),
(608.333,152,o),
(646.333,139,o),
(685,113,cs),
(737.667,76.333,o),
(784,24,o),
(824,-44,c),
(824,-98,l),
(895,-98,l),
(895,691,l),
(983,691,l),
(983,763,l),
(-9,763,l),
(-9,691,l),
(416,691,l),
(416,619,l),
(73,497,l),
(73,497,l),
(73,497,l)
);
},
{
closed = 1;
nodes = (
(795.333,106.333,o),
(762,141.333,o),
(724,170,cs),
(685.333,197.333,o),
(646,214.667,o),
(606,222,cs),
(595.333,224,o),
(584,225,o),
(572,225,cs),
(543.333,225,o),
(515,219.333,o),
(487,208,c),
(487,559,l),
(589.667,556.333,o),
(656.667,502,o),
(662,438,cs),
(662,432,ls),
(662,393.333,o),
(635,360,o),
(575,356,c),
(581,284,l),
(679.667,292,o),
(733,358.333,o),
(733,433,cs),
(733,444,l),
(725,538.667,o),
(631,627.333,o),
(487,630,c),
(487,691,l),
(824,691,l),
(824,65,l),
(824,65,l),
(824,65,l)
);
},
{
closed = 1;
nodes = (
(416,543,l),
(416,248,l),
(158,451,l),
(158,451,l),
(158,451,l)
);
}
);
width = 974;
}
);
note = uni099509CD09B8.akhn;
},
{
glyphname = uni099609CD09F1.blwf;
lastChange = "2025-10-08 12:05:32 +0000";
layers = (
{
layerId = m01;
shapes = (
{
closed = 1;
nodes = (
(267,405,l),
(328.333,427.667,o),
(376,465.333,o),
(410,518,cs),
(429.333,548,o),
(439,579.667,o),
(439,613,cs),
(439,665,o),
(416.333,714.667,o),
(371,762,c),
(315,758,l),
(276,697,ls),
(256,666.333,o),
(216.667,649,o),
(174,649,cs),
(146.667,649,o),
(122.333,655.667,o),
(101,669,c),
(62,609,l),
(94.667,588.333,o),
(131.667,578,o),
(173,578,cs),
(239.667,578,o),
(302.667,607.333,o),
(336,658,cs),
(348,677,l),
(360.667,655.667,o),
(367,634.333,o),
(367,613,cs),
(367,593,o),
(361.333,573.667,o),
(350,555,cs),
(316.667,501.667,o),
(242,461,o),
(182,461,cs),
(170.667,461,o),
(160.333,462.333,o),
(151,465,c),
(124,399,l),
(356,278,l),
(218,237,l),
(208,174,l),
(523,-40,l),
(523,-101,l),
(594,-101,l),
(594,691,l),
(682,691,l),
(682,763,l),
(523,763,l),
(523,327,l),
(455,307,l),
(455,307,l),
(455,307,l)
);
},
{
closed = 1;
nodes = (
(523,252,l),
(523,47,l),
(311,190,l),
(311,190,l),
(311,190,l)
);
}
);
width = 673;
}
);
note = uni099609CD09F1.blwf;
},
{
glyphname = uni099609CD09F1.blwf.alt;
lastChange = "2025-10-08 12:05:32 +0000";
layers = (
{
layerId = m01;
shapes = (
{
closed = 1;
nodes = (
(265,404,l),
(326.333,426,o),
(374.667,463.333,o),
(410,516,cs),
(429.333,546.667,o),
(439,579.333,o),
(439,614,cs),
(439,666.667,o),
(416.667,717,o),
(372,765,c),
(315,760,l),
(276,699,ls),
(260.667,675.667,o),
(236.667,660.333,o),
(204,653,cs),
(193.333,651,o),
(183,650,o),
(173,650,cs),
(145.667,650,o),
(121.667,657,o),
(101,671,c),
(62,611,l),
(95.333,589,o),
(132.333,578,o),
(173,578,cs),
(188.333,578,o),
(203.667,580,o),
(219,584,cs),
(271,594.667,o),
(310.333,620,o),
(337,660,cs),
(348,679,l),
(360.667,656.333,o),
(367,634.667,o),
(367,614,cs),
(367,592.667,o),
(361,572.333,o),
(349,553,cs),
(313,495.667,o),
(239.667,459,o),
(181,459,cs),
(169.667,459,o),
(159.667,460.333,o),
(151,463,c),
(124,398,l),
(350,279,l),
(219,240,l),
(209,176,l),
(523,-37,l),
(523,-98,l),
(594,-98,l),
(594,691,l),
(682,691,l),
(682,763,l),
(523,763,l),
(523,329,l),
(447,307,l),
(447,307,l),
(447,307,l)
);
},
{
closed = 1;
nodes = (
(523,255,l),
(523,49,l),
(311,193,l),
(311,193,l),
(311,193,l)
);
}
);
width = 673;
}
);
note = uni099609CD09F1.blwf.alt;
},
{
glyphname = uni099609CD09F0.blwf;
lastChange = "2025-10-08 12:05:32 +0000";
layers = (
{
layerId = m01;
shapes = (
{
closed = 1;
nodes = (
(310.667,368.667,o),
(357,400.333,o),
(395,451,cs),
(425.667,495,o),
(441,541.667,o),
(441,591,cs),
(441,650.333,o),
(419,707.667,o),
(375,763,c),
(316,758,l),
(277,687,ls),
(260.333,657,o),
(235,638,o),
(201,630,cs),
(193,628.667,o),
(184.667,628,o),
(176,628,cs),
(150,628,o),
(126.333,635.667,o),
(105,651,c),
(62,595,l),
(95.333,569,o),
(133,556,o),
(175,556,cs),
(188.333,556,o),
(201.667,557.667,o),
(215,561,cs),
(270.333,573,o),
(312,603.333,o),
(340,652,cs),
(350,671,l),
(362.667,644.333,o),
(369,618,o),
(369,592,cs),
(369,556.667,o),
(358,523.333,o),
(336,492,cs),
(298.667,440,o),
(236,404,o),
(184,404,cs),
(173.333,404,o),
(163.667,405.333,o),
(155,408,c),
(124,344,l),
(525,146,l),
(525,48,l),
(492.333,69.333,o),
(457.333,80,o),
(420,80,cs),
(400.667,80,o),
(373.667,76.333,o),
(339,69,cs),
(306.333,62.333,o),
(282,59,o),
(266,59,cs),
(250.667,59,o),
(236.333,60.667,o),
(223,64,cs),
(171,80,o),
(142.333,115.333,o),
(137,170,c),
(66,164,l),
(74.667,78,o),
(120.333,22.333,o),
(203,-3,cs),
(223.667,-9.667,o),
(245,-13,o),
(267,-13,cs),
(287.667,-13,o),
(316.333,-9.333,o),
(353,-2,cs),
(383,4.667,o),
(405,8,o),
(419,8,cs),
(456.333,8,o),
(487.667,-6.333,o),
(525,-45,c),
(525,-98,l),
(596,-98,l),
(596,691,l),
(667,691,l),
(667,763,l),
(525,763,l),
(525,227,l),
(256,356,l),
(256,356,l),
(256,356,l)
);
}
);
width = 658;
}
);
note = uni099609CD09F0.blwf;
},
{
glyphname = uni099609CD09F0.blwf.alt;
lastChange = "2025-10-08 12:05:32 +0000";
layers = (
{
layerId = m01;
shapes = (
{
closed = 1;
nodes = (
(305,368.667,o),
(350.667,400.333,o),
(388,451,cs),
(419.333,495,o),
(435,542,o),
(435,592,cs),
(435,651.333,o),
(413.333,708.333,o),
(370,763,c),
(308,753,l),
(288.667,701,o),
(269.5,659.5,o),
(250.5,628.5,cs),
(231.5,597.5,o),
(211,582,o),
(189,582,cs),
(187,582,o),
(184.667,582.333,o),
(182,583,cs),
(171.333,583.667,o),
(162.667,588.333,o),
(156,597,cs),
(148,608.333,o),
(144,626,o),
(144,650,cs),
(144,669.333,o),
(146.667,693,o),
(152,721,c),
(83,734,l),
(76.333,702,o),
(73,673.667,o),
(73,649,cs),
(73,610.333,o),
(81.333,579,o),
(98,555,cs),
(114.667,531.667,o),
(139.333,517,o),
(172,511,cs),
(177.333,510.333,o),
(183,510,o),
(189,510,cs),
(259.667,510,o),
(309,573,o),
(349,661,c),
(359,637.667,o),
(364,614.667,o),
(364,592,cs),
(364,556,o),
(352.667,522.667,o),
(330,492,cs),
(292.667,440,o),
(231,404,o),
(179,404,cs),
(168.333,404,o),
(158.333,405.333,o),
(149,408,c),
(119,344,l),
(519,147,l),
(519,48,l),
(486.333,69.333,o),
(451.333,80,o),
(414,80,cs),
(395.333,80,o),
(368.333,76.333,o),
(333,69,cs),
(299.667,62.333,o),
(275.333,59,o),
(260,59,cs),
(245.333,59,o),
(231.333,60.667,o),
(218,64,cs),
(165.333,80,o),
(136.333,115.333,o),
(131,170,c),
(60,164,l),
(69.333,78,o),
(115,22.333,o),
(197,-3,cs),
(217.667,-9.667,o),
(239.333,-13,o),
(262,-13,cs),
(281.333,-13,o),
(310,-9.333,o),
(348,-2,cs),
(378,4.667,o),
(400,8,o),
(414,8,cs),
(450,8,o),
(481.667,-6.333,o),
(519,-45,c),
(519,-98,l),
(591,-98,l),
(591,691,l),
(678,691,l),
(678,763,l),
(519,763,l),
(519,228,l),
(251,356,l),
(251,356,l),
(251,356,l)
);
}
);
width = 669;
}
);
note = uni099609CD09F0.blwf.alt;
},
{
glyphname = uni099709C1.blws;
lastChange = "2025-10-08 12:05:32 +0000";
layers = (
{
layerId = m01;
shapes = (
{
closed = 1;
nodes = (
(457.667,0,o),
(475.667,1.333,o),
(491,4,cs),
(555,18.667,o),
(604.667,50,o),
(640,98,cs),
(671.333,141.333,o),
(687,186,o),
(687,232,cs),
(687,237.333,o),
(686.667,242.667,o),
(686,248,cs),
(682,289.333,o),
(661.667,330,o),
(627,358,c),
(649,372.667,o),
(666,391.667,o),
(678,415,cs),
(690,440.333,o),
(696,467.333,o),
(696,496,cs),
(696,527.333,o),
(688.667,560.667,o),
(674,596,cs),
(646,664,o),
(617,718.667,o),
(587,760,c),
(528,758,l),
(451,635,l),
(429,663,ls),
(381,724.333,o),
(334.667,756.667,o),
(290,760,cs),
(282,760.667,o),
(274.333,761,o),
(267,761,cs),
(232.333,761,o),
(203.333,754,o),
(180,740,cs),
(139.333,714,o),
(111,678.333,o),
(95,633,cs),
(87,611,o),
(83,589.667,o),
(83,569,cs),
(83,546.333,o),
(87.667,524.333,o),
(97,503,c),
(134,483,l),
(170,487.667,o),
(200.667,490,o),
(226,490,cs),
(240,490,o),
(252.333,489.333,o),
(263,488,cs),
(293,484,o),
(311,476.667,o),
(317,466,cs),
(317.667,464,o),
(318,461.667,o),
(318,459,cs),
(318,450.333,o),
(314.667,437.333,o),
(308,420,cs),
(298.667,397.333,o),
(272.333,362.667,o),
(229,316,c),
(281,267,l),
(329,318.333,o),
(361.333,362.667,o),
(378,400,cs),
(386,420,o),
(390,438.667,o),
(390,456,cs),
(390,471.333,o),
(386.667,485.667,o),
(380,499,cs),
(358,540.333,o),
(306,561,o),
(224,561,cs),
(203.333,561,o),
(180.333,559.667,o),
(155,557,c),
(155,567,ls),
(155,585.667,o),
(159.667,605,o),
(169,625,cs),
(180.333,648.333,o),
(196.333,666,o),
(217,678,cs),
(231.667,686.667,o),
(246.333,691,o),
(261,691,cs),
(297,691,o),
(334.333,666.667,o),
(373,618,cs),
(427,552,l),
(485,555,l),
(558,672,l),
(582,630.667,o),
(600.333,589.333,o),
(613,548,cs),
(619,526.667,o),
(622,507.667,o),
(622,491,cs),
(622,474.333,o),
(619,459.333,o),
(613,446,cs),
(597.667,414.667,o),
(558,397.333,o),
(494,394,c),
(497,323,l),
(502,323,ls),
(570,323,o),
(607.667,295.667,o),
(615,241,c),
(615,234,ls),
(615,202,o),
(603.333,171.333,o),
(580,142,cs),
(554.667,110,o),
(521.333,90.667,o),
(480,84,cs),
(468,82.667,o),
(455.667,82,o),
(443,82,cs),
(415,82,o),
(384,86,o),
(350,94,cs),
(252.667,118,o),
(151,206.333,o),
(115,385,c),
(40,369,l),
(93.333,102.333,o),
(258.667,14.667,o),
(416,0,c),
(437,0,l),
(437,0,l),
(437,0,l)
);
}
);
width = 753;
}
);
note = uni099709C1.blws;
},
{
glyphname = uni099709C1.blws.alt;
lastChange = "2025-10-08 12:05:32 +0000";
layers = (
{
layerId = m01;
shapes = (
{
closed = 1;
nodes = (
(120,123.667,o),
(266.667,11.667,o),
(436,1,cs),
(450,0,ls),
(464,0,o),
(477.667,1.667,o),
(491,5,cs),
(555,19.667,o),
(604.667,51.333,o),
(640,100,cs),
(671.333,143.333,o),
(687,187.667,o),
(687,233,cs),
(687,238.333,o),
(686.667,243.667,o),
(686,249,cs),
(682,290.333,o),
(662,331,o),
(626,359,c),
(648.667,373.667,o),
(665.333,392.667,o),
(676,416,cs),
(688,440.667,o),
(694,467,o),
(694,495,cs),
(694,527,o),
(686.333,561,o),
(671,597,cs),
(641.667,665,o),
(612,720,o),
(582,762,c),
(523,761,l),
(441,638,l),
(405,675,ls),
(353,729.667,o),
(306,757.667,o),
(264,759,cs),
(256,759,ls),
(217.333,759,o),
(185.667,749.667,o),
(161,731,cs),
(125.667,703,o),
(102,666,o),
(90,620,cs),
(84.667,602,o),
(82,584.667,o),
(82,568,cs),
(82,543.333,o),
(87.333,520.667,o),
(98,500,cs),
(107.333,483.333,o),
(123.333,469.667,o),
(146,459,cs),
(154.667,455,o),
(164.667,453,o),
(176,453,cs),
(193.333,453,o),
(213.667,457.667,o),
(237,467,cs),
(255.667,475,o),
(271,479,o),
(283,479,cs),
(294.333,479,o),
(302.667,475.667,o),
(308,469,cs),
(312,463.667,o),
(314,456.333,o),
(314,447,cs),
(314,435,o),
(310.667,420,o),
(304,402,cs),
(293.333,370.667,o),
(271,336.333,o),
(237,299,c),
(290,251,l),
(334.667,299.667,o),
(364,347.333,o),
(378,394,cs),
(383.333,412.667,o),
(386,430,o),
(386,446,cs),
(386,470.667,o),
(379.333,492,o),
(366,510,cs),
(346,536,o),
(318.667,549,o),
(284,549,cs),
(262,549,o),
(237,543.667,o),
(209,533,cs),
(197,527.667,o),
(187,525,o),
(179,525,cs),
(169.667,525,o),
(163.333,528.333,o),
(160,535,cs),
(155.333,543.667,o),
(153,554,o),
(153,566,cs),
(153,578,o),
(155,591.333,o),
(159,606,cs),
(167.667,636,o),
(182.333,658.667,o),
(203,674,cs),
(216.333,684,o),
(230.333,689,o),
(245,689,cs),
(255.667,689,o),
(266,686.667,o),
(276,682,cs),
(302.667,670.667,o),
(328.333,651.667,o),
(353,625,cs),
(420,556,l),
(475,561,l),
(552,676,l),
(577.333,634,o),
(596.667,592,o),
(610,550,cs),
(617.333,528,o),
(621,508,o),
(621,490,cs),
(621,474,o),
(618,459.667,o),
(612,447,cs),
(596.667,415.667,o),
(557.333,398.667,o),
(494,396,c),
(497,324,l),
(502,324,ls),
(570,324,o),
(607.667,296.667,o),
(615,242,cs),
(615.667,238,o),
(616,234,o),
(616,230,cs),
(616,199.333,o),
(604.667,170.333,o),
(582,143,cs),
(557.333,111.667,o),
(523.333,92.667,o),
(480,86,cs),
(467.333,84,o),
(454.333,83,o),
(441,83,cs),
(417,83,o),
(391.333,86,o),
(364,92,cs),
(277.333,110.667,o),
(177.667,194,o),
(135,386,c),
(60,369,l),
(60,369,l),
(60,369,l)
);
}
);
width = 752;
}
);
note = uni099709C1.blws.alt;
},
{
glyphname = uni099709CD0997.akhn;
lastChange = "2025-10-08 12:05:32 +0000";
layers = (
{
layerId = m01;
shapes = (
{
closed = 1;
nodes = (
(308,552.667,o),
(282.667,562,o),
(250,562,c),
(249.333,562.667,o),
(248.667,563,o),
(248,563,cs),
(216,563,o),
(177.333,554,o),
(132,536,c),
(132,545,ls),
(132,572.333,o),
(137.333,598.333,o),
(148,623,cs),
(160,650.333,o),
(176.667,670,o),
(198,682,cs),
(212.667,690,o),
(228,694,o),
(244,694,cs),
(286,694,o),
(333,666.667,o),
(385,612,cs),
(485,509,l),
(485,292,l),
(452,326,ls),
(414.667,365.333,o),
(377.333,392,o),
(340,406,c),
(347.333,428.667,o),
(351,448.667,o),
(351,466,cs),
(351,472.667,o),
(350.667,479,o),
(350,485,cs),
(345.333,505.667,o),
(337.333,522,o),
(326,534,cs)
);
},
{
closed = 1;
nodes = (
(379,722.667,o),
(326.333,756,o),
(279,762,cs),
(267,763.333,o),
(255.667,764,o),
(245,764,cs),
(213,764,o),
(185.667,757.333,o),
(163,744,cs),
(121.667,720.667,o),
(92,683,o),
(74,631,cs),
(64,603,o),
(59,575,o),
(59,547,cs),
(59,523,o),
(62.667,499.333,o),
(70,476,c),
(119,454,l),
(164.333,474.667,o),
(200,486.667,o),
(226,490,cs),
(234,490.667,o),
(241,491,o),
(247,491,cs),
(261,491,o),
(270.333,488.667,o),
(275,484,cs),
(278.333,480.667,o),
(280,475.333,o),
(280,468,cs),
(280,456.667,o),
(275.667,439.333,o),
(267,416,c),
(246.333,414.667,o),
(227.333,408.667,o),
(210,398,cs),
(173.333,377.333,o),
(147.333,344,o),
(132,298,cs),
(123.333,273.333,o),
(119,248.667,o),
(119,224,cs),
(119,203.333,o),
(122,182.333,o),
(128,161,c),
(177,139,l),
(216.333,157.667,o),
(246.667,168,o),
(268,170,cs),
(274.667,170.667,o),
(280.667,171,o),
(286,171,cs),
(296.667,171,o),
(303.333,169.333,o),
(306,166,cs),
(307.333,164.667,o),
(308,162,o),
(308,158,cs),
(308,148,o),
(303,130.667,o),
(293,106,cs),
(279,71.333,o),
(250.667,30.667,o),
(208,-16,c),
(261,-65,l),
(313.667,-6.333,o),
(349,46.667,o),
(367,94,cs),
(375.667,116.667,o),
(380,137.333,o),
(380,156,cs),
(380,176,o),
(374.667,193.333,o),
(364,208,cs),
(348.667,228.667,o),
(326.667,240,o),
(298,242,cs),
(294,242.667,o),
(290,243,o),
(286,243,cs),
(259.333,243,o),
(227.333,236,o),
(190,222,c),
(190,270,o),
(211.667,317.333,o),
(245,336,cs),
(256.333,342,o),
(268.667,345,o),
(282,345,cs),
(316.667,345,o),
(356.333,322.333,o),
(401,277,cs),
(485,190,l),
(485,-99,l),
(556,-99,l),
(556,691,l),
(646,691,l),
(646,763,l),
(485,763,l),
(485,612,l),
(437,662,l),
(437,662,l),
(437,662,l)
);
}
);
width = 636;
}
);
note = uni099709CD0997.akhn;
},
{
glyphname = uni099709CD09A7.akhn;
lastChange = "2025-10-08 12:05:32 +0000";
layers = (
{
layerId = m01;
shapes = (
{
closed = 1;
nodes = (
(485,51,l),
(313,151,l),
(485,247,l),
(485,247,l),
(485,247,l)
);
},
{
closed = 1;
nodes = (
(379,722.667,o),
(326.333,756,o),
(279,762,cs),
(267,763.333,o),
(255.667,764,o),
(245,764,cs),
(213,764,o),
(185.667,757.333,o),
(163,744,cs),
(121.667,720.667,o),
(92,683,o),
(74,631,cs),
(64,603,o),
(59,575,o),
(59,547,cs),
(59,523,o),
(62.667,499.333,o),
(70,476,c),
(119,454,l),
(185,484,o),
(233,499,o),
(263,499,cs),
(269.667,499,o),
(273,498.667,o),
(273,498,c),
(273.667,496.667,o),
(274,495.333,o),
(274,494,cs),
(274,484,o),
(266,464.667,o),
(250,436,cs),
(232,403.333,o),
(199,360.667,o),
(151,308,c),
(204,259,l),
(297.333,362.333,o),
(344,441.333,o),
(344,496,cs),
(344,513.333,o),
(339.667,528,o),
(331,540,cs),
(317,560,o),
(294,570,o),
(262,570,cs),
(228.667,570,o),
(185.333,559,o),
(132,537,c),
(132,546,ls),
(132,572.667,o),
(137.333,598.333,o),
(148,623,cs),
(160,650.333,o),
(176.667,670.333,o),
(198,683,cs),
(212,690.333,o),
(227,694,o),
(243,694,cs),
(285,694,o),
(332.333,666.667,o),
(385,612,cs),
(485,509,l),
(485,329,l),
(223,183,l),
(222,121,l),
(485,-31,l),
(485,-67,l),
(556,-67,l),
(556,287,l),
(660,344,l),
(660,51,l),
(732,51,l),
(732,405,l),
(679,436,l),
(556,368,l),
(556,691,l),
(811,691,l),
(811,763,l),
(485,763,l),
(485,612,l),
(437,662,l),
(437,662,l),
(437,662,l)
);
}
);
width = 802;
}
);
note = uni099709CD09A7.akhn;
},
{
glyphname = uni099709CD09A709CD09F0.akhn;
lastChange = "2025-10-08 12:05:32 +0000";
layers = (
{
layerId = m01;
shapes = (
{
closed = 1;
nodes = (
(485,71,l),
(313,171,l),
(485,267,l),
(485,267,l),
(485,267,l)
);
},
{
closed = 1;
nodes = (
(557,307,l),
(660,364,l),
(660,71,l),
(732,71,l),
(732,425,l),
(679,456,l),
(557,388,l),
(557,691,l),
(811,691,l),
(811,763,l),
(485,763,l),
(485,612,l),
(437,662,ls),
(379,722.667,o),
(326.333,756,o),
(279,762,cs),
(267,763.333,o),
(255.667,764,o),
(245,764,cs),
(213,764,o),
(185.667,757.333,o),
(163,744,cs),
(121.667,720.667,o),
(92,683,o),
(74,631,cs),
(64,603,o),
(59,575,o),
(59,547,cs),
(59,523,o),
(62.667,499.333,o),
(70,476,c),
(119,454,l),
(185,484,o),
(233,499,o),
(263,499,cs),
(269.667,499,o),
(273,498.667,o),
(273,498,c),
(273.667,496.667,o),
(274,495.333,o),
(274,494,cs),
(274,484,o),
(266,464.667,o),
(250,436,cs),
(232,403.333,o),
(199,360.667,o),
(151,308,c),
(204,259,l),
(297.333,362.333,o),
(344,441.333,o),
(344,496,cs),
(344,513.333,o),
(339.667,528,o),
(331,540,cs),
(317,560,o),
(294,570,o),
(262,570,cs),
(228.667,570,o),
(185.333,559,o),
(132,537,c),
(132,546,ls),
(132,572.667,o),
(137.333,598.333,o),
(148,623,cs),
(160,650.333,o),
(176.667,670.333,o),
(198,683,cs),
(212,690.333,o),
(227,694,o),
(243,694,cs),
(285,694,o),
(332.333,666.667,o),
(385,612,cs),
(485,509,l),
(485,349,l),
(223,203,l),
(222,141,l),
(485,-11,l),
(485,-75,l),
(457.667,-57,o),
(428,-48,o),
(396,-48,cs),
(378,-48,o),
(353,-51.667,o),
(321,-59,cs),
(293,-65.667,o),
(272.333,-69,o),
(259,-69,cs),
(246.333,-69,o),
(234.333,-67.333,o),
(223,-64,cs),
(177.667,-48,o),
(152.667,-12.667,o),
(148,42,c),
(77,36,l),
(84.333,-49.333,o),
(125.333,-105.333,o),
(200,-132,cs),
(218.667,-138,o),
(238,-141,o),
(258,-141,cs),
(276,-141,o),
(302.667,-137,o),
(338,-129,cs),
(364.667,-122.333,o),
(384,-119,o),
(396,-119,cs),
(425.333,-119,o),
(453,-132.667,o),
(485,-170,c),
(485,-198,l),
(557,-198,l),
(557,-198,l),
(557,-198,l)
);
}
);
width = 802;
}
);
note = uni099709CD09A709CD09F0.akhn;
},
{
glyphname = uni099709CD09A8.akhn;
lastChange = "2025-10-08 12:05:32 +0000";
layers = (
{
layerId = m01;
shapes = (
{
closed = 1;
nodes = (
(340.667,741.667,o),
(283.667,772,o),
(227,772,cs),
(195.667,772,o),
(166.667,763,o),
(140,745,cs),
(93.333,713,o),
(62,652.667,o),
(62,598,cs),
(62,578.667,o),
(65.667,561,o),
(73,545,cs),
(85,519.667,o),
(113,491,o),
(165,491,cs),
(180.333,491,o),
(196.667,493.333,o),
(214,498,cs),
(233.333,504,o),
(246.333,507,o),
(253,507,cs),
(265,507,o),
(272.667,505,o),
(276,501,cs),
(281.333,496.333,o),
(284,491.667,o),
(284,487,cs),
(284,485,o),
(283.333,482.667,o),
(282,480,c),
(274,441.333,o),
(215,389,o),
(123,357,c),
(146,290,l),
(243.333,323.333,o),
(333.333,389.667,o),
(352,463,cs),
(354,471,o),
(355,479,o),
(355,487,cs),
(355,510.333,o),
(346,531.333,o),
(328,550,cs),
(310,569.333,o),
(285,579,o),
(253,579,cs),
(234.333,579,o),
(223.333,576.333,o),
(194,567,cs),
(182.667,563.667,o),
(173,562,o),
(165,562,cs),
(151,562,o),
(142,566.667,o),
(138,576,cs),
(134.667,582,o),
(133,589,o),
(133,597,cs),
(133,627.667,o),
(151.667,665.667,o),
(181,687,cs),
(195,696.333,o),
(210,701,o),
(226,701,cs),
(263.333,701,o),
(303.667,678,o),
(347,632,cs),
(466,508,l),
(466,145,l),
(411,189,ls),
(367,224.333,o),
(323.333,242,o),
(280,242,cs),
(264,242,o),
(248.667,239.333,o),
(234,234,cs),
(182.667,214,o),
(150.667,175,o),
(138,117,cs),
(135.333,106.333,o),
(134,95.333,o),
(134,84,cs),
(134,39.333,o),
(151.667,2.667,o),
(187,-26,cs),
(212.333,-45.333,o),
(241.667,-55,o),
(275,-55,cs),
(301,-55,o),
(325.333,-49,o),
(348,-37,c),
(317,27,l),
(303,20.333,o),
(289,17,o),
(275,17,cs),
(257.667,17,o),
(242.667,21.667,o),
(230,31,cs),
(214,43.667,o),
(206,61.333,o),
(206,84,cs),
(206,90,o),
(206.667,96.333,o),
(208,103,cs),
(214.667,135,o),
(231.333,156.667,o),
(258,168,c),
(265.333,170,o),
(272.667,171,o),
(280,171,cs),
(306.667,171,o),
(335.333,158.333,o),
(366,133,cs),
(466,53,l),
(466,-65,l),
(537,-65,l),
(537,691,l),
(625,691,l),
(625,763,l),
(466,763,l),
(466,611,l),
(398,681,l),
(398,681,l),
(398,681,l)
);
}
);
width = 616;
}
);
note = uni099709CD09A8.akhn;
},
{
glyphname = uni099709CD09F1.blwf;
lastChange = "2025-10-08 12:05:32 +0000";
layers = (
{
layerId = m01;
shapes = (
{
closed = 1;
nodes = (
(151,176,l),
(466,-37,l),
(466,-98,l),
(537,-98,l),
(537,691,l),
(625,691,l),
(625,763,l),
(466,763,l),
(466,611,l),
(398,681,ls),
(340.667,741.667,o),
(283.667,772,o),
(227,772,cs),
(195.667,772,o),
(166.667,763,o),
(140,745,cs),
(93.333,713,o),
(62,652.667,o),
(62,598,cs),
(62,578.667,o),
(65.667,561,o),
(73,545,cs),
(85,519.667,o),
(113,491,o),
(165,491,cs),
(180.333,491,o),
(196.667,493.333,o),
(214,498,cs),
(233.333,504,o),
(249.667,507,o),
(263,507,cs),
(275,507,o),
(282.667,505,o),
(286,501,cs),
(291.333,496.333,o),
(294,491.667,o),
(294,487,cs),
(294,485,o),
(293.333,482.667,o),
(292,480,c),
(284,442.667,o),
(216,391,o),
(136,379,c),
(160,312,l),
(238.667,321.333,o),
(343.333,388.333,o),
(362,463,cs),
(364,471,o),
(365,479,o),
(365,487,cs),
(365,510.333,o),
(356,531.333,o),
(338,550,cs),
(320,569.333,o),
(295,579,o),
(263,579,cs),
(243,579,o),
(220,575,o),
(194,567,cs),
(182.667,563.667,o),
(173,562,o),
(165,562,cs),
(151,562,o),
(142,566.667,o),
(138,576,cs),
(134.667,582,o),
(133,589,o),
(133,597,cs),
(133,627.667,o),
(151.667,665.667,o),
(181,687,cs),
(195,696.333,o),
(210,701,o),
(226,701,cs),
(263.333,701,o),
(303.667,678,o),
(347,632,cs),
(466,509,l),
(466,329,l),
(161,240,l),
(161,240,l),
(161,240,l)
);
},
{
closed = 1;
nodes = (
(466,49,l),
(254,193,l),
(466,255,l),
(466,255,l),
(466,255,l)
);
}
);
width = 616;
}
);
note = uni099709CD09F1.blwf;
},
{
glyphname = uni099709CD09AE.akhn;
lastChange = "2025-10-08 12:05:32 +0000";
layers = (
{
layerId = m01;
shapes = (
{
closed = 1;
nodes = (
(344,739.333,o),
(289.667,768,o),
(235,768,cs),
(204.333,768,o),
(176,759,o),
(150,741,cs),
(96.667,705,o),
(62,633.333,o),
(62,568,cs),
(62,545.333,o),
(66,525.333,o),
(74,508,cs),
(94,470,o),
(125.333,451,o),
(168,451,cs),
(182.667,451,o),
(198,453.333,o),
(214,458,cs),
(232,462.667,o),
(247,465,o),
(259,465,cs),
(272.333,465,o),
(280.333,462,o),
(283,456,cs),
(284.333,452.667,o),
(285,448.333,o),
(285,443,cs),
(285,397.667,o),
(232,316,o),
(152,272,c),
(186,210,l),
(283.333,262,o),
(356,366.333,o),
(356,445,cs),
(356,459.667,o),
(353.667,472.667,o),
(349,484,cs),
(338.333,510.667,o),
(311.333,537,o),
(258,537,cs),
(238.667,537,o),
(217.333,533.333,o),
(194,526,cs),
(184,523.333,o),
(175.333,522,o),
(168,522,cs),
(154.667,522,o),
(145,527.333,o),
(139,538,cs),
(135,546,o),
(133,555.667,o),
(133,567,cs),
(133,608.333,o),
(156.333,658,o),
(191,682,cs),
(204.333,692,o),
(219,697,o),
(235,697,cs),
(269.667,697,o),
(306.667,675.667,o),
(346,633,cs),
(466,509,l),
(466,231,l),
(452.667,233,o),
(439.667,234,o),
(427,234,cs),
(380.333,234,o),
(342.333,219.333,o),
(313,190,cs),
(281,159.333,o),
(264,112.667,o),
(264,66,cs),
(264,34,o),
(271.667,6.333,o),
(287,-17,cs),
(317.667,-61.667,o),
(362,-84,o),
(420,-84,cs),
(460.667,-84,o),
(498.667,-73.667,o),
(534,-53,c),
(498,9,l),
(474,-5.667,o),
(448.333,-13,o),
(421,-13,cs),
(387.667,-13,o),
(363,-1,o),
(347,23,cs),
(339,34.333,o),
(335,49,o),
(335,67,cs),
(335,96.333,o),
(344.333,120.333,o),
(363,139,cs),
(379,155,o),
(400,163,o),
(426,163,cs),
(468,163,o),
(519,143.333,o),
(579,104,cs),
(698,25,l),
(698,-81,l),
(769,-81,l),
(769,691,l),
(857,691,l),
(857,763,l),
(466,763,l),
(466,613,l),
(398,682,l),
(398,682,l),
(398,682,l)
);
},
{
closed = 1;
nodes = (
(590,181.667,o),
(563,196.667,o),
(537,208,c),
(537,691,l),
(698,691,l),
(698,110,l),
(618,163,l),
(618,163,l),
(618,163,l)
);
}
);
width = 848;
}
);
note = uni099709CD09AE.akhn;
},
{
glyphname = uni099709CD09F0.blwf;
lastChange = "2025-10-08 12:05:32 +0000";
layers = (
{
layerId = m01;
shapes = (
{
closed = 1;
nodes = (
(344,739.333,o),
(290,768,o),
(236,768,cs),
(204.667,768,o),
(176,759,o),
(150,741,cs),
(96.667,705,o),
(62,633.333,o),
(62,568,cs),
(62,545.333,o),
(66,525.333,o),
(74,508,cs),
(94,470,o),
(125,451,o),
(167,451,cs),
(181.667,451,o),
(197.333,453.667,o),
(214,459,cs),
(236,465,o),
(254.667,468,o),
(270,468,cs),
(286,468,o),
(295.333,465,o),
(298,459,cs),
(298.667,457,o),
(299,454.333,o),
(299,451,cs),
(299,419,o),
(260.333,363,o),
(199,327,c),
(234,264,l),
(315.333,312,o),
(370,388.333,o),
(370,451,cs),
(370,463.667,o),
(367.667,475.667,o),
(363,487,cs),
(348.333,521.667,o),
(317.667,539,o),
(271,539,cs),
(248.333,539,o),
(222.667,534.667,o),
(194,526,cs),
(184,523.333,o),
(175.333,522,o),
(168,522,cs),
(153.333,522,o),
(144,527.667,o),
(140,539,cs),
(136,547,o),
(134,557,o),
(134,569,cs),
(134,609,o),
(156.333,659.333,o),
(191,682,cs),
(205,692,o),
(220,697,o),
(236,697,cs),
(270.667,697,o),
(307.333,675.667,o),
(346,633,cs),
(466,509,l),
(466,146,l),
(438.667,163.333,o),
(407.667,172,o),
(373,172,cs),
(358.333,172,o),
(336.667,170,o),
(308,166,cs),
(282,161.333,o),
(262,159,o),
(248,159,cs),
(232,159,o),
(217.667,161.333,o),
(205,166,cs),
(163.667,179.333,o),
(140.333,215.667,o),
(135,275,c),
(64,269,l),
(71.333,179.667,o),
(110.667,122.667,o),
(182,98,cs),
(202.667,90.667,o),
(225,87,o),
(249,87,cs),
(265,87,o),
(288.333,89.333,o),
(319,94,cs),
(344.333,98.667,o),
(362.667,101,o),
(374,101,cs),
(408.667,101,o),
(436.667,87.667,o),
(466,49,c),
(466,1,l),
(537,1,l),
(537,691,l),
(625,691,l),
(625,763,l),
(466,763,l),
(466,613,l),
(398,682,l),
(398,682,l),
(398,682,l)
);
}
);
width = 616;
}
);
note = uni099709CD09F0.blwf;
},
{
glyphname = uni099709CD09B2.akhn;
lastChange = "2025-10-08 12:05:32 +0000";
layers = (
{
layerId = m01;
shapes = (
{
closed = 1;
nodes = (
(537,691,l),
(625,691,l),
(625,763,l),
(466,763,l),
(466,620,l),
(398,687,ls),
(343.333,740.333,o),
(289.333,767,o),
(236,767,cs),
(203.333,767,o),
(173,757.333,o),
(145,738,cs),
(94.333,702,o),
(62,636.667,o),
(62,578,cs),
(62,556.667,o),
(66,537.333,o),
(74,520,cs),
(93.333,482.667,o),
(124.667,464,o),
(168,464,cs),
(182,464,o),
(197,466.333,o),
(213,471,cs),
(230.333,475.667,o),
(245.333,478,o),
(258,478,cs),
(274.667,478,o),
(284.333,474,o),
(287,466,cs),
(287.667,463.333,o),
(288,460,o),
(288,456,cs),
(288,415.736,o),
(236.054,346.565,o),
(154,324,c),
(177,256,l),
(283.667,288,o),
(359,384.667,o),
(359,458,cs),
(359,468,o),
(357.667,477.667,o),
(355,487,cs),
(345.667,516.333,o),
(319.333,549,o),
(258,549,cs),
(238.667,549,o),
(217.667,546,o),
(195,540,cs),
(184.333,536.667,o),
(175.333,535,o),
(168,535,cs),
(153.333,535,o),
(143.333,540.333,o),
(138,551,cs),
(134.667,558.333,o),
(133,567,o),
(133,577,cs),
(133,613,o),
(153.667,657.333,o),
(187,680,cs),
(201.667,690.667,o),
(217.667,696,o),
(235,696,cs),
(269,696,o),
(306.667,675.667,o),
(348,635,cs),
(466,520,l),
(466,152,l),
(455.333,158.667,o),
(444.333,163.333,o),
(433,166,cs),
(424.333,168,o),
(415.667,169,o),
(407,169,cs),
(381,169,o),
(357.667,160.333,o),
(337,143,c),
(321.667,165.667,o),
(303,183,o),
(281,195,cs),
(261.667,205.667,o),
(240.333,211,o),
(217,211,cs),
(171.667,211,o),
(126,189.333,o),
(102,152,cs),
(85.333,128,o),
(77,97.667,o),
(77,61,cs),
(77,27,o),
(84,-3,o),
(98,-29,cs),
(116,-59.667,o),
(141.667,-80.333,o),
(175,-91,cs),
(189.667,-95.667,o),
(205.667,-98,o),
(223,-98,cs),
(235.667,-98,o),
(250.333,-96.667,o),
(267,-94,c),
(252,-24,l),
(242.667,-26,o),
(233.333,-27,o),
(224,-27,cs),
(194,-27,o),
(172.667,-16,o),
(160,6,cs),
(152,20.667,o),
(148,39,o),
(148,61,cs),
(148,83,o),
(152.333,99.667,o),
(161,111,cs),
(173,128.333,o),
(193.333,140,o),
(216,140,cs),
(226.667,140,o),
(237,137.333,o),
(247,132,cs),
(276.333,116,o),
(295,79.333,o),
(299,34,c),
(370,42,l),
(369,42,l),
(370,43,l),
(370,48,ls),
(370,66,o),
(373.333,78.667,o),
(380,86,cs),
(390.667,96.667,o),
(402.667,102,o),
(416,102,cs),
(420,102,ls),
(434.667,100.667,o),
(448,91,o),
(460,73,cs),
(462,69,o),
(464,64.667,o),
(466,60,c),
(466,-98,l),
(537,-98,l),
(537,-98,l),
(537,-98,l)
);
}
);
width = 616;
}
);
note = uni099709CD09B2.akhn;
},
{
glyphname = uni099809CD09A8.akhn;
lastChange = "2025-10-08 12:05:32 +0000";
layers = (
{
layerId = m01;
shapes = (
{
closed = 1;
nodes = (
(527,691,l),
(615,691,l),
(615,763,l),
(-9,763,l),
(-9,691,l),
(76,691,l),
(66,671,o),
(61,651,o),
(61,631,cs),
(61,598.333,o),
(73,569.667,o),
(97,545,cs),
(122.333,517,o),
(157.667,499.333,o),
(203,492,c),
(103,427,l),
(110,368,l),
(455,194,l),
(455,56,l),
(391,120,ls),
(343.667,164.667,o),
(296.333,187,o),
(249,187,cs),
(234.333,187,o),
(220.333,184.667,o),
(207,180,cs),
(147.667,157.333,o),
(111,109,o),
(97,35,cs),
(95,23.667,o),
(94,12.667,o),
(94,2,cs),
(94,-40.667,o),
(108.667,-72,o),
(138,-92,cs),
(155.333,-104,o),
(176,-110,o),
(200,-110,cs),
(232,-110,o),
(263,-100.667,o),
(293,-82,c),
(255,-21,l),
(237,-33,o),
(218.667,-39,o),
(200,-39,cs),
(190.667,-39,o),
(183.333,-37,o),
(178,-33,cs),
(169.333,-27.667,o),
(165,-15.667,o),
(165,3,cs),
(165,9.667,o),
(165.667,16.667,o),
(167,24,cs),
(176.333,70,o),
(197,99.333,o),
(229,112,cs),
(235,114,o),
(241.667,115,o),
(249,115,cs),
(276.333,115,o),
(307.333,99.333,o),
(342,68,cs),
(455,-44,l),
(455,-99,l),
(527,-99,l),
(527,-99,l),
(527,-99,l)
);
},
{
closed = 1;
nodes = (
(361,530,ls),
(362.333,531.333,o),
(364,532.667,o),
(366,534,c),
(319,589,l),
(316,585,l),
(295.333,569,o),
(269.667,561,o),
(239,561,cs),
(203,561,o),
(168,574,o),
(148,594,cs),
(138,604.667,o),
(133,616.667,o),
(133,630,cs),
(133,648.667,o),
(142.333,669,o),
(161,691,c),
(455,691,l),
(455,274,l),
(191,407,l),
(191,407,l),
(191,407,l)
);
}
);
width = 606;
}
);
note = uni099809CD09A8.akhn;
},
{
glyphname = uni099809CD09F1.blwf;
lastChange = "2025-10-08 12:05:32 +0000";
layers = (
{
layerId = m01;
shapes = (
{
closed = 1;
nodes = (
(62,618.667,o),
(70.667,595.333,o),
(88,574,cs),
(114,545.333,o),
(151.333,526.667,o),
(200,518,c),
(104,444,l),
(106,385,l),
(276,278,l),
(151,241,l),
(141,177,l),
(456,-36,l),
(456,-98,l),
(527,-98,l),
(527,691,l),
(615,691,l),
(615,763,l),
(-9,763,l),
(-9,691,l),
(72,691,l),
(65.333,675.667,o),
(62,660,o),
(62,644,cs)
);
},
{
closed = 1;
nodes = (
(187,418,l),
(364,554,l),
(321,610,l),
(299,594,o),
(271.667,586,o),
(239,586,cs),
(197.667,586,o),
(159.667,598.333,o),
(141,621,cs),
(135.667,627.667,o),
(133,635,o),
(133,643,cs),
(133,657,o),
(141.333,673,o),
(158,691,c),
(456,691,l),
(456,330,l),
(368,304,l),
(368,304,l),
(368,304,l)
);
},
{
closed = 1;
nodes = (
(456,50,l),
(244,194,l),
(456,256,l),
(456,256,l),
(456,256,l)
);
}
);
width = 606;
}
);
note = uni099809CD09F1.blwf;
},
{
glyphname = uni099809CD09F0.blwf;
lastChange = "2025-10-08 12:05:32 +0000";
layers = (
{
layerId = m01;
shapes = (
{
closed = 1;
nodes = (
(61,599.333,o),
(73,570.667,o),
(97,546,cs),
(123,518,o),
(159.667,500,o),
(207,492,c),
(101,401,l),
(105,345,l),
(455,147,l),
(455,54,l),
(429,70.667,o),
(401,79,o),
(371,79,cs),
(353.667,79,o),
(329.667,75.333,o),
(299,68,cs),
(271,61.333,o),
(251,58,o),
(239,58,cs),
(227.667,58,o),
(216.667,59.667,o),
(206,63,cs),
(162.667,77.667,o),
(138.667,112.667,o),
(134,168,c),
(63,163,l),
(70.333,77,o),
(110.333,21.333,o),
(183,-4,cs),
(201,-10.667,o),
(220,-14,o),
(240,-14,cs),
(258.667,-14,o),
(284.333,-10,o),
(317,-2,cs),
(341.667,4.667,o),
(359.667,8,o),
(371,8,cs),
(400.333,8,o),
(424.333,-5.667,o),
(455,-43,c),
(455,-98,l),
(527,-98,l),
(527,691,l),
(615,691,l),
(615,763,l),
(-9,763,l),
(-9,691,l),
(75,691,l),
(65.667,671,o),
(61,651.333,o),
(61,632,cs)
);
},
{
closed = 1;
nodes = (
(365,535,l),
(366,535,l),
(319,590,l),
(297.667,571.333,o),
(270.667,562,o),
(238,562,cs),
(202,562,o),
(168,575,o),
(148,595,cs),
(138,605.667,o),
(133,617.667,o),
(133,631,cs),
(133,649,o),
(142,669,o),
(160,691,c),
(455,691,l),
(455,231,l),
(193,383,l),
(193,383,l),
(193,383,l)
);
}
);
width = 606;
}
);
note = uni099809CD09F0.blwf;
},
{
glyphname = uni099909CD0995.half;
lastChange = "2025-10-08 12:05:32 +0000";
layers = (
{
layerId = m01;
shapes = (
{
closed = 1;
nodes = (
(619.333,588.667,o),
(611,587,o),
(603,587,cs),
(587,587,o),
(571.333,593.333,o),
(556,606,cs),
(546.667,613.333,o),
(539,624,o),
(533,638,cs),
(529.667,646.667,o),
(528,656.667,o),
(528,668,cs),
(528,675.333,o),
(528.667,683,o),
(530,691,c),
(672,691,l),
(670.667,639,o),
(656,606,o),
(628,592,cs)
);
},
{
closed = 1;
nodes = (
(390,48,l),
(173,197,l),
(390,276,l),
(390,276,l),
(390,276,l)
);
},
{
closed = 1;
nodes = (
(536,527.333,o),
(567.667,515,o),
(603,515,cs),
(623,515,o),
(641.667,519.333,o),
(659,528,cs),
(699,548,o),
(741.333,595,o),
(744,691,c),
(807,691,l),
(807,763,l),
(-10,763,l),
(-10,691,l),
(458,691,l),
(457.333,683.667,o),
(457,676.333,o),
(457,669,cs),
(457,623,o),
(474,584,o),
(508,552,cs)
);
},
{
closed = 1;
nodes = (
(637,123,o),
(609,97.667,o),
(553,91,c),
(558,20,l),
(610,24,o),
(648.667,41.333,o),
(674,72,cs),
(697.333,99.333,o),
(709,129.333,o),
(709,162,cs),
(709,166,o),
(708.667,170.333,o),
(708,175,cs),
(701.333,271,o),
(606.333,359.333,o),
(461,362,c),
(461,467,l),
(448,495,l),
(336,584,ls),
(298.667,614.667,o),
(264.333,632,o),
(233,636,cs),
(223,637.333,o),
(213.667,638,o),
(205,638,cs),
(185,638,o),
(167.333,635,o),
(152,629,cs),
(101.333,607,o),
(71,567.667,o),
(61,511,cs),
(60.333,505,o),
(60,499,o),
(60,493,cs),
(60,450.333,o),
(77.333,415.667,o),
(112,389,cs),
(138,371.667,o),
(165.667,363,o),
(195,363,cs),
(218.333,363,o),
(243,368.667,o),
(269,380,c),
(238,444,l),
(222.667,436.667,o),
(208.333,433,o),
(195,433,cs),
(180.333,433,o),
(166.667,437.333,o),
(154,446,cs),
(138.667,457.333,o),
(131,472,o),
(131,490,cs),
(131,494,o),
(131.333,497.667,o),
(132,501,cs),
(137.333,531,o),
(152.667,551.333,o),
(178,562,cs),
(186.667,565.333,o),
(195.667,567,o),
(205,567,cs),
(231,567,o),
(259.667,554.333,o),
(291,529,cs),
(390,449,l),
(390,352,l),
(84,241,l),
(75,178,l),
(390,-39,l),
(390,-59,l),
(461,-59,l),
(461,291,l),
(571.667,288.333,o),
(634.333,220.667,o),
(637,170,cs),
(637,167,l),
(637,167,l),
(637,167,l)
);
}
);
width = 797;
}
);
note = uni099909CD0995.half;
},
{
glyphname = uni099909CD099509CD09F0.half;
lastChange = "2025-10-08 12:05:32 +0000";
layers = (
{
layerId = m01;
shapes = (
{
closed = 1;
nodes = (
(400,296,l),
(400,88,l),
(183,217,l),
(183,217,l),
(183,217,l)
);
},
{
closed = 1;
nodes = (
(680.667,639,o),
(666,606,o),
(638,592,cs),
(629.333,588.667,o),
(621,587,o),
(613,587,cs),
(597,587,o),
(581.333,593.333,o),
(566,606,cs),
(556.667,613.333,o),
(549,624,o),
(543,638,cs),
(539.667,646.667,o),
(538,656.667,o),
(538,668,cs),
(538,675.333,o),
(538.667,683,o),
(540,691,c),
(682,691,l),
(682,691,l),
(682,691,l)
);
},
{
closed = 1;
nodes = (
(-10,763,l),
(-10,691,l),
(468,691,l),
(467.333,683.667,o),
(467,676.333,o),
(467,669,cs),
(467,623,o),
(484,584,o),
(518,552,cs),
(546,527.333,o),
(577.667,515,o),
(613,515,cs),
(633,515,o),
(651.667,519.333,o),
(669,528,cs),
(709,548,o),
(751.333,595,o),
(754,691,c),
(817,691,l),
(817,763,l),
(817,763,l),
(817,763,l)
);
},
{
closed = 1;
nodes = (
(400,1,l),
(400,-82,l),
(380.667,-73.333,o),
(360.333,-69,o),
(339,-69,cs),
(321.667,-69,o),
(297.667,-72.667,o),
(267,-80,cs),
(239,-86.667,o),
(219,-90,o),
(207,-90,cs),
(195.667,-90,o),
(184.667,-88.333,o),
(174,-85,cs),
(130.667,-70.333,o),
(106.667,-35.333,o),
(102,20,c),
(31,15,l),
(38.333,-71,o),
(78.333,-126.667,o),
(151,-152,cs),
(169,-158.667,o),
(188,-162,o),
(208,-162,cs),
(226.667,-162,o),
(252.333,-158,o),
(285,-150,cs),
(309.667,-143.333,o),
(327.667,-140,o),
(339,-140,cs),
(360.333,-140,o),
(380.667,-148.667,o),
(400,-166,c),
(400,-196,l),
(471,-196,l),
(471,311,l),
(581.667,308.333,o),
(644.333,240.667,o),
(647,190,cs),
(647,187,ls),
(647,143,o),
(619,117.667,o),
(563,111,c),
(568,40,l),
(620,44,o),
(658.667,61.333,o),
(684,92,cs),
(707.333,119.333,o),
(719,149.333,o),
(719,182,cs),
(719,186,o),
(718.667,190.333,o),
(718,195,cs),
(711.333,291,o),
(616.333,379.333,o),
(471,382,c),
(471,467,l),
(458,495,l),
(346,584,ls),
(308.667,614.667,o),
(274.333,632,o),
(243,636,cs),
(233,637.333,o),
(223.667,638,o),
(215,638,cs),
(195,638,o),
(177.333,635,o),
(162,629,cs),
(111.333,607,o),
(81,567.667,o),
(71,511,cs),
(70.333,505,o),
(70,499,o),
(70,493,cs),
(70,450.333,o),
(87.333,415.667,o),
(122,389,cs),
(148,371.667,o),
(175.667,363,o),
(205,363,cs),
(228.333,363,o),
(253,368.667,o),
(279,380,c),
(248,444,l),
(232.667,436.667,o),
(218.333,433,o),
(205,433,cs),
(190.333,433,o),
(176.667,437.333,o),
(164,446,cs),
(148.667,457.333,o),
(141,472,o),
(141,490,cs),
(141,494,o),
(141.333,497.667,o),
(142,501,cs),
(147.333,531,o),
(162.667,551.333,o),
(188,562,cs),
(196.667,565.333,o),
(205.667,567,o),
(215,567,cs),
(241,567,o),
(269.667,554.333,o),
(301,529,cs),
(400,449,l),
(400,372,l),
(94,261,l),
(85,198,l),
(85,198,l),
(85,198,l)
);
}
);
width = 807;
}
);
note = uni099909CD099509CD09F0.half;
},
{
glyphname = uni099909CD0997.half;
lastChange = "2025-10-08 12:05:32 +0000";
layers = (
{
layerId = m01;
shapes = (
{
closed = 1;
nodes = (
(528.333,588,o),
(519.667,586,o),
(511,586,cs),
(495.667,586,o),
(480.333,592.333,o),
(465,605,cs),
(456.333,613,o),
(448.667,624,o),
(442,638,cs),
(438.667,647.333,o),
(437,657.333,o),
(437,668,cs),
(437,675.333,o),
(437.667,683,o),
(439,691,c),
(582,691,l),
(580,638.333,o),
(565,605.333,o),
(537,592,cs)
);
},
{
closed = 1;
nodes = (
(445.333,527.333,o),
(476.667,515,o),
(512,515,cs),
(532,515,o),
(551,519.333,o),
(569,528,cs),
(609,546.667,o),
(650.333,595,o),
(653,691,c),
(715,691,l),
(715,763,l),
(-9,763,l),
(-9,691,l),
(367,691,l),
(366.333,683.667,o),
(366,676.667,o),
(366,670,cs),
(366,623.333,o),
(383.333,584,o),
(418,552,cs)
);
},
{
closed = 1;
nodes = (
(358,542.333,o),
(305.667,603.333,o),
(239,618,cs),
(227,620.667,o),
(215.333,622,o),
(204,622,cs),
(180,622,o),
(157.333,616,o),
(136,604,cs),
(104.667,587.333,o),
(82.333,561.333,o),
(69,526,cs),
(64.333,511.333,o),
(62,496.667,o),
(62,482,cs),
(62,460.667,o),
(67,439.667,o),
(77,419,cs),
(95.667,385,o),
(126,363.333,o),
(168,354,c),
(183,424,l),
(162.333,428.667,o),
(148,438.667,o),
(140,454,cs),
(135.333,464.667,o),
(133,474.667,o),
(133,484,cs),
(133,490,o),
(134,495.667,o),
(136,501,cs),
(149.333,533.667,o),
(172,550,o),
(204,550,cs),
(210,550,o),
(216.667,549.333,o),
(224,548,cs),
(261.333,540,o),
(293.333,499,o),
(304,447,cs),
(306.667,435,o),
(308,422.667,o),
(308,410,cs),
(308,390.667,o),
(304.667,370.667,o),
(298,350,cs),
(288,317.333,o),
(267.333,290,o),
(236,268,c),
(62,173,l),
(96,110,l),
(507,333,l),
(461.667,250.333,o),
(439,175.667,o),
(439,109,cs),
(439,97,o),
(439.667,85,o),
(441,73,cs),
(449,7,o),
(481.333,-46,o),
(538,-86,c),
(580,-28,l),
(540,0,o),
(517,36.667,o),
(511,82,cs),
(509.667,92.667,o),
(509,103,o),
(509,113,cs),
(509,163.667,o),
(523.333,215.333,o),
(552,268,cs),
(587.333,331.333,o),
(618,378.667,o),
(644,410,c),
(600,464,l),
(370,340,l),
(376.667,362.667,o),
(380,385.333,o),
(380,408,cs),
(380,426,o),
(378,443.667,o),
(374,461,cs)
);
}
);
width = 706;
}
);
note = uni099909CD0997.half;
},
{
glyphname = uni099909CD09AE.half;
lastChange = "2025-10-08 12:05:32 +0000";
layers = (
{
layerId = m01;
shapes = (
{
closed = 1;
nodes = (
(336.667,653.667,o),
(373.667,684.667,o),
(411,690,cs),
(415,690.667,o),
(418.667,691,o),
(422,691,cs),
(446.667,691,o),
(463.333,680.667,o),
(472,660,cs),
(475.333,654,o),
(477,648,o),
(477,642,cs),
(477,633.333,o),
(473.333,625.333,o),
(466,618,cs),
(448,599.333,o),
(419.333,590,o),
(380,590,cs),
(360,590,o),
(339.333,593,o),
(318,599,c)
);
},
{
closed = 1;
nodes = (
(266.333,241,o),
(256,240.333,o),
(246,239,c),
(175.333,303.667,o),
(137.667,403,o),
(133,537,c),
(61,536,l),
(66.333,396.667,o),
(104.667,287.333,o),
(176,208,c),
(171.333,204.667,o),
(167,201,o),
(163,197,cs),
(131,166.333,o),
(114,119.333,o),
(114,74,cs),
(114,42,o),
(122,14,o),
(138,-10,cs),
(168.667,-55.333,o),
(216.333,-77,o),
(271,-77,cs),
(311.667,-77,o),
(349.333,-66.667,o),
(384,-46,c),
(348,16,l),
(324,2,o),
(298.333,-5,o),
(271,-5,cs),
(237.667,-5,o),
(213,6.667,o),
(197,30,cs),
(189.667,41.333,o),
(186,55.667,o),
(186,73,cs),
(186,103,o),
(195.333,127.667,o),
(214,147,cs),
(229.333,163,o),
(250,171,o),
(276,171,cs),
(318.667,171,o),
(369.333,151,o),
(428,111,cs),
(662,-48,l),
(662,-98,l),
(733,-98,l),
(733,691,l),
(822,691,l),
(822,763,l),
(441,763,ls),
(425.667,762.333,o),
(412,761.333,o),
(400,760,cs),
(341.333,752,o),
(280,705.333,o),
(252,624,c),
(217.333,644,o),
(204,671,o),
(204,727,c),
(169,762,l),
(152,763,l),
(-9,763,l),
(-9,691,l),
(134,691,l),
(143.333,619,o),
(177,578.667,o),
(237,552,c),
(234.333,534,o),
(233,516.667,o),
(233,500,cs),
(233,426.667,o),
(251.667,375,o),
(289,345,cs),
(313,327,o),
(338.667,318,o),
(366,318,cs),
(372.667,318,o),
(379.667,318.667,o),
(387,320,cs),
(424.333,326,o),
(460,348.667,o),
(494,388,c),
(500.667,369.333,o),
(504,349.333,o),
(504,328,cs),
(504,310,o),
(501.667,292.667,o),
(497,276,cs),
(485.667,234.667,o),
(463.667,207.333,o),
(431,194,c),
(374.333,225.333,o),
(323,241,o),
(277,241,cs)
);
},
{
closed = 1;
nodes = (
(531.333,176,o),
(554.333,211.667,o),
(567,257,cs),
(573,279.667,o),
(576,303.333,o),
(576,328,cs),
(576,388,o),
(556.333,444.667,o),
(523,478,c),
(468,471,l),
(449.333,440.333,o),
(410,396.667,o),
(374,390,cs),
(370.667,389.333,o),
(367.667,389,o),
(365,389,cs),
(355,389,o),
(344.333,393,o),
(333,401,cs),
(314.333,416.333,o),
(305,449,o),
(305,499,cs),
(305,508.333,o),
(305.333,518,o),
(306,528,c),
(331.333,522,o),
(356,519,o),
(380,519,cs),
(437.333,519,o),
(486.333,536,o),
(517,568,cs),
(537.667,589.333,o),
(548,614,o),
(548,642,cs),
(548,657.333,o),
(544.667,672.667,o),
(538,688,cs),
(537.333,689.333,o),
(537,690.333,o),
(537,691,c),
(662,691,l),
(662,38,l),
(498,150,l),
(498,150,l),
(498,150,l)
);
}
);
width = 812;
}
);
note = uni099909CD09AE.half;
},
{
glyphname = uni099909CD09F0.blwf;
lastChange = "2025-10-08 12:05:32 +0000";
layers = (
{
layerId = m01;
shapes = (
{
closed = 1;
nodes = (
(393.333,658.333,o),
(440.333,680.333,o),
(475,687,cs),
(483,688.333,o),
(491,689,o),
(499,689,cs),
(531,689,o),
(558,677,o),
(566,661,cs),
(569.333,655,o),
(571,650,o),
(571,646,cs),
(571,637.333,o),
(565.333,629,o),
(554,621,cs),
(530,604.333,o),
(494.667,596,o),
(448,596,cs),
(422,596,o),
(395.333,599,o),
(368,605,c)
);
},
{
closed = 1;
nodes = (
(626,201,l),
(641.333,219,o),
(653.333,239.333,o),
(662,262,cs),
(670.667,286,o),
(675,311.333,o),
(675,338,cs),
(675,398,o),
(652,455.667,o),
(612,489,c),
(561,482,l),
(558.333,474,o),
(487.333,399,o),
(430,399,cs),
(414,399,o),
(399,403.667,o),
(385,413,cs),
(359.667,429,o),
(350,463.333,o),
(350,506,cs),
(350,514.667,o),
(350.667,524,o),
(352,534,c),
(384,527.333,o),
(415.333,524,o),
(446,524,cs),
(508,524,o),
(557.333,536.667,o),
(594,562,cs),
(626,584,o),
(642,612,o),
(642,646,cs),
(642,662,o),
(638,678,o),
(630,694,cs),
(607.333,735.333,o),
(556.667,760,o),
(498,760,cs),
(486,760,o),
(474,759,o),
(462,757,cs),
(395.333,745,o),
(330.667,700.667,o),
(300,626,c),
(232,652.667,o),
(172.667,695,o),
(122,753,c),
(68,705,l),
(128,637,o),
(199.333,587,o),
(282,555,c),
(280,537.667,o),
(279,521,o),
(279,505,cs),
(279,432.333,o),
(301.333,381.667,o),
(346,353,cs),
(372,336.333,o),
(399.667,328,o),
(429,328,cs),
(487.667,328,o),
(544,361,o),
(588,405,c),
(598,385.667,o),
(603,363.667,o),
(603,339,cs),
(603,320.333,o),
(600,303,o),
(594,287,cs),
(574,231,o),
(522.333,199,o),
(449,199,cs),
(350.333,199,o),
(253,250,o),
(193,354,cs),
(163,406,o),
(146.667,469.333,o),
(144,544,c),
(73,541,l),
(78.333,369,o),
(157.667,240,o),
(271,176,cs),
(327.667,144,o),
(387,128,o),
(449,128,cs),
(488.333,128,o),
(523.667,134.667,o),
(555,148,c),
(555,43,l),
(519.667,64.333,o),
(481,75,o),
(439,75,cs),
(419.667,75,o),
(392.667,72,o),
(358,66,cs),
(324.667,60.667,o),
(299.333,58,o),
(282,58,cs),
(262.667,58,o),
(244.333,60.333,o),
(227,65,cs),
(169.667,81,o),
(138.333,116.333,o),
(133,171,c),
(62,164,l),
(71.333,78,o),
(120,22.333,o),
(208,-3,cs),
(230.667,-9.667,o),
(255,-13,o),
(281,-13,cs),
(300.333,-13,o),
(329.667,-10,o),
(369,-4,cs),
(401.667,0.667,o),
(425,3,o),
(439,3,cs),
(480.333,3,o),
(515,-10,o),
(555,-46,c),
(555,-98,l),
(626,-98,l),
(626,-98,l),
(626,-98,l)
);
}
);
width = 737;
}
);
note = uni099909CD09F0.blwf;
},
